<?xml version="1.0" encoding="utf-8"?>
<!-- Generator: Adobe Illustrator 21.0.0, SVG Export Plug-In . SVG Version: 6.00 Build 0)  -->
<svg version="1.1" id="Layer_2" xmlns="http://www.w3.org/2000/svg" xmlns:xlink="http://www.w3.org/1999/xlink" x="0px" y="0px"
	 viewBox="0 0 721 680" style="enable-background:new 0 0 721 680;" xml:space="preserve">
<style type="text/css">
	.st0{fill:#FFFFFF;stroke:#000000;stroke-width:3;stroke-miterlimit:10;}
</style>
<!-- Remove the transform attribute to flip bridge back to original image -->
<g transform="translate(811), scale(-1, 1)">
	<polyline class="st0" points="121,435.8 690.1,228.6 121,512.4 "/>
	<polygon class="st0" points="278.8,42.2 298.1,629.5 350.8,629.5 314.8,42.2 295.7,10.2 "/>
	<polyline class="st0" points="121,554.4 690.1,228.6 121,645.4 "/>
	<line class="st0" x1="654.4" y1="249" x2="317.5" y2="69.3"/>
	<line class="st0" x1="319.2" y1="98" x2="629.5" y2="263.3"/>
	<line class="st0" x1="321.1" y1="130.7" x2="595.2" y2="274.2"/>
	<line class="st0" x1="572.3" y1="287.4" x2="322.8" y2="159.1"/>
	<line class="st0" x1="324.9" y1="195" x2="539.6" y2="303.6"/>
	<line class="st0" x1="324.9" y1="228.6" x2="504.7" y2="319.8"/>
	<line class="st0" x1="329.3" y1="269" x2="470.7" y2="338"/>
	<line class="st0" x1="331.7" y1="308.8" x2="429.5" y2="358.5"/>
	<line class="st0" x1="288.3" y1="325" x2="217.6" y2="499.1"/>
	<line class="st0" x1="287.1" y1="284" x2="178.2" y2="521.6"/>
	<line class="st0" x1="286" y1="249" x2="134.9" y2="546.4"/>
	<path class="st0" d="M284.8,212"/>
	<line class="st0" x1="284.8" y1="209" x2="121" y2="518.9"/>
	<line class="st0" x1="283.8" y1="171.6" x2="121" y2="454"/>
	<line class="st0" x1="282.9" y1="136" x2="121" y2="383.8"/>
	<line class="st0" x1="281.9" y1="105" x2="121" y2="316.2"/>
	<line class="st0" x1="279.8" y1="73" x2="121" y2="269.6"/>
</g>
</svg>
