<?xml version="1.0" encoding="utf-8"?>
<!-- Generator: Adobe Illustrator 21.0.0, SVG Export Plug-In . SVG Version: 6.00 Build 0)  -->
<svg version="1.1" xmlns="http://www.w3.org/2000/svg" xmlns:xlink="http://www.w3.org/1999/xlink" x="0px" y="0px"
	 viewBox="0 0 183 118" style="enable-background:new 0 0 183 118;" xml:space="preserve">
<style type="text/css">
	.st0{fill:#BBBDC0;}
	.st1{fill:#FFFFFF;}
	.st2{fill:none;stroke:#000000;stroke-linecap:square;stroke-linejoin:bevel;stroke-miterlimit:10;}
	.st3{fill:none;stroke:#000000;stroke-miterlimit:10;}
	.st4{fill:#848387;}
	.st5{fill:#BDBEC0;}
	.st6{fill:none;stroke:#000000;stroke-linejoin:bevel;stroke-miterlimit:10;}
	.st7{fill:#BCBEC0;}
	.st8{fill:#858689;stroke:#000000;stroke-linejoin:bevel;stroke-miterlimit:10;}
	.st9{fill:#BFC1C3;stroke:#000000;stroke-linejoin:bevel;stroke-miterlimit:10;}
	.st10{fill:#858689;}
	.st11{fill:#BCBDC0;}
	.st12{fill:#C2C3C4;}
	.st13{fill:#C0C1C5;}
	.st14{fill:#BCBDC0;stroke:#000000;stroke-miterlimit:10;}
	.st15{fill:#BFC1C3;}
	.st16{fill:#C1C2C4;}
	.st17{fill:#FFFFFF;stroke:#000000;stroke-linejoin:bevel;stroke-miterlimit:10;}
</style>
<g id="Layer_4">
	<g id="XMLID_2_">
		<g>
			<polygon class="st0" points="43.5,27.2 45.2,81.6 19.6,89.8 12.5,87.7 10.7,32.7 			"/>
			<polygon class="st0" points="43.8,25.2 43.5,27.2 10.7,32.7 4.3,29 			"/>
			<polygon class="st1" points="10.7,32.7 12.3,87.8 9.5,85.3 4,29 			"/>
		</g>
		<g>
			<polyline class="st2" points="12.5,87.7 19.6,89.8 45.2,81.6 43.5,27.2 			"/>
			<polyline class="st3" points="4.3,29 43.8,25.2 43.5,27.2 10.7,32.7 			"/>
			<polygon class="st2" points="4,29 10.7,32.7 12.3,87.8 9.5,85.3 			"/>
		</g>
	</g>
</g>
<g id="Layer_2">
	<g id="XMLID_1_">
		<g>
			<path class="st0" d="M169.4,19.7l0.3,33.1L141.7,68L141,20L169.4,19.7z M165.8,42.1l-0.1-5.7l-7.5-0.4l0.2,6.1H165.8z
				 M165.5,31.3l-0.1-6.3l-7.4,0.1l0.2,6.4L165.5,31.3z M151.7,41.1l0.1-4.8l-7.7,0.1l0.4,4.4L151.7,41.1z M151.4,31.9l-0.4-6.6
				l-6.6-0.5l-0.1,7.2L151.4,31.9z"/>
			<polygon class="st4" points="159,14.1 169.4,19.6 169.4,19.7 141,20 135.3,14.2 			"/>
			<polygon class="st0" points="165.8,36.4 165.8,42.1 158.5,42.1 158.2,36 			"/>
			<polygon class="st0" points="165.4,25 165.5,31.3 158.1,31.4 157.9,25.1 			"/>
			<polygon class="st0" points="151.8,36.3 151.7,41.1 144.5,40.8 144.1,36.4 			"/>
			<polygon class="st0" points="151,25.3 151.4,31.9 144.3,32.1 144.3,24.9 			"/>
			<path class="st5" d="M135.3,14.2L141,20l0.7,48l-21.3-0.7l1.3-45.3l0.3-0.4l8.7-12.1L135.3,14.2z M137.2,32c0,0,1-13.2-5.7-11.5
				c-6.7,1.7-4.7,13.3-4.7,13.3L137.2,32z"/>
			<path class="st5" d="M131.5,20.5c6.7-1.7,5.7,11.5,5.7,11.5l-10.3,1.8C126.8,33.8,124.8,22.2,131.5,20.5z"/>
			<polygon class="st4" points="130.6,9.2 130.6,9.5 122,21.6 121.8,21.5 106.3,17.7 117,8.3 			"/>
			<polygon class="st4" points="122,21.6 121.7,22 93.8,25.6 93.6,20.2 106.3,17.7 121.8,21.5 			"/>
			<path class="st5" d="M121.7,22l-1.3,45.3L91,72.2l2.8-46.5L121.7,22z M117.2,57.2l0.3-6.8l-7,0.6l-0.2,6.1L117.2,57.2z
				 M117.3,47.5v-6.3l-6.3,0.1l-0.2,5.8L117.3,47.5z M116.8,36.8l0.1-7.8h-6.3l0.1,7.4L116.8,36.8z M106.2,47.3l-0.2-5.6l-4.6-0.1
				l0.1,5.5L106.2,47.3z M105.5,37.1l-0.1-7.6l-5.2-0.1L101,37L105.5,37.1z"/>
			<polygon class="st5" points="117.5,50.5 117.2,57.2 110.2,57.2 110.5,51.1 			"/>
			<polygon class="st5" points="117.3,41.2 117.3,47.5 110.8,47.1 111,41.2 			"/>
			<polygon class="st5" points="116.9,29.1 116.8,36.8 110.7,36.5 110.6,29.1 			"/>
			<polygon class="st5" points="106,41.8 106.2,47.3 101.5,47.2 101.4,41.7 			"/>
			<polygon class="st5" points="105.4,29.5 105.5,37.1 101,37 100.2,29.4 			"/>
		</g>
		<g>
			<polygon class="st3" points="121.7,22 122,21.6 130.6,9.5 135.3,14.2 141,20 141.7,68 120.3,67.3 			"/>
			<polyline class="st3" points="130.6,9.2 117,8.3 106.3,17.7 121.8,21.5 			"/>
			<polyline class="st6" points="135.2,14.2 135.3,14.2 159,14.1 169.4,19.6 169.6,19.7 169.4,19.7 141,20 			"/>
			<polyline class="st3" points="106.3,17.7 93.6,20.2 93.8,25.6 121.7,22 			"/>
			<polygon class="st3" points="144.3,24.9 144.3,32.1 151.4,31.9 151,25.3 			"/>
			<polygon class="st3" points="157.9,25.1 158.1,31.4 165.5,31.3 165.4,25 			"/>
			<polygon class="st3" points="144.1,36.4 151.8,36.3 151.7,41.1 144.5,40.8 			"/>
			<polygon class="st3" points="158.2,36 158.5,42.1 165.8,42.1 165.8,36.4 			"/>
			<polygon class="st3" points="100.2,29.4 101,37 105.5,37.1 105.4,29.5 			"/>
			<polygon class="st3" points="110.6,29.1 110.7,36.5 116.8,36.8 116.9,29.1 			"/>
			<polygon class="st3" points="101.4,41.7 106,41.8 106.2,47.3 101.5,47.2 			"/>
			<polygon class="st3" points="111,41.2 110.8,47.1 117.3,47.5 117.3,41.2 			"/>
			<polygon class="st3" points="110.5,51.1 110.2,57.2 117.2,57.2 117.5,50.5 			"/>
			<path class="st3" d="M126.8,33.8l10.3-1.8c0,0,1-13.2-5.7-11.5C124.8,22.2,126.8,33.8,126.8,33.8z"/>
			<polyline class="st3" points="93.8,25.6 91,72.2 120.3,67.3 			"/>
			<polyline class="st3" points="141.7,68 169.8,52.8 169.4,19.7 169.4,19.6 169.4,19.3 			"/>
		</g>
	</g>
</g>
<g id="Layer_3">
	<g id="XMLID_8_">
		<g>
			<polygon class="st5" points="71.6,16.9 71.8,17 97.3,17.4 98.8,54.7 69.6,58.5 69.6,58.1 69.8,58.2 69.3,18.2 69.3,15.3 
				55.5,3.3 71.7,16.9 			"/>
			<polygon class="st7" points="97.7,17 97.7,17.1 71.7,16.9 55.5,3.3 55.5,3.2 82.7,3.6 			"/>
			<path class="st1" d="M69.6,58.1l-28.9-2.6l-2.3-42.8l17.2-9.3l13.8,12v2.8l0.5,40L69.6,58.1z M59.6,24.7C59,20.2,57.5,14,52.8,14
				c-6.1-0.1-7.7,6-8.1,10.5c-0.2,2.7,0,4.8,0,4.8s0.9,19.9,7.5,22.4c0.3,0.1,0.7,0.2,1,0.2c7.5,0.7,6.7-23,6.7-23
				S59.9,27.1,59.6,24.7z"/>
			<path class="st1" d="M59.8,29c0,0,0.8,23.7-6.7,23c-0.4,0-0.7-0.1-1-0.2l0-0.1c0.3-0.5,0.5-16.1,0.6-27.1l6.8,0.1
				C59.9,27.1,59.8,29,59.8,29z"/>
			<path class="st1" d="M59.6,24.7l-6.8-0.1c0.1-6,0.1-10.6,0.1-10.6C57.5,14,59,20.2,59.6,24.7z"/>
			<path class="st1" d="M52.8,14l-0.2,10.6l-7.9-0.1C45.1,20,46.8,13.9,52.8,14z"/>
			<path class="st1" d="M52.6,24.6L52.8,14c0,0,0,4.6-0.1,10.6H52.6z"/>
			<path class="st1" d="M52.6,24.6h0.1c-0.1,11-0.3,26.5-0.6,27.1L52.6,24.6z"/>
			<path class="st1" d="M52.6,24.6l-0.5,27.1l0,0.1c-6.5-2.5-7.5-22.4-7.5-22.4s-0.2-2.1,0-4.8L52.6,24.6z"/>
		</g>
		<g>
			<polyline class="st6" points="55.5,3.2 82.7,3.6 82.9,3.6 			"/>
			<polyline class="st6" points="69.6,58.1 69.6,58.5 98.8,54.7 97.3,17.4 			"/>
			<polygon class="st3" points="69.6,58.1 69.8,58.2 69.3,18.2 69.3,15.3 55.5,3.3 38.3,12.7 40.7,55.5 			"/>
			<polyline class="st3" points="34.8,14 55.5,3.3 71.7,16.9 71.8,17 			"/>
			<polyline class="st3" points="82.6,3.4 82.7,3.6 97.7,17 			"/>
			<path class="st3" d="M52.1,51.8c-6.5-2.5-7.5-22.4-7.5-22.4s-0.2-2.1,0-4.8c0.4-4.5,2.1-10.6,8.1-10.5c4.6,0,6.2,6.2,6.7,10.7
				c0.3,2.4,0.3,4.3,0.3,4.3s0.8,23.7-6.7,23C52.8,52,52.5,51.9,52.1,51.8z"/>
			<path class="st3" d="M52.8,14c0,0,0,4.6-0.1,10.6c-0.1,11-0.3,26.5-0.6,27.1"/>
			<polyline class="st3" points="44.5,24.5 44.7,24.5 52.6,24.6 52.8,24.6 59.6,24.7 59.7,24.7 			"/>
			<polyline class="st6" points="71.5,16.9 71.6,16.9 71.7,16.9 97.7,17.1 98,17.1 			"/>
		</g>
	</g>
</g>
<g id="Layer_10">
	<polygon class="st8" points="164.8,48.6 153,59.6 171.4,63.2 181,49 	"/>
	<polygon class="st9" points="155.4,83.9 170.1,80.1 171.4,63.2 153.1,59.3 	"/>
	<polygon class="st8" points="180.8,49.3 176.4,70.6 170.1,80.1 171.4,63.2 	"/>
</g>
<g id="Layer_9">
	<g id="XMLID_7_">
		<g>
			<polygon class="st10" points="159.2,45.3 159,45.4 159,45.2 155.3,48 152.2,50.2 141.8,33.6 			"/>
			<polygon class="st11" points="159,45.2 159,45.4 155.3,48 			"/>
			<polygon class="st11" points="159,45.4 157.8,74 152.6,72.8 152.6,72.5 152.1,50.4 152.1,50.3 152.2,50.2 155.3,48 			"/>
			<polygon class="st11" points="152.1,50.4 152.6,72.5 152.6,72.8 134.1,68.3 134.1,68.2 134.2,51.6 134.4,51.6 151.9,50.4 
				152,50.3 152.1,50.3 			"/>
			<polygon class="st10" points="141.8,33.6 152.2,50.2 152,50.3 134.4,51.5 			"/>
			<polygon class="st11" points="152,50.3 151.9,50.4 134.4,51.6 134.4,51.5 			"/>
			<polygon class="st10" points="141.8,33.6 134.4,51.5 134.2,51.5 122.1,47.4 122.1,47.6 121.9,47.5 			"/>
			<polygon class="st11" points="134.4,51.5 134.4,51.6 134.2,51.6 134.2,51.5 			"/>
			<polygon class="st11" points="134.2,51.5 134.2,51.6 122.1,47.6 122.1,47.4 			"/>
			<polygon class="st11" points="134.2,51.6 134.1,68.2 134.1,68.3 124.2,66 122.1,47.6 			"/>
		</g>
		<g>
			<polyline class="st6" points="159,45.4 157.8,74 152.6,72.8 134.1,68.3 124.2,66 122.1,47.6 			"/>
			<polyline class="st6" points="152,50.3 152.1,50.3 152.2,50.2 155.3,48 			"/>
			<line class="st6" x1="152.1" y1="50.4" x2="152.6" y2="72.5"/>
			<line class="st3" x1="134.2" y1="51.6" x2="134.1" y2="68.2"/>
			<polygon class="st6" points="141.8,33.6 159.2,45.3 159,45.4 155.3,48 152.2,50.2 152,50.3 151.9,50.4 134.4,51.6 134.2,51.6 
				122.1,47.6 121.9,47.5 			"/>
			<polyline class="st6" points="134.4,51.6 134.4,51.5 141.8,33.6 152.2,50.2 152.2,50.2 			"/>
		</g>
	</g>
</g>
<g id="Layer_5">
	<g id="XMLID_3_">
		<g>
			<path class="st1" d="M54.4,72.5l0.8-1.8c0,0,0,0,0,0l1.1-1.2l2.8,35.9l0,0.2l-29.8-2.8l-6.5-59.1C29.8,46,42.4,52.6,54.4,72.5z"
				/>
			<path class="st10" d="M17.5,39.8C45.1,47.1,54.9,70,55.2,70.7v0l-0.8,1.8C42.4,52.6,29.8,46,22.9,43.8c-3.3-1.1-5.3-1.1-5.3-1.1
				L17.5,39.8z"/>
			<path class="st10" d="M56.4,69.6l-1.1,1.2c0,0,0,0,0,0v0C54.9,70,45.1,47.1,17.5,39.8c-0.1,0-0.2-0.1-0.3-0.1l28.5-4.2
				c0,0,16,11.2,22.2,22.2l-0.9,0.9l0-0.1L56.4,69.6L56.4,69.6z"/>
			<polygon class="st12" points="67.1,58.6 69.5,98.9 59.1,105.5 56.4,69.6 			"/>
		</g>
		<g>
			<path class="st6" d="M55.2,70.7C54.9,70,45.1,47.1,17.5,39.8c-0.1,0-0.2-0.1-0.3-0.1l28.5-4.2c0,0,16,11.2,22.2,22.2l-0.9,0.9
				L56.4,69.6L55.2,70.7C55.2,70.8,55.2,70.8,55.2,70.7"/>
			<path class="st3" d="M17.5,39.8l0,2.8c0,0,2,0,5.3,1.1c6.9,2.2,19.5,8.9,31.5,28.7l0.8-1.8v0l0.1-0.3"/>
			<polyline class="st6" points="22.9,43.6 22.9,43.8 29.4,102.9 59.2,105.7 59.1,105.5 56.4,69.6 56.4,69.5 67.1,58.5 67.1,58.6 
				69.5,98.9 59.1,105.5 58.9,105.6 			"/>
		</g>
	</g>
</g>
<g id="Layer_6">
	<g id="XMLID_4_">
		<g>
			<polygon class="st13" points="41.6,67.4 41.4,67.7 41.4,67.5 37.1,74.4 15.5,73.6 23.7,66.2 			"/>
			<polygon class="st1" points="37.1,74.4 41.4,67.7 41.4,103.4 37.1,107.1 			"/>
			<polygon class="st1" points="33.7,94.3 33.8,101 28,101.2 28.3,94.8 			"/>
			<polygon class="st1" points="33.8,82.8 33.7,89.8 28.8,90.3 28.8,83 			"/>
			<polygon class="st1" points="24.8,81.8 24.5,90.2 19.8,89 19.5,81.8 			"/>
			<path class="st1" d="M37.1,74.4l-0.2,32.5l-19.2-3.6l-2.1-29.6L37.1,74.4z M33.7,89.8l0.2-7l-5,0.2v7.3L33.7,89.8z M33.8,101
				l-0.2-6.7l-5.3,0.5l-0.3,6.3L33.8,101z M24.5,90.2l0.3-8.3h-5.3l0.3,7.2L24.5,90.2z"/>
		</g>
		<g>
			<polygon class="st3" points="15.7,73.8 37.1,74.4 36.9,106.9 17.8,103.3 			"/>
			<polygon class="st6" points="41.4,67.7 41.6,67.4 23.7,66.2 15.5,73.6 37.1,74.4 			"/>
			<polygon class="st6" points="37.1,74.4 41.4,67.5 41.4,67.7 41.4,103.4 37.1,107.1 			"/>
			<polygon class="st6" points="19.5,81.8 24.8,81.8 24.5,90.2 19.8,89 			"/>
			<polygon class="st6" points="28.8,83 28.8,90.3 33.7,89.8 33.8,82.8 			"/>
			<polygon class="st6" points="28.3,94.8 28,101.2 33.8,101 33.7,94.3 			"/>
		</g>
	</g>
</g>
<g id="Layer_8">
	<polygon class="st14" points="146.8,69.5 158.8,72 159.5,94.8 144.2,98.8 	"/>
	<g id="XMLID_6_">
		<g>
			<polygon class="st1" points="137.8,77.8 137.8,82.2 130.8,83.8 130.8,79.2 			"/>
			<polygon class="st1" points="140.5,89 140.5,102.7 130.8,105.1 130.8,104.8 130.5,91 			"/>
			<polygon class="st1" points="124.5,93.2 124.8,98.8 118.5,100 118.2,94.8 			"/>
			<polygon class="st1" points="125,80.2 124.8,85.5 118,87.8 118,82 			"/>
			<path class="st1" d="M147,67.2l-0.5,34l-6,1.5V89l-10,2l0.2,13.8l0.1,0.4L111,110l2.2-33.8L147,67.2z M137.8,82.2v-4.5l-7,1.5
				v4.5L137.8,82.2z M124.8,85.5l0.2-5.2l-7,1.8v5.8L124.8,85.5z M124.8,98.8l-0.2-5.5l-6.2,1.5l0.2,5.2L124.8,98.8z"/>
			<polygon class="st15" points="147,67.2 113.2,76.2 110,70.2 133.5,61.5 			"/>
		</g>
		<g>
			<polyline class="st6" points="147,67.2 146.5,101.2 140.5,102.7 130.8,105.1 111,110 113.2,76.2 			"/>
			<polygon class="st6" points="113.2,76.2 110,70.2 133.5,61.5 147,67.2 			"/>
			<polygon class="st6" points="130.8,79.2 130.8,83.8 137.8,82.2 137.8,77.8 			"/>
			<polygon class="st6" points="118,82 118,87.8 124.8,85.5 125,80.2 			"/>
			<polygon class="st6" points="118.2,94.8 124.5,93.2 124.8,98.8 118.5,100 			"/>
			<polyline class="st6" points="130.8,104.8 130.5,91 140.5,89 140.5,102.7 140.5,102.8 			"/>
		</g>
	</g>
</g>
<g id="Layer_7">
	<g id="XMLID_5_">
		<g>
			<polygon class="st1" points="53.7,72.5 111.5,71.1 120.7,70.9 120.7,71 117.6,85.5 84.8,75.3 57.9,86.7 53.5,72.5 			"/>
			<path class="st16" d="M110.5,58.6l10.2,12.3l-9.2,0.2V71c-0.7,0-5.5-4.4-5.5-4.4c0-0.3,0-0.5,0-0.8l0.1,0l2.6-0.2
				c0,0,0.2-3.1-0.5-7L110.5,58.6z"/>
			<polygon class="st1" points="117.6,85.5 117,88 117,88 84.8,78.2 58.7,89.2 57.9,86.7 84.8,75.3 			"/>
			<polygon class="st1" points="117,88 111,115.5 67,116.1 58.7,89.2 84.8,78.2 117,88 			"/>
			<path class="st1" d="M111.5,71L111.5,71l-57.8,1.5l11.6-13.2l0.8,0c-0.7,3.6-0.4,6.3-0.4,6.3c2,2.7,7,1.5,7,1.5
				c4.5,1.9,12.5,0.2,12.5,0.2s8.7,1.1,12.1-0.5c0.5,0.4,3.1,0.4,5.2,0.2c1.3,0.1,2.7,0.1,3.3-0.3C106,66.6,110.8,71,111.5,71z"/>
			<path class="st16" d="M108.2,58.6c0.8,3.9,0.5,7,0.5,7l-2.6,0.2l-0.1,0c0.1-2.6-0.1-5-0.7-7.1L108.2,58.6z"/>
			<path class="st16" d="M108.2,58.6l-2.9,0c-3.1-12.1-15.4-16-16.9-16.5c0,0,0,0,0-0.1C102.5,42.4,106.9,51.8,108.2,58.6z"/>
			<path class="st16" d="M105.4,58.7c0.5,2.1,0.8,4.5,0.7,7.1c0,0.3,0,0.5,0,0.8c0,0-1.5,0.2-3.3,0.3c-1.3-0.1-2.5-0.3-2.5-0.3
				c-0.1-2.9-0.5-5.6-1.1-7.9L105.4,58.7z"/>
			<path class="st16" d="M105.4,58.7L99,58.8c-2-7.7-5.9-12.2-8.4-14.4c-1-1.3-1.8-1.9-2.1-2.1c0,0,0,0,0,0
				C90,42.7,102.3,46.5,105.4,58.7z"/>
			<path class="st1" d="M106,66.6c-0.6,0.4-2,0.4-3.3,0.3C104.5,66.8,106,66.6,106,66.6z"/>
			<path class="st1" d="M102.7,66.9c-2.1,0.2-4.7,0.2-5.2-0.2c-0.3-3-0.7-5.6-1.1-7.9l2.6,0c0.6,2.3,1,5,1.1,7.9
				C100.2,66.7,101.4,66.9,102.7,66.9z"/>
			<path class="st1" d="M99,58.8l-2.6,0c-1.6-7.9-4-12.2-5.8-14.5C93.1,46.5,97,51,99,58.8z"/>
			<path class="st1" d="M96.4,58.8c0.5,2.3,0.9,5,1.1,7.9c-3.4,1.6-12.1,0.5-12.1,0.5c-0.5-3.1-0.8-5.8-0.8-8.3L96.4,58.8z"/>
			<path class="st1" d="M90.6,44.3c1.8,2.2,4.2,6.6,5.8,14.5L84.5,59c-0.3-10.8,3-15.6,3.9-16.7C88.8,42.5,89.6,43.1,90.6,44.3z"/>
			<path class="st1" d="M88.4,42.2c0,0,0.1,0,0.1,0.1c-0.9,1.1-4.2,5.9-3.9,16.7l-10.3,0.1C75.9,53.8,79.8,47,88.4,42.2
				C88.3,42.2,88.3,42.2,88.4,42.2z"/>
			<path class="st1" d="M84.5,59c0.1,2.4,0.3,5.2,0.8,8.3c0,0-8.1,1.6-12.5-0.2c0,0-0.1-3.4,1.4-7.9L84.5,59z"/>
			<path class="st1" d="M88.3,42.2c-8.6,4.8-12.4,11.6-14.1,17l-8,0.1C67.5,52.8,72.1,43.5,88.3,42.2z"/>
			<path class="st1" d="M66.2,59.2l8-0.1c-1.5,4.5-1.4,7.9-1.4,7.9s-5,1.2-7-1.5C65.8,65.5,65.5,62.8,66.2,59.2z"/>
		</g>
		<g>
			<polygon class="st6" points="53.7,72.5 53.5,72.5 57.9,86.7 58.7,89.2 67,116.1 111,115.5 117,88 117.6,85.5 120.7,71 
				120.8,70.9 120.7,70.9 111.5,71.1 			"/>
			<polyline class="st6" points="66.2,59.2 65.4,59.2 53.7,72.5 53.6,72.7 			"/>
			<polyline class="st6" points="120.9,71.2 120.7,71 120.7,70.9 110.5,58.6 108.2,58.6 			"/>
			<polyline class="st6" points="57.7,86.8 57.9,86.7 84.8,75.3 117.6,85.5 117.7,85.5 			"/>
			<polyline class="st6" points="58.5,89.3 58.7,89.2 84.8,78.2 117,88 			"/>
			<path class="st6" d="M72.8,67c0,0-5,1.2-7-1.5c0,0-0.3-2.7,0.4-6.3c1.3-6.5,5.9-15.8,22.1-17.1c-8.6,4.8-12.4,11.6-14.1,17
				C72.8,63.6,72.8,67,72.8,67z"/>
			<path class="st6" d="M88.7,42c0,0,0,0-0.1,0.1c0,0,0,0,0,0.1c0,0,0,0,0,0c-0.9,1.1-4.2,5.9-3.9,16.7c0.1,2.4,0.3,5.2,0.8,8.3
				c0,0-8.1,1.6-12.5-0.2"/>
			<path class="st6" d="M88.3,42.2C88.3,42.2,88.3,42.2,88.3,42.2c0,0,0.1,0,0.2,0.1c1.5,0.4,13.8,4.3,16.9,16.5
				c0.5,2.1,0.8,4.5,0.7,7.1c0,0.3,0,0.5,0,0.8c0,0-1.5,0.2-3.3,0.3c-2.1,0.2-4.7,0.2-5.2-0.2"/>
			<path class="st6" d="M85.4,67.2c0,0,8.7,1.1,12.1-0.5c-0.3-3-0.7-5.6-1.1-7.9c-1.6-7.9-4-12.2-5.8-14.5c-1-1.3-1.8-1.9-2.1-2.1
				c0,0-0.1-0.1-0.1-0.1"/>
			<path class="st6" d="M106.2,65.8l2.6-0.2c0,0,0.2-3.1-0.5-7c-1.3-6.9-5.7-16.3-19.7-16.5c-0.1,0-0.1,0-0.2,0"/>
		</g>
	</g>
	<line class="st6" x1="61.3" y1="98.3" x2="115.2" y2="96.2"/>
	<line class="st6" x1="62.8" y1="103" x2="114.5" y2="99.8"/>
	<path class="st17" d="M81.1,115.6c0,0-1.8-8.1,6.4-9.8c8.2-1.7,6.7,9.4,6.7,9.4"/>
</g>
</svg>
