<?xml version="1.0" encoding="utf-8"?>
<!-- Generator: Adobe Illustrator 21.0.0, SVG Export Plug-In . SVG Version: 6.00 Build 0)  -->
<svg version="1.1" id="Layer_2" xmlns="http://www.w3.org/2000/svg" xmlns:xlink="http://www.w3.org/1999/xlink" x="0px" y="0px"
	 viewBox="0 0 93.11 211.515" enable-background="new 0 0 93.11 211.515" xml:space="preserve">
<path fill="none" stroke="#000000" stroke-width="2" stroke-miterlimit="10" d="M1.351,9.265c0,0,23-4.5,42.5-3.5s42.5-4.5,42.5-4.5
	s0.75,86.5,2.75,94s3,110.25,3,110.25s-43.551,3.55-45.5,4c-9.75,2.25-36.5,0-36.5,0s1-60.5-2.75-82s-0.25-62.25-0.25-62.25
	S4.351,17.265,1.351,9.265z"/>
<polygon points="17.351,28.265 17.851,38.765 76.351,33.765 76.351,24.265 "/>
<polygon points="19.351,50.265 19.351,69.265 77.851,64.765 77.851,52.265 "/>
<path d="M19.851,85.765l1.5,14.5c0,0,48.5-6.5,57.5-6l0.5-12L19.851,85.765z"/>
<path d="M21.851,111.265l-1,17.5l58-1.5l-0.5-12C78.351,115.265,20.351,116.265,21.851,111.265z"/>
<polygon points="22.851,145.265 78.851,143.765 80.851,157.265 23.351,164.265 "/>
<polygon points="22.851,180.765 24.351,194.765 78.851,194.765 78.351,182.265 "/>
</svg>
