<?xml version="1.0" encoding="utf-8"?>
<!-- Generator: Adobe Illustrator 21.0.0, SVG Export Plug-In . SVG Version: 6.00 Build 0)  -->
<svg version="1.1" id="Layer_2" xmlns="http://www.w3.org/2000/svg" xmlns:xlink="http://www.w3.org/1999/xlink" x="0px" y="0px"
	 viewBox="0 0 129.961 382.228" enable-background="new 0 0 129.961 382.228" xml:space="preserve">
<path fill="none" stroke="#000000" stroke-miterlimit="10" d="M3.437,93.041c0,0,6,268.668-2.667,288.668l128.667-3.167
	c0,0-3.333-68.166-2-88.833c1.333-20.667,0.667-112.667-2-130c-2.667-17.333-4-63.333-2-66S26.771,84.374,3.437,93.041z"/>
<path fill="none" stroke="#000000" stroke-miterlimit="10" d="M18.436,90.375c0,0-2.667-11.667-2-16.334
	c0.666-4.666,63.666,5.667,90.666,1c0,0-3.291,11.959-1.041,15.751"/>
<path fill="none" stroke="#000000" stroke-miterlimit="10" d="M30.061,73.042l-0.25-8.5c0,0,20.625-17.25,26.375-29.375l11.5,0.625
	c0,0,18.875,28.5,29.125,28.25c0,0-1,11.625,0.625,12.125"/>
<polygon fill="#020202" stroke="#000000" stroke-miterlimit="10" points="41.186,63.542 40.436,70.542 47.186,71.542 47.186,63.792 
	"/>
<polygon fill="#020202" stroke="#000000" stroke-miterlimit="10" points="55.186,63.292 54.936,70.542 61.936,71.292 61.186,62.792 
	"/>
<polygon fill="#020202" stroke="#000000" stroke-miterlimit="10" points="67.686,64.042 67.686,70.792 74.436,71.292 73.436,62.542 
	"/>
<polygon fill="#020202" stroke="#000000" stroke-miterlimit="10" points="80.186,62.792 85.936,62.792 86.186,71.542 79.436,71.542 
	"/>
<polygon fill="#020202" stroke="#000000" stroke-miterlimit="10" points="11.436,100.071 11.102,116.738 19.102,116.738 
	20.102,99.405 "/>
<polygon fill="#020202" stroke="#000000" stroke-miterlimit="10" points="30.539,99.376 28.872,116.376 39.205,116.042 
	38.872,97.042 "/>
<polygon fill="#020202" stroke="#000000" stroke-miterlimit="10" points="45.872,100.213 46.205,115.88 55.872,115.88 
	58.872,99.547 "/>
<polygon fill="#020202" stroke="#000000" stroke-miterlimit="10" points="11.436,126.071 11.102,142.738 21.102,142.738 
	21.102,125.405 "/>
<polygon fill="#020202" stroke="#000000" stroke-miterlimit="10" points="28.539,125.376 28.872,142.376 39.205,141.042 
	38.872,122.042 "/>
<polygon fill="#020202" stroke="#000000" stroke-miterlimit="10" points="45.872,126.213 47.205,141.88 57.872,141.88 
	56.872,125.547 "/>
<polygon fill="#020202" stroke="#000000" stroke-miterlimit="10" points="11.436,150.738 13.102,167.404 21.102,167.404 
	22.102,150.071 "/>
<polygon fill="#020202" stroke="#000000" stroke-miterlimit="10" points="30.539,152.042 30.872,167.042 41.205,166.709 
	38.872,149.709 "/>
<polygon fill="#020202" stroke="#000000" stroke-miterlimit="10" points="47.872,150.88 49.205,166.546 60.872,166.546 
	59.872,152.213 "/>
<polygon fill="#020202" stroke="#000000" stroke-miterlimit="10" points="13.436,176.738 13.102,193.404 20.102,193.404 
	22.102,176.071 "/>
<polygon fill="#020202" stroke="#000000" stroke-miterlimit="10" points="30.539,176.042 30.872,192.042 41.205,192.709 
	40.872,173.709 "/>
<polygon fill="#020202" stroke="#000000" stroke-miterlimit="10" points="47.872,173.88 48.205,192.546 57.872,192.546 
	59.872,173.213 "/>
<polygon fill="#020202" stroke="#000000" stroke-miterlimit="10" points="12.77,203.404 14.436,220.071 22.436,220.071 
	22.436,203.737 "/>
<polygon fill="#020202" stroke="#000000" stroke-miterlimit="10" points="30.873,202.709 32.206,219.709 42.539,219.376 
	42.206,200.375 "/>
<polygon fill="#020202" stroke="#000000" stroke-miterlimit="10" points="49.206,203.546 49.539,219.213 61.206,218.213 
	62.206,202.88 "/>
<polygon fill="#020202" stroke="#000000" stroke-miterlimit="10" points="43.206,347.546 43.539,380.213 96.206,379.213 
	96.206,346.88 "/>
<polygon fill="#020202" stroke="#000000" stroke-miterlimit="10" points="13.77,229.404 15.436,246.071 23.436,246.071 
	24.436,228.737 "/>
<polygon fill="#020202" stroke="#000000" stroke-miterlimit="10" points="31.873,227.709 32.206,245.709 42.539,245.376 
	42.206,226.376 "/>
<polygon fill="#020202" stroke="#000000" stroke-miterlimit="10" points="49.206,229.546 49.539,245.213 61.206,245.213 
	62.206,228.88 "/>
<polygon fill="#020202" stroke="#000000" stroke-miterlimit="10" points="13.436,255.737 13.102,269.404 23.102,271.404 
	24.102,254.071 "/>
<polygon fill="#020202" stroke="#000000" stroke-miterlimit="10" points="33.539,253.042 32.872,271.042 43.205,270.709 
	42.872,251.708 "/>
<polygon fill="#020202" stroke="#000000" stroke-miterlimit="10" points="49.872,254.879 50.205,270.546 59.872,270.546 
	62.872,254.213 "/>
<polygon fill="#020202" stroke="#000000" stroke-miterlimit="10" points="14.436,278.737 14.102,295.404 23.102,295.404 
	24.102,279.07 "/>
<polygon fill="#020202" stroke="#000000" stroke-miterlimit="10" points="31.539,278.042 32.872,293.042 43.205,294.709 
	42.872,275.709 "/>
<polygon fill="#020202" stroke="#000000" stroke-miterlimit="10" points="49.872,278.879 50.205,294.546 59.872,294.546 
	60.872,278.213 "/>
<polygon fill="#020202" stroke="#000000" stroke-miterlimit="10" points="14.102,324.737 13.768,342.404 21.768,341.404 
	22.768,324.07 "/>
<polygon fill="#020202" stroke="#000000" stroke-miterlimit="10" points="32.205,325.042 31.538,341.042 41.871,340.709 
	41.538,322.709 "/>
<polygon fill="#020202" stroke="#000000" stroke-miterlimit="10" points="48.538,324.879 48.871,340.546 60.538,340.546 
	61.538,324.213 "/>
<polygon fill="#020202" stroke="#000000" stroke-miterlimit="10" points="14.102,300.737 14.768,318.404 21.768,318.404 
	22.768,301.07 "/>
<polygon fill="#020202" stroke="#000000" stroke-miterlimit="10" points="31.205,300.042 31.538,318.042 41.871,317.709 
	41.538,298.709 "/>
<polygon fill="#020202" stroke="#000000" stroke-miterlimit="10" points="48.538,301.879 49.871,317.546 58.538,317.546 
	59.538,301.213 "/>
<polygon fill="#020202" stroke="#000000" stroke-miterlimit="10" points="67.436,99.571 67.102,116.238 75.102,116.238 
	76.102,98.905 "/>
<polygon fill="#020202" stroke="#000000" stroke-miterlimit="10" points="86.539,98.876 84.872,115.876 95.206,115.542 
	94.872,96.542 "/>
<polygon fill="#020202" stroke="#000000" stroke-miterlimit="10" points="60.872,5.542 58.205,35.542 64.54,35.209 62.206,2.209 "/>
<polygon fill="#020202" stroke="#000000" stroke-miterlimit="10" points="101.872,99.713 102.205,115.38 111.872,115.38 
	114.872,99.047 "/>
<polygon fill="#020202" stroke="#000000" stroke-miterlimit="10" points="67.436,125.571 67.102,142.238 77.102,142.238 
	77.102,124.905 "/>
<polygon fill="#020202" stroke="#000000" stroke-miterlimit="10" points="84.539,124.876 84.872,141.876 95.206,140.542 
	94.872,121.542 "/>
<polygon fill="#020202" stroke="#000000" stroke-miterlimit="10" points="101.872,125.713 103.205,141.38 113.872,141.38 
	112.872,125.047 "/>
<polygon fill="#020202" stroke="#000000" stroke-miterlimit="10" points="67.436,150.238 69.102,166.904 77.102,166.904 
	78.102,149.571 "/>
<polygon fill="#020202" stroke="#000000" stroke-miterlimit="10" points="86.539,151.542 86.872,166.542 97.206,166.209 
	94.872,149.209 "/>
<polygon fill="#020202" stroke="#000000" stroke-miterlimit="10" points="103.872,150.38 105.205,166.046 116.872,166.046 
	115.872,151.713 "/>
<polygon fill="#020202" stroke="#000000" stroke-miterlimit="10" points="69.436,176.238 69.102,192.904 76.102,192.904 
	78.102,175.571 "/>
<polygon fill="#020202" stroke="#000000" stroke-miterlimit="10" points="86.539,175.542 86.872,191.542 97.206,192.209 
	96.872,173.209 "/>
<polygon fill="#020202" stroke="#000000" stroke-miterlimit="10" points="103.872,173.38 104.205,192.046 113.872,192.046 
	115.872,172.713 "/>
<polygon fill="#020202" stroke="#000000" stroke-miterlimit="10" points="68.77,202.904 70.436,219.571 78.436,219.571 
	78.436,203.237 "/>
<polygon fill="#020202" stroke="#000000" stroke-miterlimit="10" points="86.873,202.209 88.206,219.209 98.54,218.876 
	98.206,199.876 "/>
<polygon fill="#020202" stroke="#000000" stroke-miterlimit="10" points="105.206,203.046 105.539,218.713 117.206,217.713 
	118.206,202.38 "/>
<polygon fill="#020202" stroke="#000000" stroke-miterlimit="10" points="69.77,228.904 71.436,245.571 79.436,245.571 
	80.436,228.237 "/>
<polygon fill="#020202" stroke="#000000" stroke-miterlimit="10" points="87.873,227.209 88.206,245.209 98.54,244.876 
	98.206,225.876 "/>
<polygon fill="#020202" stroke="#000000" stroke-miterlimit="10" points="105.206,229.046 105.539,244.713 117.206,244.713 
	118.206,228.38 "/>
<polygon fill="#020202" stroke="#000000" stroke-miterlimit="10" points="69.436,255.237 69.102,268.904 79.102,270.904 
	80.102,253.571 "/>
<polygon fill="#020202" stroke="#000000" stroke-miterlimit="10" points="89.539,252.542 88.872,270.542 99.206,270.209 
	98.872,251.208 "/>
<polygon fill="#020202" stroke="#000000" stroke-miterlimit="10" points="105.872,254.379 106.205,270.046 115.872,270.046 
	118.872,253.713 "/>
<polygon fill="#020202" stroke="#000000" stroke-miterlimit="10" points="70.436,278.237 70.102,294.904 79.102,294.904 
	80.102,278.57 "/>
<polygon fill="#020202" stroke="#000000" stroke-miterlimit="10" points="87.539,277.542 88.872,292.542 99.206,294.209 
	98.872,275.209 "/>
<polygon fill="#020202" stroke="#000000" stroke-miterlimit="10" points="105.872,278.379 106.205,294.046 115.872,294.046 
	116.872,277.713 "/>
<polygon fill="#020202" stroke="#000000" stroke-miterlimit="10" points="70.102,324.237 69.768,341.904 77.768,340.904 
	78.768,323.57 "/>
<polygon fill="#020202" stroke="#000000" stroke-miterlimit="10" points="88.205,324.542 87.538,340.542 97.872,340.209 
	97.538,322.209 "/>
<polygon fill="#020202" stroke="#000000" stroke-miterlimit="10" points="104.538,324.379 104.871,340.046 116.538,340.046 
	117.538,323.713 "/>
<polygon fill="#020202" stroke="#000000" stroke-miterlimit="10" points="70.102,300.237 70.768,317.904 77.768,317.904 
	78.768,300.57 "/>
<polygon fill="#020202" stroke="#000000" stroke-miterlimit="10" points="87.205,299.542 87.538,317.542 97.872,317.209 
	97.538,298.209 "/>
<polygon fill="#020202" stroke="#000000" stroke-miterlimit="10" points="104.538,301.379 105.871,317.046 114.538,317.046 
	115.538,300.713 "/>
</svg>
