<?xml version="1.0" encoding="utf-8"?>
<!-- Generator: Adobe Illustrator 16.0.0, SVG Export Plug-In . SVG Version: 6.00 Build 0)  -->
<!DOCTYPE svg PUBLIC "-//W3C//DTD SVG 1.1//EN" "http://www.w3.org/Graphics/SVG/1.1/DTD/svg11.dtd">
<svg version="1.1" id="Layer_2" xmlns="http://www.w3.org/2000/svg" xmlns:xlink="http://www.w3.org/1999/xlink" x="0px" y="0px"
	 width="226px" height="486px" viewBox="0 0 226 486" enable-background="new 0 0 226 486" xml:space="preserve">
<g id="XMLID_1_">
	<g>
		<path fill="#FFFFFF" d="M212.5,346.5c0,0,3.55,24.5-0.62,52.5l-192.54,4.47c-9.96-30.71-7.84-58.97-7.84-58.97h0.12
			c-0.08,0.66-0.12,1.33-0.12,2c0,22.09,45,40,100.5,40S212.5,368.59,212.5,346.5z"/>
		<path fill="#FFFFFF" d="M212.5,346.5l-81.16-0.81l0.12-38.44C177.65,310.86,212.5,327.06,212.5,346.5z"/>
		<path fill="#FFFFFF" d="M131.34,345.69l81.16,0.81c0,22.09-45,40-100.5,40s-100.5-17.91-100.5-40c0-0.67,0.04-1.34,0.12-2
			l94.89,0.95c0.04,1.22,0.09,1.979,0.16,2.22c0,0,11.83,9.83,24.66,0L131.34,345.69z"/>
		<path fill="#FFFFFF" d="M212,399c-0.05,0.04-0.09,0.07-0.14,0.11c0.01-0.04,0.01-0.08,0.02-0.11H212z"/>
		<path fill="#FFFFFF" d="M211.88,399c-0.01,0.03-0.01,0.07-0.02,0.11c-80.2,63.359-178.39,12.97-192.21,5.319
			c-0.1-0.319-0.21-0.64-0.31-0.96L211.88,399z"/>
		<path fill="#FFFFFF" d="M211.86,399.11c-5.891,39.26-26.98,85.35-94.36,80.39c-60.33-4.44-86.56-41.08-97.85-75.07
			C33.47,412.08,131.66,462.47,211.86,399.11z"/>
		<path fill="#FFFFFF" d="M132,146.33l-0.54,160.92c-6.29-0.49-12.8-0.75-19.46-0.75c-1.8,0-3.58,0.02-5.35,0.06
			c0.76-60.31,3.02-165.56,3.02-165.56L132,146.33z"/>
		<path fill="#FFFFFF" d="M131.46,307.25l-0.12,38.44l-24.83-0.24c-0.18-5.41-0.09-19.931,0.14-38.891
			c1.77-0.04,3.55-0.06,5.35-0.06C118.66,306.5,125.17,306.76,131.46,307.25z"/>
		<path fill="#FFFFFF" d="M131.34,345.69l-0.01,1.979c-12.83,9.83-24.66,0-24.66,0c-0.07-0.24-0.12-1-0.16-2.22L131.34,345.69z"/>
		<path fill="#FFFFFF" d="M106.51,345.45l-94.89-0.95c2.53-20.45,43.68-36.87,95.03-37.94
			C106.42,325.52,106.33,340.04,106.51,345.45z"/>
		<path fill="#FFFFFF" d="M19.34,403.47c0.1,0.32,0.21,0.641,0.31,0.96c-1.08-0.59-1.65-0.93-1.65-0.93L19.34,403.47z"/>
	</g>
	<g>
		<path fill="none" stroke="#000000" stroke-width="3" stroke-miterlimit="10" d="M211.88,399c4.17-28,0.62-52.5,0.62-52.5"/>
		<path fill="none" stroke="#000000" stroke-width="3" stroke-miterlimit="10" d="M19.65,404.43
			c11.29,33.99,37.52,70.63,97.85,75.07c67.38,4.96,88.47-41.13,94.36-80.39"/>
		<path fill="none" stroke="#000000" stroke-width="3" stroke-miterlimit="10" d="M11.5,344.5c0,0-2.12,28.26,7.84,58.97"/>
		<path fill="none" stroke="#000000" stroke-width="3" stroke-miterlimit="10" d="M18,403.5c0,0,0.57,0.34,1.65,0.93
			c13.82,7.65,112.01,58.04,192.21-5.319c0.05-0.04,0.09-0.07,0.14-0.11"/>
		<path fill="none" stroke="#000000" stroke-width="3" stroke-miterlimit="10" d="M131.46,307.25
			c46.19,3.61,81.04,19.81,81.04,39.25c0,22.09-45,40-100.5,40s-100.5-17.91-100.5-40c0-0.67,0.04-1.34,0.12-2
			c2.53-20.45,43.68-36.87,95.03-37.94"/>
		<path fill="none" stroke="#000000" stroke-width="3" stroke-miterlimit="10" d="M109.67,141c0,0-2.26,105.25-3.02,165.56
			c-0.23,18.96-0.32,33.48-0.14,38.891c0.04,1.22,0.09,1.979,0.16,2.22c0,0,11.83,9.83,24.66,0l0.01-1.979l0.12-38.44L132,146.33"/>
	</g>
</g>
<path fill="#FFC200" stroke="#000000" stroke-width="3" stroke-miterlimit="10" d="M86.561,89.343l3.506,47.92
	c0,0,26.683,21.737,61.945-1.168l1.169-47.92C153.182,88.175,132.533,106.095,86.561,89.343z"/>
<path fill="#FFFFFF" stroke="#000000" stroke-width="3" stroke-miterlimit="10" d="M121.235,27.839L83.444,90.901
	c0,0,30.778,22.597,72.854,0.39L121.235,27.839z"/>
</svg>
