<?xml version="1.0" encoding="utf-8"?>
<!-- Generator: Adobe Illustrator 21.0.0, SVG Export Plug-In . SVG Version: 6.00 Build 0)  -->
<svg version="1.1" id="Layer_2" xmlns="http://www.w3.org/2000/svg" xmlns:xlink="http://www.w3.org/1999/xlink" x="0px" y="0px"
	 viewBox="0 0 268.799 445.083" enable-background="new 0 0 268.799 445.083" xml:space="preserve">
<path fill="#A1CB5C" stroke="#000000" stroke-width="3" stroke-miterlimit="10" d="M111.296,441.202c0,0,61-2,80,2c0,0-8-101-6-129
	c0,0,73,11,82-123c-4-64-60-40-57-17s-1,104-33,81c0-33,14.365-144.609,10-205c-6-83-89-45-81,4c9,75,4,139,4,139s-37,15-43-48
	c-19-51-76.649-29.785-64,5c20,55,30,84,104,91C127.296,298.202,99.296,440.202,111.296,441.202z"/>
<path fill="none" stroke="#000000" stroke-width="3" stroke-miterlimit="10" d="M142.296,38.202c0,0-29,48-12,143s-4,219-4,222"/>
<path fill="none" stroke="#000000" stroke-width="3" stroke-miterlimit="10" d="M152.296,67.202c0,0-9,33,0,133
	c9.717,108.026,7.379,107.824-14,229"/>
<path fill="none" stroke="#000000" stroke-width="3" stroke-miterlimit="10" d="M18.296,135.202c16,31,9.103,88.367,117,103"/>
<path fill="none" stroke="#000000" stroke-width="3" stroke-miterlimit="10" d="M48.296,154.202c-2.447,11.626,8,50,56,63"/>
<path fill="none" stroke="#000000" stroke-width="3" stroke-miterlimit="10" d="M227.296,176.202c0,0,0,110-39,111"/>
</svg>
