<?xml version="1.0" encoding="utf-8"?>
<!-- Generator: Adobe Illustrator 21.0.0, SVG Export Plug-In . SVG Version: 6.00 Build 0)  -->
<svg version="1.1" id="Layer_1" xmlns="http://www.w3.org/2000/svg" xmlns:xlink="http://www.w3.org/1999/xlink" x="0px" y="0px"
	 viewBox="0 0 218.278 79.974" enable-background="new 0 0 218.278 79.974" xml:space="preserve">
<path fill="#FFFFFF" stroke="#2C2C2C" stroke-width="1.5" stroke-miterlimit="10" d="M2.458,73.882c0,0-8.75-9,10.75-12.25
	c0,0-2-15.5,25.5-17.5c0,0,0.75-38.25,59.5-32.75c0,0,4.75-5,15-5.5c0,0,13.25-12.75,20,1c0,0,13.25-2,15.5,8
	c0,0,18.75-1,21.5,18.75c0,0,12.25,0,16.75,4.5c0,0,8-6,16.75-2.75s3.25,10,3.25,10s13.75,5.25,10.25,16.25s-16.25,13.25-18.5,10.25
	c0,0-11.5,11-26.75-4c0,0-18.5,10-28,2.5c0,0-19,12-39.25-1.5c0,0-22,13-42.25,8c0,0-24.25,7.25-44.75-2.5
	C17.708,74.382,11.458,79.632,2.458,73.882z"/>
<path fill="none" stroke="#2C2C2C" stroke-width="1.5" stroke-miterlimit="10" d="M69.632,51.306c0,0,1.983-9.483,14.725-5.543
	c0,0,2.451-6.236,13.951-4.031"/>
<path fill="none" stroke="#2C2C2C" stroke-width="1.5" stroke-miterlimit="10" d="M120.169,30.388c0,0,9.362-5.303,10.807,2.234
	c0,0,7.801-3.22,10.85,5.307"/>
</svg>
