<?xml version="1.0" encoding="utf-8"?>
<!-- Generator: Adobe Illustrator 21.0.0, SVG Export Plug-In . SVG Version: 6.00 Build 0)  -->
<svg version="1.1" id="Layer_1" xmlns="http://www.w3.org/2000/svg" xmlns:xlink="http://www.w3.org/1999/xlink" x="0px" y="0px"
	 viewBox="0 0 143.653 64.085" enable-background="new 0 0 143.653 64.085" xml:space="preserve">
<path fill="#FFFFFF" stroke="#2C2C2C" stroke-width="1.5" stroke-miterlimit="10" d="M40.679,12.795
	C17.662,10.329,17.25,25.537,17.25,25.537C-4.944,28.003,2.043,44.854,2.043,44.854c-6.166,23.428,24.25,15.413,24.25,15.413
	c20.551,9.042,42.746-6.576,42.746-6.576c14.797,10.274,39.869,1.233,39.869,1.233c9.454,5.343,28.565-5.344,28.565-5.344
	c15.824-16.235-9.659-27.333-9.659-27.333c5.343-13.564-7.398-19.318-7.398-19.318C104.797-3.645,90,8.685,90,8.685
	S56.708-7.755,40.679,12.795z"/>
<path fill="none" stroke="#2C2C2C" stroke-width="1.5" stroke-miterlimit="10" d="M23.293,40.519c0,0,2.11-10.093,15.672-5.899
	c0,0,2.608-6.637,14.848-4.29"/>
<path fill="none" stroke="#2C2C2C" stroke-width="1.5" stroke-miterlimit="10" d="M80.082,23.775c0,0,11.041-6.253,12.744,2.635
	c0,0,9.199-3.797,12.794,6.258"/>
</svg>
