<?xml version="1.0" encoding="utf-8"?>
<!-- Generator: Adobe Illustrator 21.0.0, SVG Export Plug-In . SVG Version: 6.00 Build 0)  -->
<svg version="1.1" xmlns="http://www.w3.org/2000/svg" xmlns:xlink="http://www.w3.org/1999/xlink" x="0px" y="0px"
	 viewBox="0 0 557.72 146.873" enable-background="new 0 0 557.72 146.873" xml:space="preserve">
<g id="Layer_2">
	<g>
		<polyline fill="#B18545" points="386.906,147.538 397.5,134.009 406.341,119.022 418.275,106.615 429.975,94.008 441.293,81.075 
			451.839,67.507 462.137,53.716 474.293,41.47 476.745,41.928 490.381,55.213 499.985,71.622 512.599,85.776 524.34,100.591 
			534.026,116.941 546.442,131.253 557.076,146.883 		"/>
		<polyline fill="none" stroke="#2C2C2C" stroke-width="1.5768" stroke-linejoin="bevel" stroke-miterlimit="10" points="
			386.906,147.538 397.5,134.009 406.341,119.022 418.275,106.615 429.975,94.008 441.293,81.075 451.839,67.507 462.137,53.716 
			474.293,41.47 476.745,41.928 490.381,55.213 499.985,71.622 512.599,85.776 524.34,100.591 534.026,116.941 546.442,131.253 
			557.076,146.883 		"/>
	</g>
	<g>
		<polyline fill="#B18545" points="-0.169,145.82 10.515,132.367 23.51,120.836 33.152,106.522 45.011,94.047 55.408,80.347 
			66.115,66.913 77.824,54.297 89.402,41.569 93.415,40.499 103.466,56.644 115.734,71.052 126.299,86.742 138.608,101.131 
			149.402,116.651 161.445,131.242 171.361,147.41 		"/>
		<polyline fill="none" stroke="#2C2C2C" stroke-width="1.5768" stroke-linejoin="bevel" stroke-miterlimit="10" points="
			-0.169,145.82 10.515,132.367 23.51,120.836 33.152,106.522 45.011,94.047 55.408,80.347 66.115,66.913 77.824,54.297 
			89.402,41.569 93.415,40.499 103.466,56.644 115.734,71.052 126.299,86.742 138.608,101.131 149.402,116.651 161.445,131.242 
			171.361,147.41 		"/>
	</g>
	<g>
		<polyline fill="#B18545" points="286.768,146.693 297.382,131.678 310.117,118.427 322.627,104.988 332.042,88.971 346.049,76.78 
			358.089,62.945 368.646,47.884 381.191,34.46 393.197,20.583 398.449,18.624 406.665,34.66 419.134,47.355 427.676,63 
			440.728,75.266 450.919,89.681 460.101,104.853 471.517,118.35 480.435,133.714 492.263,146.89 		"/>
		<polyline fill="none" stroke="#2C2C2C" stroke-width="1.8932" stroke-linejoin="bevel" stroke-miterlimit="10" points="
			286.768,146.693 297.382,131.678 310.117,118.427 322.627,104.988 332.042,88.971 346.049,76.78 358.089,62.945 368.646,47.884 
			381.191,34.46 393.197,20.583 398.449,18.624 406.665,34.66 419.134,47.355 427.676,63 440.728,75.266 450.919,89.681 
			460.101,104.853 471.517,118.35 480.435,133.714 492.263,146.89 		"/>
	</g>
	<g>
		<polyline fill="#B18545" points="70.594,145.438 82.542,133.068 93.46,119.841 103.374,105.778 114.365,92.612 127.488,81.219 
			136.965,66.793 151.915,52.303 164.574,35.905 177.674,19.884 179.682,19.471 183.239,19.086 191.598,34.961 202.527,48.811 
			214.886,61.592 223.166,77.435 236.841,89.24 247.232,103.507 257.861,117.593 265.643,133.808 276.207,147.918 		"/>
		<polyline fill="none" stroke="#2C2C2C" stroke-width="1.8932" stroke-linejoin="bevel" stroke-miterlimit="10" points="
			70.594,145.438 82.542,133.068 93.46,119.841 103.374,105.778 114.365,92.612 127.488,81.219 136.965,66.793 151.915,52.303 
			164.574,35.905 177.674,19.884 179.682,19.471 183.239,19.086 191.598,34.961 202.527,48.811 214.886,61.592 223.166,77.435 
			236.841,89.24 247.232,103.507 257.861,117.593 265.643,133.808 276.207,147.918 		"/>
	</g>
	<g>
		<polyline fill="#B18545" points="175.729,148.519 183.95,131.853 196.695,118.693 207.593,104.101 219.75,90.483 229.803,75.234 
			241.478,61.246 253.475,47.499 261.632,30.787 275.964,18.841 284.269,2.22 290.731,3.771 302.54,16.824 310.12,32.889 
			321.599,46.212 331.151,60.885 341.348,75.114 351.369,89.472 362.155,103.293 371.75,117.95 382.614,131.713 391.805,146.636 		
			"/>
		<polyline fill="none" stroke="#2C2C2C" stroke-width="2" stroke-linejoin="bevel" stroke-miterlimit="10" points="
			175.729,148.519 183.95,131.853 196.695,118.693 207.593,104.101 219.75,90.483 229.803,75.234 241.478,61.246 253.475,47.499 
			261.632,30.787 275.964,18.841 284.269,2.22 290.731,3.771 302.54,16.824 310.12,32.889 321.599,46.212 331.151,60.885 
			341.348,75.114 351.369,89.472 362.155,103.293 371.75,117.95 382.614,131.713 391.805,146.636 		"/>
	</g>
</g>
<g id="Layer_3">
</g>
</svg>
