<?xml version="1.0" encoding="utf-8"?>
<!-- Generator: Adobe Illustrator 21.0.0, SVG Export Plug-In . SVG Version: 6.00 Build 0)  -->
<svg version="1.1" id="Layer_2" xmlns="http://www.w3.org/2000/svg" xmlns:xlink="http://www.w3.org/1999/xlink" x="0px" y="0px"
	 viewBox="0 0 557.72 146.873" enable-background="new 0 0 557.72 146.873" xml:space="preserve">
<g id="XMLID_1_">
	<g>
		<polygon fill="#FFFFFF" points="261.631,30.79 269.961,16.84 284.271,2.22 290.731,3.77 302.541,16.82 310.121,32.89 
			310.311,33.11 310.271,33.15 292.691,33.15 260.531,33.15 260.491,33.13 		"/>
		<polygon fill="#4D4C4D" points="546.441,131.25 557.081,146.88 386.911,147.54 387.501,146.79 492.261,146.89 480.431,133.71 
			471.521,118.35 460.101,104.85 450.921,89.68 443.151,78.69 451.841,67.51 458.441,58.67 458.601,58.79 477.641,58.79 
			492.291,58.79 492.431,58.71 499.981,71.62 512.601,85.78 524.341,100.59 534.031,116.94 		"/>
		<polygon fill="#FFFFFF" points="492.431,58.71 492.291,58.79 484.931,57.19 477.641,58.79 467.721,55.59 458.601,58.79 
			458.441,58.67 462.141,53.72 474.291,41.47 476.741,41.93 490.381,55.21 		"/>
		<polygon fill="#4D4C4D" points="492.291,58.79 477.641,58.79 484.931,57.19 		"/>
		<polygon fill="#4D4C4D" points="480.431,133.71 492.261,146.89 387.501,146.79 387.591,146.68 391.801,146.64 389.961,143.65 
			397.501,134.01 406.341,119.02 418.271,106.61 429.971,94.01 441.291,81.07 443.151,78.69 450.921,89.68 460.101,104.85 
			471.521,118.35 		"/>
		<polygon fill="#4D4C4D" points="477.641,58.79 458.601,58.79 467.721,55.59 		"/>
		<polygon fill="#4D4C4D" points="443.151,78.69 441.291,81.07 429.971,94.01 418.271,106.61 406.341,119.02 397.501,134.01 
			389.961,143.65 382.611,131.71 371.751,117.95 362.151,103.29 351.371,89.47 343.851,78.69 346.051,76.78 358.091,62.95 
			368.651,47.88 371.841,44.46 372.151,44.75 385.781,46.12 400.611,44.75 410.241,46.12 416.551,44.75 416.561,44.74 
			419.131,47.35 427.681,63 440.731,75.27 		"/>
		<polygon fill="#FFFFFF" points="406.661,34.66 416.561,44.74 416.551,44.75 400.611,44.75 372.151,44.75 371.841,44.46 
			381.191,34.46 393.201,20.58 398.451,18.62 		"/>
		<polygon fill="#4D4C4D" points="416.551,44.75 410.241,46.12 400.611,44.75 		"/>
		<polygon fill="#4D4C4D" points="400.611,44.75 385.781,46.12 372.151,44.75 		"/>
		<polygon fill="#4D4C4D" points="389.961,143.65 391.801,146.64 387.591,146.68 		"/>
		<polygon fill="#4D4C4D" points="382.611,131.71 389.961,143.65 387.591,146.68 376.061,146.78 286.771,146.69 297.381,131.68 
			310.121,118.43 322.631,104.99 332.041,88.97 343.851,78.69 351.371,89.47 362.151,103.29 371.751,117.95 		"/>
		<polygon fill="#4D4C4D" points="387.591,146.68 387.501,146.79 376.061,146.78 		"/>
		<polygon fill="#4D4C4D" points="376.061,146.78 276.061,147.65 268.431,131.72 257.811,117.63 247.421,103.37 233.741,91.56 
			227.241,79.11 229.801,75.23 241.481,61.25 253.471,47.5 260.491,33.13 260.531,33.15 275.411,34.52 292.691,33.15 303.921,34.52 
			310.271,33.15 310.311,33.11 321.601,46.21 331.151,60.88 341.351,75.11 343.851,78.69 332.041,88.97 322.631,104.99 
			310.121,118.43 297.381,131.68 286.771,146.69 		"/>
		<polygon fill="#4D4C4D" points="310.271,33.15 303.921,34.52 292.691,33.15 		"/>
		<polygon fill="#4D4C4D" points="292.691,33.15 275.411,34.52 260.531,33.15 		"/>
		<polygon fill="#4D4C4D" points="276.061,147.65 276.201,147.93 262.541,147.76 		"/>
		<polygon fill="#4D4C4D" points="268.431,131.72 276.061,147.65 262.541,147.76 176.621,146.72 183.951,131.85 196.691,118.69 
			207.591,104.1 219.751,90.48 227.241,79.11 233.741,91.56 247.421,103.37 257.811,117.63 		"/>
		<polygon fill="#4D4C4D" points="262.541,147.76 175.731,148.52 176.621,146.72 		"/>
		<polygon fill="#4D4C4D" points="225.471,75.71 227.241,79.11 219.751,90.48 207.591,104.1 196.691,118.69 183.951,131.85 
			176.621,146.72 170.901,146.65 161.441,131.24 149.401,116.65 138.611,101.13 126.301,86.74 123.911,83.2 131.261,76.68 
			141.501,61.34 154.931,48.68 157.641,45.14 158.031,45.44 182.111,45.44 200.311,45.44 202.191,49.06 213.111,62.92 		"/>
		<polygon fill="#4D4C4D" points="200.451,45.44 200.311,45.44 200.301,45.41 		"/>
		<polygon fill="#4D4C4D" points="200.301,45.41 200.311,45.44 182.111,45.44 191.251,43.84 		"/>
		<polygon fill="#FFFFFF" points="200.301,45.41 191.251,43.84 182.111,45.44 169.691,42.24 158.031,45.44 157.641,45.14 
			166.081,34.09 177.681,19.88 181.471,20.59 193.951,33.19 		"/>
		<polygon fill="#4D4C4D" points="182.111,45.44 158.031,45.44 169.691,42.24 		"/>
		<polygon fill="#4D4C4D" points="170.901,146.65 171.361,147.41 -0.169,145.82 10.511,132.37 23.511,120.84 33.151,106.52 
			45.011,94.05 55.411,80.35 66.111,66.91 71.051,61.59 71.411,61.92 82.521,63.28 94.601,61.92 102.461,63.28 107.591,61.92 
			107.811,61.74 115.731,71.05 123.911,83.2 117.391,88.98 105.641,103.06 94.971,118.03 83.301,132.16 70.591,145.44 		"/>
		<polygon fill="#4D4C4D" points="170.901,146.65 70.591,145.44 83.301,132.16 94.971,118.03 105.641,103.06 117.391,88.98 
			123.911,83.2 126.301,86.74 138.611,101.13 149.401,116.65 161.441,131.24 		"/>
		<polygon fill="#FFFFFF" points="107.811,61.74 107.591,61.92 94.601,61.92 71.411,61.92 71.051,61.59 77.821,54.3 89.401,41.57 
			93.411,40.5 103.471,56.64 		"/>
		<polygon fill="#4D4C4D" points="107.591,61.92 102.461,63.28 94.601,61.92 		"/>
		<polygon fill="#4D4C4D" points="94.601,61.92 82.521,63.28 71.411,61.92 		"/>
	</g>
	<g>
		<polyline fill="none" stroke="#2C2C2C" stroke-width="1.5768" stroke-linejoin="bevel" stroke-miterlimit="10" points="
			443.151,78.69 451.841,67.51 458.441,58.67 462.141,53.72 474.291,41.47 476.741,41.93 490.381,55.21 492.431,58.71 
			499.981,71.62 512.601,85.78 524.341,100.59 534.031,116.94 546.441,131.25 557.081,146.88 		"/>
		
			<line fill="none" stroke="#2C2C2C" stroke-width="1.5768" stroke-linejoin="bevel" stroke-miterlimit="10" x1="386.911" y1="147.54" x2="387.501" y2="146.79"/>
		
			<line fill="none" stroke="#2C2C2C" stroke-width="1.5768" stroke-linejoin="bevel" stroke-miterlimit="10" x1="170.901" y1="146.65" x2="171.361" y2="147.41"/>
		<polyline fill="none" stroke="#2C2C2C" stroke-width="1.5768" stroke-linejoin="bevel" stroke-miterlimit="10" points="
			-0.169,145.82 10.511,132.37 23.511,120.84 33.151,106.52 45.011,94.05 55.411,80.35 66.111,66.91 71.051,61.59 77.821,54.3 
			89.401,41.57 93.411,40.5 103.471,56.64 107.811,61.74 115.731,71.05 123.911,83.2 		"/>
		<polyline fill="none" stroke="#2C2C2C" stroke-width="1.8932" stroke-linejoin="bevel" stroke-miterlimit="10" points="
			343.851,78.69 346.051,76.78 358.091,62.95 368.651,47.88 371.841,44.46 381.191,34.46 393.201,20.58 398.451,18.62 
			406.661,34.66 416.561,44.74 419.131,47.35 427.681,63 440.731,75.27 443.151,78.69 450.921,89.68 460.101,104.85 471.521,118.35 
			480.431,133.71 492.261,146.89 		"/>
		
			<line fill="none" stroke="#2C2C2C" stroke-width="1.8932" stroke-linejoin="bevel" stroke-miterlimit="10" x1="276.061" y1="147.65" x2="276.201" y2="147.93"/>
		<polyline fill="none" stroke="#2C2C2C" stroke-width="1.8932" stroke-linejoin="bevel" stroke-miterlimit="10" points="
			200.311,45.44 202.191,49.06 213.111,62.92 225.471,75.71 227.241,79.11 		"/>
		<polyline fill="none" stroke="#2C2C2C" stroke-width="1.8932" stroke-linejoin="bevel" stroke-miterlimit="10" points="
			70.591,145.44 83.301,132.16 94.971,118.03 105.641,103.06 117.391,88.98 123.911,83.2 131.261,76.68 141.501,61.34 
			154.931,48.68 157.641,45.14 166.081,34.09 177.681,19.88 181.471,20.59 193.951,33.19 200.301,45.41 		"/>
		<polyline fill="none" stroke="#2C2C2C" stroke-width="2" stroke-linejoin="bevel" stroke-miterlimit="10" points="176.621,146.72 
			183.951,131.85 196.691,118.69 207.591,104.1 219.751,90.48 227.241,79.11 229.801,75.23 241.481,61.25 253.471,47.5 
			260.491,33.13 261.631,30.79 269.961,16.84 284.271,2.22 290.731,3.77 302.541,16.82 310.121,32.89 310.311,33.11 321.601,46.21 
			331.151,60.88 341.351,75.11 343.851,78.69 351.371,89.47 362.151,103.29 371.751,117.95 382.611,131.71 389.961,143.65 
			391.801,146.64 387.591,146.68 		"/>
		<polyline fill="none" stroke="#2C2C2C" stroke-width="2" stroke-linejoin="bevel" stroke-miterlimit="10" points="71.411,61.92 
			82.521,63.28 94.601,61.92 102.461,63.28 107.591,61.92 		"/>
		<polyline fill="none" stroke="#2C2C2C" stroke-width="2" stroke-linejoin="bevel" stroke-miterlimit="10" points="260.531,33.15 
			275.411,34.52 292.691,33.15 303.921,34.52 310.271,33.15 		"/>
		<polyline fill="none" stroke="#2C2C2C" stroke-width="2" stroke-linejoin="bevel" stroke-miterlimit="10" points="372.151,44.75 
			385.781,46.12 400.611,44.75 410.241,46.12 416.551,44.75 		"/>
		<polyline fill="none" stroke="#2C2C2C" stroke-width="2" stroke-linejoin="bevel" stroke-miterlimit="10" points="158.031,45.44 
			169.691,42.24 182.111,45.44 191.251,43.84 200.301,45.41 200.451,45.44 		"/>
		<polyline fill="none" stroke="#2C2C2C" stroke-width="2" stroke-linejoin="bevel" stroke-miterlimit="10" points="458.601,58.79 
			467.721,55.59 477.641,58.79 484.931,57.19 492.291,58.79 		"/>
	</g>
</g>
</svg>
