<?xml version="1.0" encoding="utf-8"?>
<!-- Generator: Adobe Illustrator 20.0.0, SVG Export Plug-In . SVG Version: 6.00 Build 0)  -->
<svg version="1.1" id="Layer_1" xmlns="http://www.w3.org/2000/svg" xmlns:xlink="http://www.w3.org/1999/xlink" x="0px" y="0px"
	 viewBox="0 0 213 225.6" style="enable-background:new 0 0 213 225.6;" xml:space="preserve">
<style type="text/css">
	.st0{fill:url(#SVGID_1_);}
	.st1{fill:url(#SVGID_2_);}
	.st2{fill:url(#SVGID_3_);}
	.st3{fill:url(#SVGID_4_);}
	.st4{fill:url(#SVGID_5_);}
	.st5{fill:none;stroke:#000000;stroke-width:2;stroke-linecap:round;stroke-linejoin:round;}
	.st6{fill:#A8A9AC;}
</style>
<g id="XMLID_1_">
	<g>
		<linearGradient id="SVGID_1_" gradientUnits="userSpaceOnUse" x1="120.1429" y1="117.7303" x2="188.1429" y2="121.7303">
			<stop  offset="0" style="stop-color:#FFFFFF"/>
			<stop  offset="1" style="stop-color:#D4D4D4"/>
		</linearGradient>
		<path class="st0" d="M183.7,13.3C159.3,107.7,211,197.2,211,197.2c-136,55-209,7.1-209,7.1c58.4-71,35.8-181.8,33.7-191.1
			c2.3,5.5,34.5,9.9,74,9.9C148.9,23,181,18.7,183.7,13.3z"/>
		<linearGradient id="SVGID_2_" gradientUnits="userSpaceOnUse" x1="126.5075" y1="9.5319" x2="194.5075" y2="13.5319">
			<stop  offset="0" style="stop-color:#FFFFFF"/>
			<stop  offset="1" style="stop-color:#D4D4D4"/>
		</linearGradient>
		<path class="st1" d="M183.7,13.3c0.1-0.2,0.1-0.5,0.2-0.7C183.9,12.8,183.8,13,183.7,13.3z"/>
		<linearGradient id="SVGID_3_" gradientUnits="userSpaceOnUse" x1="126.4803" y1="9.9952" x2="194.4803" y2="13.9952">
			<stop  offset="0" style="stop-color:#FFFFFF"/>
			<stop  offset="1" style="stop-color:#443E3E"/>
		</linearGradient>
		<path class="st2" d="M183.9,12.5H35.6C35.6,6.7,68.8,2,109.7,2S183.9,6.7,183.9,12.5z"/>
		<linearGradient id="SVGID_4_" gradientUnits="userSpaceOnUse" x1="126.0679" y1="17.0064" x2="194.0679" y2="21.0064">
			<stop  offset="0" style="stop-color:#FFFFFF"/>
			<stop  offset="1" style="stop-color:#443E3E"/>
		</linearGradient>
		<path class="st3" d="M35.6,12.5h148.3c-0.1,0.2-0.1,0.5-0.2,0.7c-2.7,5.5-34.8,9.8-73.9,9.8c-39.5,0-71.7-4.4-74-9.9
			C35.7,12.7,35.6,12.5,35.6,12.5z"/>
		<linearGradient id="SVGID_5_" gradientUnits="userSpaceOnUse" x1="126.0001" y1="18.1585" x2="194.0001" y2="22.1585">
			<stop  offset="0" style="stop-color:#FFFFFF"/>
			<stop  offset="1" style="stop-color:#D4D4D4"/>
		</linearGradient>
		<path class="st4" d="M35.7,13.2c-0.1-0.2-0.1-0.4-0.1-0.6C35.6,12.5,35.7,12.7,35.7,13.2z"/>
	</g>
	<g>
		<path class="st5" d="M183.7,13.3C159.3,107.7,211,197.2,211,197.2c-136,55-209,7.1-209,7.1c58.4-71,35.8-181.8,33.7-191.1"/>
		<path class="st5" d="M183.9,12.5c0,0.2-0.1,0.5-0.2,0.7c-2.7,5.5-34.8,9.8-73.9,9.8c-39.5,0-71.7-4.4-74-9.9
			c-0.1-0.2-0.1-0.4-0.1-0.6C35.6,6.7,68.8,2,109.7,2S183.9,6.7,183.9,12.5z"/>
	</g>
</g>
<g id="XMLID_2_">
	<g>
		<path class="st6" d="M109.7,2c40.9,0,74.1,4.7,74.1,10.5c0,5.8-33.2,10.5-74.1,10.5s-74.1-4.7-74.1-10.5C35.6,6.7,68.8,2,109.7,2z
			"/>
	</g>
	<g>
		<path class="st5" d="M183.9,12.5c0,5.8-33.2,10.5-74.1,10.5s-74.1-4.7-74.1-10.5C35.6,6.7,68.8,2,109.7,2S183.9,6.7,183.9,12.5z"
			/>
	</g>
</g>
</svg>
