<?xml version="1.0" encoding="iso-8859-1"?>
<!-- Generator: Adobe Illustrator 16.0.0, SVG Export Plug-In . SVG Version: 6.00 Build 0)  -->
<!DOCTYPE svg PUBLIC "-//W3C//DTD SVG 1.1//EN" "http://www.w3.org/Graphics/SVG/1.1/DTD/svg11.dtd">
<svg version="1.1" id="Capa_1" xmlns="http://www.w3.org/2000/svg" xmlns:xlink="http://www.w3.org/1999/xlink" x="0px" y="0px"
	 width="536.803px" height="536.803px" viewBox="0 0 536.803 536.803" style="enable-background:new 0 0 536.803 536.803;"
	 xml:space="preserve">
<g>
	<path d="M413.397,223.327c2.375,0,4.308-1.93,4.308-4.305c0-2.38-1.933-4.31-4.308-4.31h-6.58v-5.901h8.139
		c1.773,0,3.286-1.297,3.552-3.05c0.267-1.755-0.789-3.442-2.482-3.967l-108.197-33.673l4.098-58.913h24.493v6.62h-5.624
		c-2.376,0-4.308,1.93-4.308,4.305c0,2.376,1.932,4.311,4.308,4.311h5.624v3.948h-5.624c-2.376,0-4.308,1.93-4.308,4.305
		s1.932,4.305,4.308,4.305h5.624v11.848c0,1.587,1.283,2.873,2.87,2.873h14.36c1.587,0,2.875-1.286,2.875-2.873v-11.848h6.58
		c2.376,0,4.309-1.93,4.309-4.305s-1.933-4.305-4.309-4.305h-6.58v-3.948h6.58c2.376,0,4.309-1.935,4.309-4.311
		c0-2.375-1.933-4.305-4.309-4.305h-6.58v-6.62h13.161c1.573,0,2.964-1.022,3.431-2.522c0.462-1.5-0.099-3.132-1.396-4.025
		l-57.434-39.537c-0.069-0.047-0.14-0.047-0.205-0.091c-0.037-0.037-0.047-0.091-0.079-0.124c-0.075-0.086-0.191-0.119-0.275-0.196
		L269.121,1.186c-0.548-0.754-1.391-1.199-2.354-1.186c-0.938,0.009-1.804,0.474-2.333,1.239l-42.671,61.759
		c-0.068,0.063-0.159,0.091-0.217,0.159c-0.019,0.019-0.023,0.047-0.042,0.065l-53.76,39.504c-1.253,0.917-1.769,2.539-1.286,4.009
		c0.488,1.477,1.86,2.471,3.412,2.471h14.104v7.341h-5.624c-2.376,0-4.308,1.93-4.308,4.305s1.932,4.306,4.308,4.306h5.624v3.948
		h-5.624c-2.376,0-4.308,1.935-4.308,4.31s1.932,4.308,4.308,4.308h5.624v11.845c0,1.586,1.286,2.873,2.873,2.873h14.36
		c1.587,0,2.873-1.286,2.873-2.873v-11.845h6.581c2.375,0,4.305-1.932,4.305-4.308s-1.93-4.31-4.305-4.31h-6.585v-3.948h6.581
		c2.375,0,4.305-1.93,4.305-4.306s-1.93-4.305-4.305-4.305h-6.581v-7.341h19.709l4.282,58.285l-107.31,34.31
		c-1.687,0.535-2.728,2.224-2.458,3.972c0.273,1.75,1.778,3.036,3.547,3.036h11.948v5.901h-5.624c-2.375,0-4.308,1.93-4.308,4.31
		c0,2.375,1.932,4.305,4.308,4.305h5.624v3.949h-5.624c-2.375,0-4.308,1.93-4.308,4.305s1.932,4.312,4.308,4.312h5.624v11.845
		c0,1.586,1.286,2.872,2.872,2.872h14.356c1.586,0,2.872-1.286,2.872-2.872v-11.845h6.581c2.375,0,4.305-1.937,4.305-4.312
		s-1.935-4.305-4.305-4.305h-6.581v-3.949h6.581c2.375,0,4.305-1.93,4.305-4.305c0-2.38-1.935-4.31-4.305-4.31h-6.581v-5.901h77.196
		l6.949,94.601l-32.101,137.722l-36.489,83.704c-0.201,0.457-0.273,0.951-0.273,1.433h-10.074v10.533h53.846V526.27h-12.846
		l56.351-80.414h19.226l55.667,80.414h-12.382v10.533h53.849V526.27h-9.833c0-0.485-0.075-0.976-0.275-1.433l-36.465-83.653
		L298.41,303.473l6.585-94.653h81.711v5.901h-5.623c-2.376,0-4.312,1.93-4.312,4.31c0,2.375,1.937,4.305,4.312,4.305h5.623v3.949
		h-5.623c-2.376,0-4.312,1.93-4.312,4.305s1.937,4.312,4.312,4.312h5.623v11.847c0,1.584,1.288,2.873,2.875,2.873h14.356
		c1.591,0,2.87-1.288,2.87-2.873v-11.847h6.58c2.376,0,4.309-1.937,4.309-4.312s-1.933-4.305-4.309-4.305h-6.58v-3.949h6.59V223.327
		z M363.104,131.269c0.794,0,1.438,0.64,1.438,1.433s-0.644,1.435-1.438,1.435h-32.31c-0.794,0-1.438-0.646-1.438-1.435
		c0-0.793,0.648-1.433,1.438-1.433H363.104z M363.104,118.698c0.794,0,1.438,0.646,1.438,1.435c0,0.793-0.644,1.438-1.438,1.438
		h-32.31c-0.794,0-1.438-0.644-1.438-1.438c0-0.793,0.648-1.435,1.438-1.435H363.104z M314.515,72.004l43.624,30.025h-45.715
		L314.515,72.004z M210.654,131.986c0.793,0,1.433,0.639,1.433,1.433s-0.645,1.435-1.433,1.435h-32.312
		c-0.791,0-1.433-0.642-1.433-1.435s0.646-1.433,1.433-1.433H210.654z M210.654,119.422c0.793,0,1.433,0.644,1.433,1.433
		c0,0.793-0.645,1.438-1.433,1.438h-32.312c-0.791,0-1.433-0.644-1.433-1.438s0.646-1.433,1.433-1.433H210.654z M180.818,102.03
		l40.265-29.587l2.175,29.587H180.818z M266.851,7.844l39.106,53.947l-76.515,0.201L266.851,7.844z M160.483,230.153
		c0.789,0,1.435,0.644,1.435,1.433c0,0.794-0.646,1.44-1.435,1.44h-32.31c-0.789,0-1.436-0.646-1.436-1.44
		c0-0.789,0.646-1.433,1.436-1.433H160.483z M160.483,217.589c0.789,0,1.435,0.644,1.435,1.438c0,0.793-0.646,1.433-1.435,1.433
		h-32.31c-0.789,0-1.436-0.644-1.436-1.433c0-0.794,0.646-1.438,1.436-1.438H160.483z M144.86,201.63l83.739-26.773l1.97,26.773
		H144.86z M239.156,330.261l22.047,10.865l-27.812,13.856L239.156,330.261z M256.996,214.716h-5.624
		c-2.376,0-4.306,1.93-4.306,4.311c0,2.375,1.93,4.305,4.306,4.305h5.624v3.948h-5.624c-2.376,0-4.306,1.93-4.306,4.305
		c0,2.376,1.93,4.312,4.306,4.312h5.624v11.845c0,1.587,1.286,2.873,2.873,2.873h14.363c1.584,0,2.872-1.286,2.872-2.873v-11.845
		h6.581c2.375,0,4.312-1.937,4.312-4.312c0-2.375-1.938-4.305-4.312-4.305h-6.581v-3.948h6.581c2.375,0,4.312-1.93,4.312-4.305
		c0-2.38-1.938-4.311-4.312-4.311h-6.581v-5.901h20.699l-6.353,91.298h-46.444l-6.704-91.298h18.706v5.901H256.996z
		 M283.685,217.589c0.793,0,1.438,0.644,1.438,1.438c0,0.793-0.645,1.433-1.438,1.433h-32.312c-0.794,0-1.433-0.644-1.433-1.433
		c0-0.794,0.644-1.438,1.433-1.438H283.685z M283.685,230.153c0.793,0,1.438,0.644,1.438,1.433c0,0.794-0.645,1.44-1.438,1.44
		h-32.312c-0.794,0-1.433-0.646-1.433-1.44c0-0.789,0.644-1.433,1.433-1.433H283.685z M236.4,359.902l31.279-15.583l31.565,15.564
		l-31.848,13.241L236.4,359.902z M306.259,395.942l-40.512,18.257l-38.49-18.164l40.116-16.68L306.259,395.942z M267.669,337.912
		l-18.824-9.274h37.453L267.669,337.912z M240.878,322.892l3.636-15.602h47.343l3.155,15.602H240.878z M231.299,363.977
		l28.684,12.237l-34.924,14.519L231.299,363.977z M222.831,400.296l36.04,17.007l-44.704,20.147L222.831,400.296z M193.851,522.681
		h-15.628l33.489-76.825h35.981L193.851,522.681z M225.43,438.678l40.266-18.155l38.454,18.155H225.43z M353.929,522.681h-16.33
		l-53.182-76.825h36.03L353.929,522.681z M318.408,438.678h-0.798l-45.033-21.249l38.065-17.166L318.408,438.678z M308.728,390.748
		l-33.943-14.473l28.609-11.896L308.728,390.748z M301.411,354.544l-27.27-13.445l22.304-11.104L301.411,354.544z M298.297,201.63
		h-60.532l-6.786-92.422h25.419v7.292h-5.624c-2.375,0-4.306,1.932-4.306,4.312c0,2.375,1.93,4.305,4.306,4.305h5.624v3.946h-5.624
		c-2.375,0-4.306,1.932-4.306,4.308s1.93,4.31,4.306,4.31h5.624v11.848c0,1.586,1.286,2.873,2.873,2.873h14.363
		c1.585,0,2.872-1.286,2.872-2.873v-11.848h6.581c2.376,0,4.312-1.935,4.312-4.31s-1.937-4.308-4.312-4.308h-6.581v-3.946h6.581
		c2.376,0,4.312-1.93,4.312-4.305c0-2.38-1.937-4.312-4.312-4.312h-6.581v-7.292h28.223L298.297,201.63z M283.087,119.373
		c0.794,0,1.438,0.646,1.438,1.44s-0.644,1.433-1.438,1.433h-32.312c-0.793,0-1.433-0.645-1.433-1.433
		c0-0.793,0.644-1.44,1.433-1.44H283.087z M283.087,131.937c0.794,0,1.438,0.646,1.438,1.435c0,0.793-0.644,1.438-1.438,1.438
		h-32.312c-0.793,0-1.433-0.644-1.433-1.438c0-0.789,0.644-1.435,1.433-1.435H283.087z M230.455,102.03l-2.413-32.856l79.487-0.21
		l-2.301,33.066H230.455z M305.499,201.63l1.815-26.15l84.031,26.15H305.499z M413.397,230.153c0.793,0,1.442,0.644,1.442,1.433
		c0,0.794-0.649,1.44-1.442,1.44h-32.311c-0.793,0-1.438-0.646-1.438-1.44c0-0.789,0.645-1.433,1.438-1.433H413.397z
		 M381.086,220.459c-0.793,0-1.438-0.644-1.438-1.433c0-0.794,0.645-1.438,1.438-1.438h32.311c0.793,0,1.442,0.644,1.442,1.438
		c0,0.793-0.649,1.433-1.442,1.433H381.086z"/>
</g>
<g>
</g>
<g>
</g>
<g>
</g>
<g>
</g>
<g>
</g>
<g>
</g>
<g>
</g>
<g>
</g>
<g>
</g>
<g>
</g>
<g>
</g>
<g>
</g>
<g>
</g>
<g>
</g>
<g>
</g>
</svg>
