<?xml version="1.0" encoding="utf-8"?>
<!-- Generator: Adobe Illustrator 21.0.0, SVG Export Plug-In . SVG Version: 6.00 Build 0)  -->
<svg version="1.1" id="Layer_2" xmlns="http://www.w3.org/2000/svg" xmlns:xlink="http://www.w3.org/1999/xlink" x="0px" y="0px"
	 viewBox="0 0 556 392.98" enable-background="new 0 0 556 392.98" xml:space="preserve">
<path fill="#FFFFFF" stroke="#1D1B1B" stroke-miterlimit="10" d="M58,295.9L47,9.9h35c0,0,2,183,9,276L58,295.9z"/>
<path fill="#FFFFFF" stroke="#1D1B1B" stroke-miterlimit="10" d="M47,9.9c0,0-10,0-10-4c0,0,16,289,13,294"/>
<path fill="#FFFFFF" stroke="#1D1B1B" stroke-miterlimit="10" d="M544,98.233C415.333,166.233,40,302.9,40,302.9l8,17
	c0,0,482.666-205.001,498.666-221.667H544z"/>
<polyline fill="#FFFFFF" stroke="#1D1B1B" stroke-miterlimit="10" points="62,71.9 135,88.9 137,76.9 62,61.9 "/>
<polyline fill="#FFFFFF" stroke="#1D1B1B" stroke-miterlimit="10" points="66,158.9 139,188.9 141,176.9 66,148.9 "/>
<path fill="#FFFFFF" stroke="#1D1B1B" stroke-miterlimit="10" d="M550,101.567c-30.586,16.165-75.111,38.922-125.22,64.225
	C264.097,246.928,46,354.234,46,354.234l14.667,27.333c0,0,447.333-258.667,492-280H550z"/>
<path fill="none" stroke="#1D1B1B" stroke-miterlimit="10" d="M82,37.9c0,0,163.666,95.075,337.655,87.673
	c0.895-0.038,1.791-0.079,2.686-0.123c36.268-1.763,72.949-8.018,108.658-20.55"/>
<path fill="#FFFFFF" stroke="#1D1B1B" stroke-miterlimit="10" d="M160.056,3.456L190,30.9c0,0-29,300-31,353l-12.834,5.667"/>
<path fill="#FFFFFF" stroke="#1D1B1B" stroke-miterlimit="10" d="M117,10.4l38.997-6.29l4.059-0.654l-13.889,386.111l-26.389-13.89
	C119.778,375.677,123.944,61.789,117,10.4z"/>
<path fill="none" stroke="#1D1B1B" stroke-miterlimit="10" d="M37,5.9c0,0,45.667,1.667,45,4"/>
<path fill="none" stroke="#1D1B1B" stroke-miterlimit="10" d="M188,54.233c0,0,177.25,120.917,361.25,48.917"/>
<path fill="none" stroke="#1D1B1B" stroke-miterlimit="10" d="M196,87.9c0,0,0,65,3,155"/>
<path fill="none" stroke="#1D1B1B" stroke-miterlimit="10" d="M232.667,100.9c0,0,6,90,6.666,126.667"/>
<path fill="none" stroke="#1D1B1B" stroke-miterlimit="10" d="M271.333,110.233c0,0,5.333,98.001,6,102.001"/>
<path fill="none" stroke="#1D1B1B" stroke-miterlimit="10" d="M311.334,118.233c0,0,2.666,74.001,3.333,79.333"/>
<path fill="none" stroke="#1D1B1B" stroke-miterlimit="10" d="M356,123.567c0,0,3.333,52.667,4,56"/>
<path fill="none" stroke="#1D1B1B" stroke-miterlimit="10" d="M402,126.233c0,0,3.334,32.667,2.667,34.667"/>
<path fill="none" stroke="#1D1B1B" stroke-miterlimit="10" d="M442.667,123.901c0,0,1.498,16.747,2.831,20.08"/>
<path fill="none" stroke="#1D1B1B" stroke-miterlimit="10" d="M213.333,69.567c0,0-4.833,186.667-5.333,204.667"/>
<path fill="none" stroke="#1D1B1B" stroke-miterlimit="10" d="M265.75,93.65c0,0,0.917,109.25,0.25,152.583"/>
<path fill="#FFFFFF" stroke="#1D1B1B" stroke-miterlimit="10" d="M315.5,110.15c0,0,3.834,66.75,5.834,107.417"/>
<path fill="#FFFFFF" stroke="#1D1B1B" stroke-miterlimit="10" d="M417.333,126.566c0,0,2.416,34.832,3.083,41.165"/>
<path fill="#FFFFFF" stroke="#1D1B1B" stroke-miterlimit="10" d="M458.333,124.233c1.25,20.001,0.5,12.917,1.667,24"/>
<path fill="#FFFFFF" stroke="#1D1B1B" stroke-miterlimit="10" d="M493.75,118.9c0,0,0.666,5.165,1.333,11.499"/>
<path fill="none" stroke="#1D1B1B" stroke-miterlimit="10" d="M4,127.9c0,0,80,14,128-120"/>
<path fill="#FFFFFF" stroke="#1D1B1B" stroke-miterlimit="10" d="M375.667,122.566c0,0,1.667,59.334,1.333,67.334"/>
</svg>
