<?xml version="1.0" encoding="utf-8"?>
<!-- Generator: Adobe Illustrator 21.0.0, SVG Export Plug-In . SVG Version: 6.00 Build 0)  -->
<svg version="1.1" id="Layer_2" xmlns="http://www.w3.org/2000/svg" xmlns:xlink="http://www.w3.org/1999/xlink" x="0px" y="0px"
	 viewBox="0 0 305.985 262.487" enable-background="new 0 0 305.985 262.487" xml:space="preserve">
<path fill="none" stroke="#000000" stroke-width="2" stroke-miterlimit="10" d="M166.903,290.399"/>
<g id="XMLID_1_">
	<g>
		<polygon fill="#FFFFFF" points="121.322,77.894 121.462,83.594 65.232,127.644 64.772,118.564 120.902,77.904 		"/>
		<polygon fill="#FFFFFF" points="174.402,79.324 174.432,73.714 174.892,73.714 245.412,108.344 245.562,108.354 244.862,118.114 
			174.402,79.404 		"/>
		<polygon fill="#FFFFFF" points="246.532,94.774 245.562,108.354 245.412,108.344 174.892,73.714 174.432,73.714 174.492,62.904 
			175.402,62.904 		"/>
		<path fill="#FFFFFF" d="M247.242,84.904l-0.71,9.87l-71.13-31.87h-0.91v-1.4c7.13-1.21,8.92-4.35,9.33-13.59L247.242,84.904z"/>
		<path fill="#FFFFFF" d="M121.082,68.114l-0.15-5.89c0.61,0.03,1.26,0.04,1.93,0.04l50.28-0.56c0.47-0.06,0.92-0.13,1.35-0.2v1.4
			l-0.06,10.81l-0.03,5.61l-52.94,4.27l-0.14-5.7L121.082,68.114z"/>
		<polygon fill="#FFFFFF" points="121.082,68.114 121.322,77.894 120.902,77.904 64.772,118.564 64.072,104.684 64.652,104.654 		
			"/>
		<path fill="#F4F4F2" d="M303.902,126.574l-3.95,32.94c-2.66,3.57-6.24,7.64-10.5,12.03l3.93-29.59
			C298.932,135.774,302.742,130.454,303.902,126.574z"/>
		<path fill="#F4F4F2" d="M293.382,141.954c-3.27,3.65-7.17,7.61-11.49,11.75c-3.6,3.45-7.49,7.03-11.57,10.66
			c-4.18,3.72-8.56,7.49-13.01,11.25c-4.61,3.89-9.31,7.76-13.96,11.52c-4.77,3.86-9.49,7.61-14.02,11.16
			c-5.33,4.16-10.4,8.05-14.99,11.53c-12.71,9.6-21.77,15.99-22.44,16.08c-2.33,0.33-20.67,11.67-60.33,3
			c-6.43-1.41-13.9-3.85-21.91-7.03c-4.4-1.75-8.96-3.72-13.61-5.87c-3.64-1.68-7.34-3.47-11.04-5.35
			c-3.34-1.68-6.69-3.44-10.02-5.25c-3.7-2-7.37-4.07-10.98-6.17c-3.99-2.34-7.9-4.71-11.69-7.11c-3.58-2.26-7.05-4.54-10.35-6.8
			c-3.9-2.67-7.57-5.33-10.95-7.92c-3.73-2.86-7.1-5.64-10.01-8.29c-6.57-5.98-10.82-11.28-11.61-15.21
			c-0.06-0.33-0.12-0.66-0.17-0.99c-2.48-17.02,17.35-39.7,20.03-42.68l2.14,42.17l98.5,56.5l60.99-2.99l86.68-71.01l2.36-30.66
			c22.97,7,23.97,22.33,23.97,22.33C302.742,130.454,298.932,135.774,293.382,141.954z"/>
		<path fill="#F4F4F2" d="M293.382,141.954l-3.93,29.59c-3.37,3.47-7.16,7.14-11.24,10.92l3.94-28.49l-0.26-0.27
			C286.212,149.564,290.112,145.604,293.382,141.954z"/>
		<path fill="#CCCCCB" d="M279.932,104.244l-2.36,30.66l-86.68,71.01l-60.99,2.99l-98.5-56.5l-2.14-42.17l-1.36-26.83l58.33-49.83
			l22.64,15.09c0.06,3.72,0.04,5.82,0.04,5.82s-0.41,4.01,4.7,6.27l-50.04,34.15l0.5,9.78l0.7,13.88l0.46,9.08l0.34,6.59
			l37.51,22.78l19.75,11.99l0.33,0.27l0.02-0.06l6.54,3.98l10.51,6.38l39.34-2.67l8.66-7.28l5.76-4.85l16.32-13.73l34.26-28.81
			l0.29-4.12l0.7-9.76l0.97-13.58l0.71-9.87l-63.42-36.99c0.15-3.39,0.11-7.59,0.08-12.82l15-13.52l83.33,52.66L279.932,104.244z"/>
		<path fill="#F4F4F2" d="M281.892,153.704l0.26,0.27l-3.94,28.49c-3.68,3.43-7.6,6.94-11.66,10.47l-0.15-0.18l3.92-28.39
			C274.402,160.734,278.292,157.154,281.892,153.704z"/>
		<path fill="#F4F4F2" d="M270.322,164.364l-3.92,28.39l0.15,0.18c-4.25,3.71-8.65,7.45-13.09,11.14l-0.06-0.07l4-28.29l-0.09-0.1
			C261.762,171.854,266.142,168.084,270.322,164.364z"/>
		<path fill="#F4F4F2" d="M257.312,175.614l0.09,0.1l-4,28.29l0.06,0.07c-4.66,3.89-9.37,7.72-14,11.44l3.89-28.38
			C248.002,183.374,252.702,179.504,257.312,175.614z"/>
		<path fill="#5DB955" d="M174.402,79.404l70.46,38.71l-0.29,4.12l-34.26,28.81l-0.4-0.48c0,0-34.01-28.33-58.34-25.99
			c-24.34,2.33-48.01,31.66-48.01,31.66l-0.48,0.78l-37.51-22.78l-0.34-6.59l56.23-44.05l52.94-4.27V79.404z"/>
		<path fill="#F4F4F2" d="M243.352,187.134l-3.89,28.38c-4.8,3.83-9.5,7.54-13.98,11.01l-0.08-0.1l3.93-28.13
			C233.862,194.744,238.582,190.994,243.352,187.134z"/>
		<path fill="#F4F4F2" d="M229.332,198.294l-3.93,28.13l0.08,0.1c-5.45,4.23-10.56,8.12-15.07,11.49l-0.01-0.01l4-28.12l-0.06-0.06
			C218.932,206.344,224.002,202.454,229.332,198.294z"/>
		<path fill="#F4F4F2" d="M214.402,209.884l-4,28.12l0.01,0.01c-10.62,7.96-17.9,13.08-18.5,13.17c-2.34,0.34-20.67,11.67-60.34,3
			c-6.14-1.34-13.22-3.63-20.82-6.6l-1.09-25.71c8.01,3.18,15.48,5.62,21.91,7.03c39.66,8.67,58-2.67,60.33-3
			c0.67-0.09,9.73-6.48,22.44-16.08L214.402,209.884z"/>
		<path fill="#C2B59E" d="M210.312,151.044l-16.32,13.73l4.66-4.45l-5.56-1.54l-1.97,3.87l2.87,2.12l-5.76,4.85l-0.33-0.39
			l-32.33-21.33l-25.67,25l-0.18,0.29l-6.54-3.98l1.64-5.39l-4.57-1.54l-0.96,3.87l3.54,2.85l-19.75-11.99l0.48-0.78
			c0,0,23.67-29.33,48.01-31.66c24.33-2.34,58.34,25.99,58.34,25.99L210.312,151.044z M154.582,139.444l2.65-4.45l-4.56-2.54
			l-2.96,4.87L154.582,139.444z"/>
		<polygon fill="#FFFFFF" points="198.652,160.324 193.992,164.774 191.122,162.654 193.092,158.784 		"/>
		<polygon fill="#5DB955" points="187.902,169.234 188.232,169.624 179.572,176.904 140.232,179.574 129.722,173.194 
			129.902,172.904 155.572,147.904 		"/>
		<path fill="#2C2C2C" d="M183.902,35.094c0.03,5.23,0.07,9.43-0.08,12.82l-4.46-2.6c0.04-1.8,0.04-3.85,0.03-6.16L183.902,35.094z"
			/>
		<path fill="#2C2C2C" d="M183.902,35.094l-4.51,4.06c-0.01-2.62-0.03-5.58-0.03-8.93c0.02-20.08-17.97-18.24-17.97-18.24
			l-29.64,1.14c0,0-18.86-0.25-18.12,13.19c0.78,14.22,0.79,24.37,0.78,26.04l-5.54-3.69c-0.07-5.31-0.28-13.93-0.86-24.5
			c-0.86-15.52,20.9-15.23,20.9-15.23l34.23-1.33c0,0,20.76-2.12,20.74,21.07C183.882,30.974,183.892,33.104,183.902,35.094z"/>
		<path fill="#2C2C2C" d="M179.362,45.314l4.46,2.6c-0.41,9.24-2.2,12.38-9.33,13.59l0.02-3.74
			C178.272,56.144,179.172,52.744,179.362,45.314z"/>
		<path fill="#FFFFFF" d="M179.392,39.154c0.01,2.31,0.01,4.36-0.03,6.16l-4.13-2.41L179.392,39.154z"/>
		<path fill="#FFFFFF" d="M179.392,39.154l-4.16,3.75l-0.64,0.19l-0.06,10.81h-0.63l-53.12,2.25l0.07,2.64
			c-1.16-0.27-2.1-0.62-2.88-1.02l2.26-1.54l-5.82-3.88c0.01-1.67,0-11.82-0.78-26.04c-0.74-13.44,18.12-13.19,18.12-13.19
			l29.64-1.14c0,0,17.99-1.84,17.97,18.24C179.362,33.574,179.382,36.534,179.392,39.154z"/>
		<path fill="#FFFFFF" d="M175.232,42.904l4.13,2.41c-0.19,7.43-1.09,10.83-4.85,12.45l0.02-3.86l0.06-10.81L175.232,42.904z"/>
		<path fill="#FFFFFF" d="M174.532,53.904l-0.02,3.86c-1.18,0.51-2.65,0.85-4.46,1.08l-43.55,0.49c-2.29,0.01-4.15-0.19-5.65-0.54
			l-0.07-2.64l53.12-2.25H174.532z"/>
		<path fill="#2C2C2C" d="M174.512,57.764l-0.02,3.74c-0.43,0.07-0.88,0.14-1.35,0.2l-50.28,0.56c-0.67,0-1.32-0.01-1.93-0.04
			l-0.08-3.43c1.5,0.35,3.36,0.55,5.65,0.54l43.55-0.49C171.862,58.614,173.332,58.274,174.512,57.764z"/>
		<polygon fill="#FFFFFF" points="157.232,134.994 154.582,139.444 149.712,137.324 152.672,132.454 		"/>
		<polygon fill="#FFFFFF" points="124.822,163.824 123.182,169.214 122.832,169.004 119.292,166.154 120.252,162.284 		"/>
		<polygon fill="#FFFFFF" points="123.182,169.214 123.162,169.274 122.832,169.004 		"/>
		<path fill="#FFFFFF" d="M120.932,62.224l0.15,5.89l-56.43,36.54l-0.58,0.03l-0.5-9.78l50.04-34.15
			C115.342,61.514,117.712,62.084,120.932,62.224z"/>
		<path fill="#2C2C2C" d="M120.852,58.794l0.08,3.43c-3.22-0.14-5.59-0.71-7.32-1.47l4.36-2.98
			C118.752,58.174,119.692,58.524,120.852,58.794z"/>
		<path fill="#FFFFFF" d="M120.232,56.234l-2.26,1.54c-3.89-1.99-3.56-5.18-3.56-5.18s0-0.08,0-0.24L120.232,56.234z"/>
		<path fill="#2C2C2C" d="M117.972,57.774l-4.36,2.98c-5.11-2.26-4.7-6.27-4.7-6.27s0.02-2.1-0.04-5.82l5.54,3.69
			c0,0.16,0,0.24,0,0.24S114.082,55.784,117.972,57.774z"/>
		<path fill="#F4F4F2" d="M109.662,221.874l1.09,25.71c-3.29-1.29-6.69-2.71-10.15-4.24l-4.62-27.2l0.07-0.14
			C100.702,218.154,105.262,220.124,109.662,221.874z"/>
		<path fill="#F4F4F2" d="M95.982,216.144l4.62,27.2c-3.65-1.61-7.38-3.35-11.14-5.18l-4.45-27.51c3.7,1.88,7.4,3.67,11.04,5.35
			L95.982,216.144z"/>
		<path fill="#F4F4F2" d="M85.012,210.654l4.45,27.51c-3.36-1.65-6.74-3.37-10.12-5.15l0.23-0.44l-4.58-27.17
			C78.322,207.214,81.672,208.974,85.012,210.654z"/>
		<path fill="#F4F4F2" d="M74.992,205.404l4.58,27.17l-0.23,0.44c-3.65-1.92-7.29-3.91-10.88-5.94l-4.45-27.84
			C67.622,201.334,71.292,203.404,74.992,205.404z"/>
		<path fill="#F4F4F2" d="M68.462,227.074c-3.94-2.24-7.83-4.53-11.62-6.85l-4.52-28.1c3.79,2.4,7.7,4.77,11.69,7.11L68.462,227.074
			z"/>
		<path fill="#F4F4F2" d="M52.322,192.124l4.52,28.1c-3.53-2.16-6.97-4.35-10.28-6.54l-4.59-28.36
			C45.272,187.584,48.742,189.864,52.322,192.124z"/>
		<path fill="#F4F4F2" d="M41.972,185.324l4.59,28.36c-3.87-2.55-7.57-5.11-11.02-7.62l-4.64-28.5l0.12-0.16
			C34.402,179.994,38.072,182.654,41.972,185.324z"/>
		<path fill="#F4F4F2" d="M30.902,177.564l4.64,28.5c-3.61-2.63-6.96-5.22-9.98-7.72l-4.66-29.11l0.11-0.12
			c2.91,2.65,6.28,5.43,10.01,8.29L30.902,177.564z"/>
		<path fill="#F4F4F2" d="M20.902,169.234l4.66,29.11c-4.28-3.55-7.88-6.93-10.6-10l-0.07,0.01l-5.74-35.43l0.08-0.01
			c0.05,0.33,0.11,0.66,0.17,0.99c0.79,3.93,5.04,9.23,11.61,15.21L20.902,169.234z"/>
	</g>
	<g>
		<polyline fill="none" stroke="#000000" stroke-width="2" stroke-miterlimit="10" points="183.902,35.094 198.902,21.574 
			282.232,74.234 279.932,104.244 277.572,134.904 190.892,205.914 129.902,208.904 31.402,152.404 29.262,110.234 27.902,83.404 
			86.232,33.574 108.872,48.664 		"/>
		<polyline fill="none" stroke="#000000" stroke-width="2" stroke-miterlimit="10" points="123.182,169.214 129.722,173.194 
			140.232,179.574 179.572,176.904 188.232,169.624 193.992,164.774 210.312,151.044 244.572,122.234 244.862,118.114 
			245.562,108.354 246.532,94.774 247.242,84.904 183.822,47.914 		"/>
		<polyline fill="none" stroke="#000000" stroke-width="2" stroke-miterlimit="10" points="113.612,60.754 63.572,94.904 
			64.072,104.684 64.772,118.564 65.232,127.644 65.572,134.234 103.082,157.014 122.832,169.004 		"/>
		<polyline fill="none" stroke="#000000" stroke-width="2" stroke-miterlimit="10" points="64.902,127.904 65.232,127.644 
			121.462,83.594 121.322,77.894 121.082,68.114 120.932,62.224 		"/>
		<polyline fill="none" stroke="#000000" stroke-width="2" stroke-miterlimit="10" points="174.492,61.504 174.492,62.904 
			174.432,73.714 174.402,79.324 174.402,79.404 244.862,118.114 245.402,118.404 		"/>
		<path fill="none" stroke="#000000" stroke-width="2" stroke-miterlimit="10" d="M29.572,109.904c0,0-0.1,0.11-0.31,0.33
			c-2.68,2.98-22.51,25.66-20.03,42.68c0.05,0.33,0.11,0.66,0.17,0.99c0.79,3.93,5.04,9.23,11.61,15.21
			c2.91,2.65,6.28,5.43,10.01,8.29c3.38,2.59,7.05,5.25,10.95,7.92c3.3,2.26,6.77,4.54,10.35,6.8c3.79,2.4,7.7,4.77,11.69,7.11
			c3.61,2.1,7.28,4.17,10.98,6.17c3.33,1.81,6.68,3.57,10.02,5.25c3.7,1.88,7.4,3.67,11.04,5.35c4.65,2.15,9.21,4.12,13.61,5.87
			c8.01,3.18,15.48,5.62,21.91,7.03c39.66,8.67,58-2.67,60.33-3c0.67-0.09,9.73-6.48,22.44-16.08c4.59-3.48,9.66-7.37,14.99-11.53
			c4.53-3.55,9.25-7.3,14.02-11.16c4.65-3.76,9.35-7.63,13.96-11.52c4.45-3.76,8.83-7.53,13.01-11.25
			c4.08-3.63,7.97-7.21,11.57-10.66c4.32-4.14,8.22-8.1,11.49-11.75c5.55-6.18,9.36-11.5,10.52-15.38c0,0-1-15.33-23.97-22.33
			c-0.01,0-0.02-0.01-0.03-0.01"/>
		<polyline fill="none" stroke="#000000" stroke-width="2" stroke-miterlimit="10" points="129.902,172.904 155.572,147.904 
			187.902,169.234 		"/>
		<path fill="none" stroke="#000000" stroke-width="2" stroke-miterlimit="10" d="M103.562,156.234c0,0,23.67-29.33,48.01-31.66
			c24.33-2.34,58.34,25.99,58.34,25.99"/>
		<path fill="none" stroke="#000000" stroke-width="2" stroke-miterlimit="10" d="M120.932,62.224c0.61,0.03,1.26,0.04,1.93,0.04
			l50.28-0.56c0.47-0.06,0.92-0.13,1.35-0.2c7.13-1.21,8.92-4.35,9.33-13.59c0.15-3.39,0.11-7.59,0.08-12.82
			c-0.01-1.99-0.02-4.12-0.02-6.42c0.02-23.19-20.74-21.07-20.74-21.07l-34.23,1.33c0,0-21.76-0.29-20.9,15.23
			c0.58,10.57,0.79,19.19,0.86,24.5c0.06,3.72,0.04,5.82,0.04,5.82s-0.41,4.01,4.7,6.27
			C115.342,61.514,117.712,62.084,120.932,62.224z"/>
		<path fill="none" stroke="#000000" stroke-width="2" stroke-miterlimit="10" d="M120.852,58.794c1.5,0.35,3.36,0.55,5.65,0.54
			l43.55-0.49c1.81-0.23,3.28-0.57,4.46-1.08c3.76-1.62,4.66-5.02,4.85-12.45c0.04-1.8,0.04-3.85,0.03-6.16
			c-0.01-2.62-0.03-5.58-0.03-8.93c0.02-20.08-17.97-18.24-17.97-18.24l-29.64,1.14c0,0-18.86-0.25-18.12,13.19
			c0.78,14.22,0.79,24.37,0.78,26.04c0,0.16,0,0.24,0,0.24s-0.33,3.19,3.56,5.18C118.752,58.174,119.692,58.524,120.852,58.794z"/>
		<polyline fill="none" stroke="#000000" stroke-width="2" stroke-miterlimit="10" points="121.462,83.594 174.402,79.324 
			175.572,79.234 		"/>
		<polygon fill="none" stroke="#000000" stroke-width="1.2706" stroke-miterlimit="10" points="152.672,132.454 149.712,137.324 
			154.582,139.444 157.232,134.994 		"/>
		<polygon fill="none" stroke="#000000" stroke-width="1.2706" stroke-miterlimit="10" points="193.092,158.784 191.122,162.654 
			193.992,164.774 198.652,160.324 		"/>
		<polygon fill="none" stroke="#000000" stroke-width="1.2706" stroke-miterlimit="10" points="123.182,169.214 124.822,163.824 
			120.252,162.284 119.292,166.154 122.832,169.004 123.162,169.274 		"/>
		<path fill="none" stroke="#000000" stroke-width="2" stroke-miterlimit="10" d="M300.362,158.944c-0.14,0.19-0.27,0.38-0.41,0.57
			c-2.66,3.57-6.24,7.64-10.5,12.03c-3.37,3.47-7.16,7.14-11.24,10.92c-3.68,3.43-7.6,6.94-11.66,10.47
			c-4.25,3.71-8.65,7.45-13.09,11.14c-4.66,3.89-9.37,7.72-14,11.44c-4.8,3.83-9.5,7.54-13.98,11.01
			c-5.45,4.23-10.56,8.12-15.07,11.49c-10.62,7.96-17.9,13.08-18.5,13.17c-2.34,0.34-20.67,11.67-60.34,3
			c-6.14-1.34-13.22-3.63-20.82-6.6c-3.29-1.29-6.69-2.71-10.15-4.24c-3.65-1.61-7.38-3.35-11.14-5.18
			c-3.36-1.65-6.74-3.37-10.12-5.15c-3.65-1.92-7.29-3.91-10.88-5.94c-3.94-2.24-7.83-4.53-11.62-6.85
			c-3.53-2.16-6.97-4.35-10.28-6.54c-3.87-2.55-7.57-5.11-11.02-7.62c-3.61-2.63-6.96-5.22-9.98-7.72c-4.28-3.55-7.88-6.93-10.6-10"
			/>
		<polyline fill="none" stroke="#000000" stroke-width="2" stroke-miterlimit="10" points="8.902,151.404 9.152,152.924 
			14.892,188.354 14.902,188.404 		"/>
		<polyline fill="none" stroke="#000000" stroke-width="1.9833" stroke-miterlimit="10" points="20.902,169.234 25.562,198.344 
			25.572,198.404 		"/>
		<polyline fill="none" stroke="#000000" stroke-width="1.9664" stroke-miterlimit="10" points="30.902,177.564 35.542,206.064 
			35.572,206.244 		"/>
		<polyline fill="none" stroke="#000000" stroke-width="1.972" stroke-miterlimit="10" points="41.902,184.904 41.972,185.324 
			46.562,213.684 46.572,213.744 		"/>
		<polyline fill="none" stroke="#000000" stroke-width="1.9776" stroke-miterlimit="10" points="52.232,191.564 52.322,192.124 
			56.842,220.224 56.902,220.574 		"/>
		<polyline fill="none" stroke="#000000" stroke-width="1.9833" stroke-miterlimit="10" points="63.902,198.564 64.012,199.234 
			68.462,227.074 68.572,227.744 		"/>
		<polyline fill="none" stroke="#000000" stroke-width="1.9322" stroke-miterlimit="10" points="74.902,204.884 74.992,205.404 
			79.572,232.574 		"/>
		<polyline fill="none" stroke="#000000" stroke-width="1.972" stroke-miterlimit="10" points="84.902,209.984 85.012,210.654 
			89.462,238.164 89.572,238.824 		"/>
		<polyline fill="none" stroke="#000000" stroke-width="1.9264" stroke-miterlimit="10" points="95.982,216.144 100.602,243.344 
			100.652,243.664 		"/>
		<polyline fill="none" stroke="#000000" stroke-width="1.8976" stroke-miterlimit="10" points="109.632,221.114 109.662,221.874 
			110.752,247.584 110.782,248.204 		"/>
		<polyline fill="none" stroke="#000000" stroke-width="2" stroke-miterlimit="10" points="303.902,126.574 299.952,159.514 
			299.902,159.904 		"/>
		<polyline fill="none" stroke="#000000" stroke-width="1.9008" stroke-miterlimit="10" points="293.402,141.814 293.382,141.954 
			289.452,171.544 289.402,171.914 		"/>
		<polyline fill="none" stroke="#000000" stroke-width="1.8638" stroke-miterlimit="10" points="282.152,153.974 278.212,182.464 
			278.152,182.924 		"/>
		<polyline fill="none" stroke="#000000" stroke-width="1.8639" stroke-miterlimit="10" points="270.402,163.804 270.322,164.364 
			266.402,192.754 		"/>
		
			<line fill="none" stroke="#000000" stroke-width="1.8425" stroke-miterlimit="10" x1="257.402" y1="175.714" x2="253.402" y2="204.004"/>
		<polyline fill="none" stroke="#000000" stroke-width="1.8692" stroke-miterlimit="10" points="243.402,186.804 243.352,187.134 
			239.462,215.514 239.402,215.924 		"/>
		<polyline fill="none" stroke="#000000" stroke-width="1.8532" stroke-miterlimit="10" points="229.402,197.804 229.332,198.294 
			225.402,226.424 		"/>
		
			<line fill="none" stroke="#000000" stroke-width="1.8371" stroke-miterlimit="10" x1="214.402" y1="209.884" x2="210.402" y2="238.004"/>
		<polyline fill="none" stroke="#000000" stroke-width="1.726" stroke-miterlimit="10" points="64.652,104.654 121.082,68.114 
			121.402,67.904 		"/>
		<polyline fill="none" stroke="#000000" stroke-width="1.726" stroke-miterlimit="10" points="64.652,118.654 64.772,118.564 
			120.902,77.904 		"/>
		<polyline fill="none" stroke="#000000" stroke-width="1.7161" stroke-miterlimit="10" points="175.402,62.904 246.532,94.774 
			246.822,94.904 		"/>
		
			<line fill="none" stroke="#000000" stroke-width="1.7736" stroke-miterlimit="10" x1="174.892" y1="73.714" x2="245.412" y2="108.344"/>
	</g>
</g>
<line fill="none" stroke="#000000" stroke-width="1.8573" stroke-miterlimit="10" x1="123.562" y1="226.606" x2="123.126" y2="252.61"/>
<line fill="none" stroke="#000000" stroke-width="1.8573" stroke-miterlimit="10" x1="137.562" y1="230.106" x2="137.126" y2="256.11"/>
<line fill="none" stroke="#000000" stroke-width="1.8573" stroke-miterlimit="10" x1="154.062" y1="231.606" x2="153.626" y2="257.61"/>
<line fill="none" stroke="#000000" stroke-width="1.8337" stroke-miterlimit="10" x1="173.065" y1="231.101" x2="172.755" y2="256.471"/>
<line fill="none" stroke="#000000" stroke-width="1.726" stroke-miterlimit="10" x1="196.264" y1="223.538" x2="195.696" y2="248.674"/>
</svg>
