<?xml version="1.0" encoding="utf-8"?>
<!-- Generator: Adobe Illustrator 21.0.0, SVG Export Plug-In . SVG Version: 6.00 Build 0)  -->
<svg version="1.1" id="Layer_1" xmlns="http://www.w3.org/2000/svg" xmlns:xlink="http://www.w3.org/1999/xlink" x="0px" y="0px"
	 viewBox="0 0 51.8 150.9" style="enable-background:new 0 0 51.8 150.9;" xml:space="preserve">
<style type="text/css">
	.st0{fill:#FFFFFF;stroke:#000000;stroke-width:1.2623;stroke-miterlimit:10;}
	.st1{fill:#C9232D;stroke:#000000;stroke-width:0.9082;stroke-miterlimit:10;}
</style>
<path class="st0" d="M35.7,9.7l-0.5,91.9c9.4,3.7,15.9,12.9,15.9,23.6c-0.1,13.9-11.4,25.2-25.4,25.1c-13.9-0.1-25.2-11.4-25.1-25.4
	c0.1-10.7,6.7-19.8,16.1-23.4l0.5-91.9l0,0c0-5.2,4.1-9,9.3-9C31.8,0.7,35.8,4.5,35.7,9.7L35.7,9.7z"/>
<path class="st1" d="M31.2,51.8l-0.5,57.6c6.7,2.7,13.4,9.3,13.3,17c-0.1,10-8.2,18.1-18.3,18.1c-10-0.1-18.1-8.2-18.1-18.3
	c0-7.7,6.8-14.2,13.5-16.8l0.5-57.6l0,0c0-3.8,1-7.5,4.8-7.5C30.2,44.3,31.2,48.1,31.2,51.8L31.2,51.8z"/>
</svg>
