<?xml version="1.0" encoding="utf-8"?>
<!-- Generator: Adobe Illustrator 21.0.0, SVG Export Plug-In . SVG Version: 6.00 Build 0)  -->
<svg version="1.1" xmlns="http://www.w3.org/2000/svg" xmlns:xlink="http://www.w3.org/1999/xlink" x="0px" y="0px"
	 viewBox="0 0 960 560" style="enable-background:new 0 0 960 560;" xml:space="preserve">
<style type="text/css">
	.st0{fill:#858689;}
	.st1{fill:#CCCCCB;}
	.st2{fill:#FFFFFF;}
	.st3{fill:none;stroke:#000000;stroke-width:3;stroke-linecap:round;stroke-miterlimit:10;}
	.st4{fill:none;stroke:#000000;stroke-width:2;stroke-miterlimit:10;}
	.st5{stroke:#000000;stroke-width:2;stroke-miterlimit:10;}
	.st6{fill:none;stroke:#000000;stroke-width:3;stroke-linejoin:round;stroke-miterlimit:10;}
	.st7{fill:#DD0303;}
</style>
<g id="Layer_2">
	<g id="XMLID_1_">
		<g>
			<polygon class="st0" points="594.5,313.5 595.5,321.5 563.5,352.5 564.5,340.3 			"/>
			<path class="st0" d="M316,280l-9,17l1.4,18.8c0,0.2-4.3,1.8-4.3,1.8L304,316c0,0-20-22.7-20.7-21.3c-0.5,1.1-8.1,19.2-10.9,26.1
				c-0.7,1.6-1.1,2.6-1.1,2.6l-25.3,5.3l-11.3-34l81.1-16.3L316,280z"/>
			<path class="st0" d="M392,174.3l13,11.7l2.7,23l12.3,14.3l3,32l44.4-3.7c0,2.6,0,5.1,0.1,7.6h-0.1l-18.5,1l-39.4,2.1l-2.1-38.7
				L395.7,213v-20l-12-11.7V150l5.7-12h1.7L392,174.3z"/>
			<path class="st0" d="M361.8,145l14.9-1.8l0.6,0.4l-3.9,6.5v9l-23.2,1c-0.5-4.2-1.1-7.4-1.8-8l11.3-14l1.6,7.1L361.8,145z"/>
			<polygon class="st0" points="377.3,143.5 380.7,138 389.3,138 383.7,150 373.3,150 			"/>
			<path class="st1" d="M311,351.5l0.2,1c-1.7,0.3-3.4,0.5-5.1,0.8l-0.1-0.8l-1.9-35.1c0,0,4.3-1.5,4.3-1.8L311,351.5z"/>
			<path class="st2" d="M306,352.6l0.1,0.8c-11.2,1.8-21.4,3.4-30.1,4.8l-4.7-34.8c0,0,0.4-1,1.1-2.6c2.9-6.9,10.4-25,10.9-26.1
				C284,293.3,304,316,304,316l0.1,1.5L306,352.6z"/>
			<path class="st2" d="M271.3,323.3l4.7,34.8c-17,2.7-28,4.5-28,4.5l-2-34L271.3,323.3z"/>
			<path class="st1" d="M423.3,291l1.5,44.6c-3.6,0.5-7.3,1-11.2,1.5v0l-2.5-45.8h0L423.3,291z"/>
			<path class="st1" d="M449,262.3l18.5,22.3c0,1.5,0,2.9,0,4.3c-0.1,21.5-0.6,37.4-1.7,41.8L465,332c0,0,0,0,0,0
				c-1.5-1.1-17.5,0.6-40.2,3.6l-1.5-44.6h9.7L449,262.3z"/>
			<path class="st1" d="M502,293.7l0.2,11.3l-10.7,14.8h-9.8c0,0,0-12.7,0-28.8c0-19.8,0-44.7,0-57.6c0-5,0-8.2,0-8.6
				c0-0.2,0-0.6,0.1-1.1c0.8,1.6,7.4,14.6,18.7,1.1l0.3,12.6L502,293.7z"/>
			<path class="st1" d="M652,252.5L640.9,349l-0.4,3.5l-11,3l-10.2-13.8c0,0,0,0,0-0.1c0.2-1.9,2.7-24.1,5.5-46.2
				c2.6-20.7,5.5-41.3,7.2-44.9C632,250.5,639.6,269,652,252.5z"/>
			<path class="st1" d="M513.9,83.9l97.6,18.1c0,0-20.5,17.5-22.5,15c-0.7-0.9-16-4-35.7-7.8c-14-2.7-30.2-5.7-45-8.3
				c-25.1-4.5-46.2-8.2-46.2-8.2L487.5,79L513.9,83.9z"/>
			<polygon class="st1" points="669,76 668.6,79 635.5,87.5 513.9,65.5 557.8,54 			"/>
			<polygon class="st0" points="668.6,79 661.9,126.5 632.5,133.9 635.5,87.5 			"/>
			<path class="st0" d="M661.9,126.5l-8.9,63.6l-1-0.1c-0.4,0.2-10.9,2.2-23.3,4.6l3.9-60.7L661.9,126.5z"/>
			<path class="st0" d="M653,190.1l-6.9,49.2l-20.7,5.4l3.2-50.1c12.4-2.4,22.9-4.4,23.3-4.6L653,190.1z"/>
			<path class="st0" d="M645.5,244c9.5,5,6.5,8.5,6.5,8.5c-12.5,16.5-20-2-20-2C635.5,243,645.5,244,645.5,244z"/>
			<path class="st0" d="M646.2,239.3l-0.7,4.7c0,0-10-1-13.5,6.5c-1.7,3.5-4.6,24.1-7.2,44.9l-0.3,0l-2.3,0.5l3.3-51.2L646.2,239.3z
				"/>
			<polygon class="st0" points="645.5,349 640.9,424 624.5,420.5 629.5,355.5 640.5,352.5 640.9,349 			"/>
			<polygon class="st0" points="631.9,134 611.5,140.5 611.5,106.5 611.5,105 611.5,102 513.9,83.9 513.9,65.5 635.5,87.5 
				632.5,133.9 			"/>
			<path class="st1" d="M632.5,133.9l-3.9,60.7c-6.4,1.2-13.2,2.5-19.6,3.7l2.4-57.8l20.4-6.5L632.5,133.9z"/>
			<path class="st0" d="M603,404l-0.3-1.5c0.6-21.7-1.2-21.5-6.5-20.9c-5,0.6-3.5,24.2-3.5,24.2l0,0.2L603,404z M610.4,402.5
				l8.9-1.8c0,0,5.1-22.3-5.3-20.5C607.5,381.5,611.3,401.9,610.4,402.5z M619.3,341.7l10.2,13.8l-5,65L579,430l1.5-60.5L607,325
				L619.3,341.7z"/>
			<path class="st0" d="M628.7,194.6l-3.2,50.1l-18.5,4.8l2.1-51.2C615.4,197.1,622.3,195.8,628.7,194.6z"/>
			<polygon class="st0" points="625.5,244.7 622.2,295.9 605,300.1 607,249.5 			"/>
			<path class="st0" d="M622.2,295.9l-2.9,45.7c0,0.1,0,0.1,0,0.1L607,325l-0.9-0.9l-2.2-0.5l0.1-0.5l0.9-23L622.2,295.9z"/>
			<path class="st0" d="M614,380.3c10.4-1.8,5.3,20.5,5.3,20.5l-8.9,1.8C611.3,401.9,607.5,381.5,614,380.3z"/>
			<path class="st1" d="M611.5,106.5v34l-23.2,4L589,117c2,2.5,22.5-15,22.5-15v3V106.5z"/>
			<path class="st1" d="M611.5,140.5l-2.4,57.8c-12.1,2.3-22.1,4.2-22.1,4.2l1.4-58L611.5,140.5z"/>
			<path class="st1" d="M609.1,198.3l-2.1,51.2l-21.3,5.5l1.2-52.5C587,202.5,597,200.6,609.1,198.3z"/>
			<polygon class="st1" points="607,249.5 605,300.1 584.6,305 585.8,255 			"/>
			<path class="st1" d="M607,325l-26.5,44.5L448,360l17-28c0.3,0.2,0.5-0.3,0.8-1.2l6.7-11h9.2h9.8l-10.8,14.9l-0.7,1v9.9l83.5,7
				l32-31l8.4,2l2.2,0.5L607,325z"/>
			<polygon class="st0" points="605,300.1 604,323.1 603.9,323.5 595.5,321.5 594.5,313.5 584.4,312.4 584.6,305 			"/>
			<path class="st0" d="M602.7,402.5l0.3,1.5l-10.2,2l0-0.2c0,0-1.5-23.6,3.5-24.2C601.5,381,603.3,380.8,602.7,402.5z"/>
			<polygon class="st1" points="594.5,313.5 564.5,340.3 482,335.6 480.7,334.7 491.5,319.8 502.3,305 503,304 510.9,304.8 
				549.5,308.8 584.4,312.4 			"/>
			<path class="st1" d="M558.5,389.5c5.5,0.7,3,20.4,3,20.4l-9.6-0.9l0.2-1.8C552,397,553,388.8,558.5,389.5z"/>
			<path class="st1" d="M539.5,387.6c5.5,0.7,3,20.4,3,20.4l0,0.2l-9.6-0.9l0.2-2C533,395.1,534,386.9,539.5,387.6z"/>
			<path class="st1" d="M521.4,385.9c6.9,0,3,20.4,3,20.4l0,0.2l-9.6-0.9l0.2-2C514.9,393.4,515.9,385.9,521.4,385.9z"/>
			<path class="st1" d="M503.3,384.7c5.2-0.8,3.3,17.9,3,20.2l-9.6-0.9l0.1-1.6C496.8,392.2,497.8,385.6,503.3,384.7z"/>
			<path class="st0" d="M492,216.8c7.7,0,8.5,8,8.5,8c-11.3,13.4-17.9,0.5-18.7-1.1C482.1,221.4,483.7,216.8,492,216.8z"/>
			<path class="st1" d="M484.3,384.4c5.5-0.7,4.3,7.9,4.3,17.8l-0.1,1.1l-9.4-0.9C479.2,401.3,479,385,484.3,384.4z"/>
			<path class="st1" d="M466,382.1c5.5,0.7,3.6,19.1,3.6,19.1l0,0.4l-10.1-0.9l0.1-0.8C459.5,389.6,460.5,381.4,466,382.1z"/>
			<path class="st0" d="M467.4,259.2c0.1,9,0.1,17.5,0.1,25.4L449,262.3l-0.1-2.1L467.4,259.2L467.4,259.2z"/>
			<polygon class="st0" points="448.9,260.2 449,262.3 433,291 423.3,291 411.1,291.3 411.1,291.3 409.5,262.3 			"/>
			<path class="st2" d="M413.6,337.1L413.6,337.1c-3.3,0.5-6.6,0.9-10.1,1.4l-0.2-1.4L395.7,213l11.7,10.7l2.1,38.7l1.6,29
				L413.6,337.1z"/>
			<polygon class="st1" points="383.7,150 383.7,181.3 373.3,181.3 373.3,159 373.3,150 			"/>
			<path d="M383.7,340.3l-27.2,5.3c0,0-4.6-31.9,12-32C385,313.3,382.7,329.5,383.7,340.3z"/>
			<path d="M381.1,296.8v0.2h-1.9v-0.3C379.8,296.7,380.5,296.7,381.1,296.8z"/>
			<path d="M381.1,282v14.8c-0.6,0-1.2-0.1-1.9-0.1V282H381.1z"/>
			<path class="st0" d="M378.5,228.3l-10.8,0.9c0,0-3.7-38.4,5.6-35C382.7,197.7,377.7,223.5,378.5,228.3z"/>
			<path d="M368.3,296.9l0,0.7l-1.9,0.1l0-0.7c0.2,0,0.4,0,0.6,0C367.4,297,367.8,296.9,368.3,296.9z"/>
			<path d="M367.4,282.6l0.9,14.3c-0.4,0-0.9,0.1-1.3,0.1c-0.2,0-0.4,0-0.6,0l-0.8-14.3L367.4,282.6z"/>
			<path class="st0" d="M361.7,229.6l-14.9,1.2v-1.4c0,0-3.1-37.8,5.3-35.2C360.3,197,358,202.3,361.7,229.6z"/>
			<path class="st0" d="M359.7,138l-11.3,14c-2.3-2-11.2,1.7-11.2,1.7l13-15.7h8.2H359.7z"/>
			<path d="M353.9,298.9L353.9,298.9l-0.3,0.1C353.7,298.9,353.8,298.9,353.9,298.9z"/>
			<path d="M353.9,284v14.9c-0.1,0-0.2,0.1-0.3,0.1H352v-15H353.9z"/>
			<path class="st2" d="M345.5,347.2L345.5,347.2c-4.8,0.8-9.6,1.5-14.4,2.2c0.7-0.1-1.1-90.2-1.9-130.4c-0.2-11.6-0.4-19-0.4-19
				l10.5-14l1.7,45.3l2.8,73.8c-0.1,0.7,0.1,1.2,0.1,1.2L345.5,347.2z"/>
		</g>
		<g>
			<polyline class="st3" points="248,362.7 246,328.7 234.7,294.7 			"/>
			<line class="st3" x1="271.3" y1="323.3" x2="246" y2="328.7"/>
			<path class="st3" d="M306,352.6l-1.9-35.1L304,316c0,0-20-22.7-20.7-21.3c-0.5,1.1-8.1,19.2-10.9,26.1c-0.7,1.6-1.1,2.6-1.1,2.6
				l4.7,34.8"/>
			<polyline class="st3" points="328.8,349.8 326.2,313.5 325.8,307.8 324.2,292.2 316,280 307,297 308.4,315.8 311,351.5 			"/>
			<path class="st3" d="M326.2,313.5l-17.8,2.3c0,0.2-4.3,1.8-4.3,1.8"/>
			<path class="st3" d="M345.5,347.2l-1.6-40.9l-0.1-1.2l-2.8-73.8l-1.7-45.3l-10.5,14c0,0,0.2,7.4,0.4,19
				c0.8,40.2,2.6,130.3,1.9,130.4"/>
			<path class="st3" d="M339.3,186l-2.2-32.3c0,0,8.9-3.7,11.2-1.7c0.7,0.6,1.3,3.8,1.8,8c1.2,9.6,1.8,24.4,1.8,24.4L339.3,186z"/>
			<line class="st3" x1="373.3" y1="159" x2="350.2" y2="160"/>
			<polyline class="st3" points="337.1,153.7 350.2,138 358.3,138 359.7,138 361.3,145.1 361.8,147.3 354,156.7 			"/>
			<line class="st3" x1="348.3" y1="152" x2="359.7" y2="138"/>
			<line class="st3" x1="361.8" y1="145" x2="376.6" y2="143.2"/>
			<polygon class="st3" points="383.7,181.3 373.3,181.3 373.3,159 373.3,150 383.7,150 			"/>
			<polyline class="st3" points="383.7,150 389.3,138 380.7,138 377.3,143.5 373.3,150 			"/>
			<polyline class="st3" points="391,138 392,174.3 405,186 407.7,209 420,223.3 423,255.3 467.4,251.7 			"/>
			<polyline class="st3" points="409.5,262.3 448.9,260.2 467.4,259.2 			"/>
			<polyline class="st3" points="467.5,284.7 467.5,284.7 449,262.3 433,291 423.3,291 424.8,335.6 			"/>
			<line class="st3" x1="411.1" y1="291.3" x2="423.3" y2="291"/>
			<line class="st3" x1="395.7" y1="213" x2="403.3" y2="337.1"/>
			<polyline class="st3" points="391.7,340.3 389.7,301.7 389.6,299.7 386,227.7 383.7,181.3 395.7,193 395.7,213 407.3,223.7 
				409.5,262.3 411.1,291.3 413.6,337.1 			"/>
			<polyline class="st3" points="341.1,231.3 346.7,230.9 361.7,229.6 367.7,229.2 378.5,228.3 386,227.7 			"/>
			<path class="st3" d="M346.7,229.5c0,0-3.1-37.8,5.3-35.2c8.3,2.7,6,8,9.7,35.3"/>
			<path class="st3" d="M367.7,229.2c0,0-3.7-38.4,5.6-35c9.3,3.5,4.3,29.3,5.2,34.1"/>
			<path class="st3" d="M381.7,259.5c0,9.6-7.8,17.5-17.5,17.5c-9.6,0-17.5-7.8-17.5-17.5c0-9.6,7.8-17.5,17.5-17.5
				C373.9,242,381.7,249.8,381.7,259.5z"/>
			<line class="st3" x1="363.5" y1="247" x2="363.5" y2="262.3"/>
			<line class="st3" x1="373.3" y1="265" x2="363.5" y2="262.3"/>
			<path class="st3" d="M353.6,299c-7.7,2-9.4,4.6-9.7,6.2c-0.1,0.7,0.1,1.2,0.1,1.2"/>
			<path class="st3" d="M366.3,297c-5.3,0.4-9.3,1.1-12.4,1.8"/>
			<path class="st3" d="M379.1,296.7c-2.8-0.1-6.4-0.1-10.9,0.2"/>
			<path class="st3" d="M389.7,301.7c0,0,0.6-0.9-0.1-2c-0.7-1.1-2.9-2.4-8.6-2.9"/>
			<polygon class="st4" points="353.9,298.9 353.9,284 352,284 352,299 353.6,299 353.9,299 			"/>
			<polygon class="st4" points="381.1,296.8 381.1,282 379.1,282 379.1,296.7 379.1,296.9 381.1,296.9 			"/>
			<polygon class="st4" points="368.3,296.9 367.4,282.6 365.5,282.8 366.3,297 366.4,297.7 368.3,297.6 			"/>
			<path class="st3" d="M611.5,105v-3l-97.6-18.1L487.5,79L462,92.7c0.8,1.5,1.6,14.5,2.4,33.8c0.6,14.3,1.2,32,1.6,51
				c0.4,17.1,0.8,35.2,1.1,52.8c0.1,7.3,0.2,14.4,0.3,21.4c0,2.6,0,5.1,0.1,7.6c0.1,9,0.1,17.5,0.1,25.4c0,1.5,0,2.9,0,4.3
				c-0.1,21.5-0.6,37.4-1.7,41.8c-0.2,1-0.5,1.4-0.8,1.2c0,0,0,0,0,0c-1.5-1.1-17.5,0.6-40.2,3.6c-3.6,0.5-7.3,1-11.2,1.5
				c-3.3,0.4-6.6,0.9-10.1,1.4c-3.9,0.6-7.8,1.1-11.9,1.7c-11.4,1.7-23.3,3.4-35.2,5.2c-3.6,0.6-7.3,1.1-10.9,1.7
				c-4.8,0.7-9.6,1.5-14.4,2.2c-0.8,0.1-1.6,0.2-2.3,0.4c-6,0.9-11.9,1.9-17.6,2.8c-1.7,0.3-3.4,0.5-5.1,0.8
				c-11.2,1.8-21.4,3.4-30.1,4.8c-17,2.7-28,4.5-28,4.5l-16.7-6.7l-5.3-34.7l8.7-26.7l81.1-16.3l2.1-50.7l11.3-8.7"/>
			<path class="st3" d="M462,92.7c0,0,21.2,3.7,46.2,8.2c14.8,2.7,31.1,5.7,45,8.3c19.7,3.8,35,6.9,35.7,7.8c2,2.5,22.5-15,22.5-15"
				/>
			<polyline class="st3" points="606.1,324.1 603.9,323.5 595.5,321.5 594.5,313.5 584.4,312.4 549.5,308.8 510.9,304.8 503,304 
				502.3,305 491.5,319.8 480.7,334.7 480,335.6 480,345.5 563.5,352.5 564.5,340.3 482,335.6 			"/>
			<polyline class="st3" points="513.9,83.9 513.9,65.5 635.5,87.5 632.5,133.9 628.7,194.6 625.5,244.7 622.2,295.9 619.3,341.6 
							"/>
			<line class="st3" x1="635.5" y1="87.5" x2="668.6" y2="79"/>
			<polyline class="st3" points="611.5,105 611.5,106.5 611.5,140.5 631.9,134 632.5,133.9 661.9,126.5 			"/>
			<polyline class="st3" points="589,117 588.3,144.5 587,202.5 585.8,255 584.6,305 584.4,312.4 			"/>
			<polyline class="st3" points="464.4,126.5 508.7,132.9 552.7,139.3 588.3,144.5 611.5,140.5 609.1,198.3 607,249.5 605,300.1 
				604,323.1 			"/>
			<path class="st3" d="M466,177.5l43.4,9l42.2,8.7l35.3,7.3c0,0,10-1.9,22.1-4.2c6.3-1.2,13.2-2.5,19.6-3.7
				c12.4-2.4,22.9-4.4,23.3-4.6"/>
			<polyline class="st3" points="500.8,237.4 510.1,239.4 550.6,248.1 584.4,255.3 585.8,255 607,249.5 625.5,244.7 646.2,239.3 			
				"/>
			<line class="st3" x1="467.4" y1="230.3" x2="481.8" y2="233.4"/>
			<polyline class="st3" points="502.3,293.7 510.9,294.8 549.6,300.2 584.6,305 605,300.1 622.2,295.9 624.5,295.3 			"/>
			<line class="st3" x1="467.5" y1="289" x2="481.8" y2="291"/>
			<path class="st3" d="M491.5,319.8h-9.8h-9.2l-6.7,11L465,332l-17,28l132.5,9.5L607,325l12.3,16.7l10.2,13.8l11-3l0.4-3.5
				l11.1-96.5c0,0,3-3.5-6.5-8.5l0.7-4.7l6.9-49.2l8.9-63.6l6.6-47.5l0.4-3L557.8,54l-43.8,11.5"/>
			<path class="st3" d="M645.5,244c0,0-10-1-13.5,6.5c-1.7,3.5-4.6,24.1-7.2,44.9c-2.8,22.1-5.2,44.3-5.5,46.2c0,0.1,0,0.1,0,0.1"/>
			<path class="st3" d="M632,250.5c0,0,7.6,18.5,20,2"/>
			<polyline class="st3" points="448,414.3 579,430 624.5,420.5 640.9,424 645.5,349 640.9,349 			"/>
			<line class="st3" x1="448" y1="360" x2="448" y2="414.3"/>
			<line class="st3" x1="579" y1="430" x2="580.5" y2="369.5"/>
			<line class="st3" x1="624.5" y1="420.5" x2="629.5" y2="355.5"/>
			<polyline class="st3" points="449.7,399.8 459.4,400.6 469.5,401.5 479.2,402.4 488.6,403.3 496.6,404 506.3,404.9 514.7,405.7 
				524.4,406.5 532.8,407.3 542.4,408.2 551.8,409 561.5,409.9 568,410.5 			"/>
			<polyline class="st3" points="610.4,402.5 619.3,400.8 624.5,399.8 			"/>
			<polyline class="st3" points="586.7,407.2 589,406.8 592.7,406 603,404 610.4,402.5 			"/>
			<path class="st3" d="M619.3,400.8c0,0,5.1-22.3-5.3-20.5c-6.5,1.2-2.7,21.6-3.6,22.2c0,0,0,0-0.1,0"/>
			<path class="st3" d="M592.7,405.8c0,0-1.5-23.6,3.5-24.2c5.3-0.6,7.1-0.8,6.5,20.9"/>
			<line class="st3" x1="563.5" y1="352.5" x2="595.5" y2="321.5"/>
			<line class="st3" x1="564.5" y1="340.3" x2="594.5" y2="313.5"/>
			<line class="st3" x1="631.9" y1="134" x2="612.8" y2="131.3"/>
			<path class="st3" d="M561.5,409.9c0,0,2.5-19.8-3-20.4c-5.5-0.7-6.5,7.5-6.5,17.8"/>
			<path class="st3" d="M542.5,408c0,0,2.5-19.8-3-20.4c-5.5-0.7-6.5,7.5-6.5,17.8"/>
			<path class="st3" d="M524.4,406.4c0,0,3.9-20.4-3-20.4c-5.5,0-6.5,7.5-6.5,17.8"/>
			<path class="st3" d="M506.2,405.1c0,0,0-0.1,0-0.2c0.3-2.3,2.2-21-3-20.2c-5.5,0.9-6.5,7.5-6.5,17.8"/>
			<path class="st3" d="M479.2,402.5C479.2,402.5,479.2,402.5,479.2,402.5c0-1.2-0.2-17.5,5.1-18.1c5.5-0.7,4.3,7.9,4.3,17.8"/>
			<path class="st3" d="M469.5,401.2c0,0,1.9-18.4-3.6-19.1c-5.5-0.7-6.5,7.5-6.5,17.8"/>
			<polyline class="st3" points="508.2,100.9 508.7,132.9 509.4,186.5 510.1,239.4 510.9,294.8 511,304 			"/>
			<polyline class="st3" points="553.3,109.2 552.7,139.3 551.7,195.2 550.6,248.1 549.6,300.2 549.5,308.8 			"/>
			<path class="st3" d="M481.8,319.8c0,0,0-12.7,0-28.8c0-19.8,0-44.7,0-57.6c0-5,0-8.2,0-8.6c0-0.2,0-0.6,0.1-1.1
				c0.3-2.3,1.9-6.9,10.2-6.9c7.7,0,8.5,8,8.5,8l0.3,12.6l1.2,56.2l0.2,11.3"/>
			<path class="st3" d="M481.8,223.5c0,0,0,0.1,0.1,0.2c0.8,1.6,7.4,14.6,18.7,1.1"/>
		</g>
	</g>
	<line class="st5" x1="409.5" y1="262.3" x2="423" y2="255.3"/>
	<line class="st3" x1="395.7" y1="193" x2="405" y2="186"/>
	<line class="st3" x1="407.3" y1="223.7" x2="420" y2="223.3"/>
	<line class="st3" x1="383.7" y1="182.5" x2="392" y2="174.3"/>
</g>
<g id="Layer_4">
	<g id="XMLID_2_">
		<g>
			<polygon class="st2" points="483.1,415.5 486.9,421 486.6,424 242.6,454.6 248,444.2 483.1,415.5 			"/>
			<polygon class="st1" points="479.5,410.1 483.1,415.5 248,444.2 252.9,434.7 			"/>
			<polygon class="st2" points="479.5,410.1 252.9,434.7 257.2,426.2 266.7,425.5 303.4,421.6 332.2,418.5 346.1,417.1 360.1,415.6 
				373.6,414.2 388.1,412.6 402.2,411.1 417.5,409.5 432.6,407.9 467.2,404.2 477,406.6 			"/>
			<polygon class="st2" points="405,365.5 389.4,367.3 375.9,368.8 361.6,370.4 348,372 334.2,373.5 302.9,377.1 302.9,377.1 
				268.5,381 267.4,380.9 267.6,370 472.9,347.8 473.6,347 474.3,347.7 473,357.8 431.9,362.5 421.7,363.6 			"/>
			<polygon class="st2" points="446,322.7 473.6,347 472.9,347.8 267.6,370 304.1,337.1 			"/>
			<polygon class="st1" points="473,357.8 467.2,404.2 432.6,407.9 432.4,406.1 432.1,363.8 431.9,362.5 			"/>
			<polygon class="st1" points="432.4,406.1 432.6,407.9 417.5,409.5 417.3,407.1 421.7,363.6 431.9,362.5 432.1,363.8 			"/>
			<polygon class="st1" points="421.7,363.6 417.3,407.1 417.5,409.5 402.2,411.1 402,409.3 405,365.5 			"/>
			<polygon class="st2" points="405,365.5 402,409.3 402.2,411.1 388.1,412.6 387.9,410.6 389.4,367.3 			"/>
			<polygon class="st1" points="389.4,367.3 387.9,410.6 388.1,412.6 373.6,414.2 375.9,368.8 			"/>
			<polygon class="st2" points="375.9,368.8 373.6,414.2 360.1,415.6 360,414.2 361.6,370.4 			"/>
			<polygon class="st1" points="361.6,370.4 360,414.2 360.1,415.6 346.1,417.1 346.1,417.1 348,372 			"/>
			<polygon class="st2" points="334.2,373.5 348,372 346.1,417.1 346.1,417.1 332.2,418.5 			"/>
			<polygon class="st2" points="334.2,373.5 332.2,418.5 303.4,421.6 302.9,377.1 302.9,377.1 			"/>
			<polygon class="st2" points="302.9,377.1 303.4,421.6 266.7,425.5 267.4,380.9 268.5,381 			"/>
		</g>
		<g>
			<polyline class="st6" points="483.1,415.5 486.9,421 486.6,424 242.6,454.6 248,444.2 252.9,434.7 257.2,426.2 266.7,425.5 
				267.4,380.9 267.6,370 304.1,337.1 446,322.7 473.6,347 474.3,347.7 473,357.8 467.2,404.2 477,406.6 479.5,410.1 483.1,415.5 
							"/>
			<line class="st6" x1="267.6" y1="370" x2="472.9" y2="347.8"/>
			<polyline class="st6" points="302.9,377.1 334.2,373.5 348,372 361.6,370.4 375.9,368.8 389.4,367.3 405,365.5 421.7,363.6 
				431.9,362.5 473,357.8 			"/>
			<line class="st6" x1="268.5" y1="381" x2="302.9" y2="377.1"/>
			<polyline class="st6" points="266.7,425.5 303.4,421.6 332.2,418.5 346.1,417.1 360.1,415.6 373.6,414.2 388.1,412.6 
				402.2,411.1 417.5,409.5 432.6,407.9 467.2,404.2 			"/>
			<line class="st6" x1="252.9" y1="434.7" x2="479.5" y2="410.1"/>
			<polyline class="st6" points="248,444.2 483.1,415.5 483.1,415.5 			"/>
			<polyline class="st6" points="302.9,377.1 302.9,377.1 303.4,421.6 			"/>
			<line class="st6" x1="317.3" y1="378.5" x2="316.2" y2="419.8"/>
			<line class="st6" x1="334.2" y1="373.5" x2="332.2" y2="418.5"/>
			<line class="st6" x1="348" y1="372" x2="346.1" y2="417.1"/>
			<line class="st6" x1="361.6" y1="370.4" x2="360" y2="414.2"/>
			<line class="st6" x1="375.9" y1="368.8" x2="373.6" y2="414.2"/>
			<line class="st6" x1="389.4" y1="367.3" x2="387.9" y2="410.6"/>
			<polyline class="st6" points="405,365.5 405,365.5 402,409.3 			"/>
			<polyline class="st6" points="421.8,362.8 421.7,363.6 417.3,407.1 			"/>
			<line class="st6" x1="432.1" y1="363.8" x2="432.4" y2="406.1"/>
		</g>
	</g>
</g>
<g id="Layer_3">
	<g id="XMLID_3_">
		<g>
			<path class="st7" d="M470.2,421.3l-20.8,13l2.3-16C451.7,418.3,466.4,418.5,470.2,421.3z"/>
			<path class="st7" d="M508.2,366.2l-13.1,56.6c0,0,16.5,47.5,10.5,58.5l-7.5-0.5c0,0-14.9-49.6-28-59.5c-3.7-2.8-18.5-3-18.5-3
				l-2.3,16l-7.2,51.5l-17.5-57.9l8.6-23l27.4-40.4l-8,40.3l7,1L508.2,366.2z"/>
			<path class="st7" d="M449.4,434.4l20.8-13c9.5,36.5,7.8,46.7,2.5,61c-0.5,1.4-6,0-6,0S463.2,438.3,449.4,434.4z"/>
			<polygon class="st7" points="433.3,404.9 424.6,427.9 422.5,420.8 			"/>
			<path class="st7" d="M433.3,404.9l-10.8,15.9l2.1,7.1c-57,6.1-61.3,72.4-61.3,72.4s-6.7,10.5-12.2,0
				c-5.5-10.5,13.5-48.2,13.5-48.2l-12.5-61.8l40,21l5.6-60.1C397.8,351.2,433.3,388.8,433.3,404.9z"/>
		</g>
		<g>
			<polyline class="st6" points="433.3,404.9 460.7,364.5 452.7,404.8 459.7,405.8 508.2,366.2 495.2,422.8 			"/>
			<path class="st6" d="M495.2,422.8c0,0,16.5,47.5,10.5,58.5l-7.5-0.5c0,0-14.9-49.6-28-59.5c-3.7-2.8-18.5-3-18.5-3l-2.3,16
				l-7.2,51.5l-17.5-57.9"/>
			<line class="st6" x1="496.3" y1="423" x2="495.2" y2="422.8"/>
			<path class="st6" d="M449.4,434.4c13.8,4,17.2,48,17.2,48s5.5,1.4,6,0c5.3-14.3,7-24.5-2.5-61"/>
			<path class="st6" d="M433.3,404.9c0-16.1-35.5-53.7-35.5-53.7l-5.6,60.1l-40-21l12.5,61.8c0,0-19,37.7-13.5,48.2
				c5.5,10.5,12.2,0,12.2,0s4.2-66.4,61.3-72.4"/>
		</g>
	</g>
</g>
<g id="Layer_5">
</g>
</svg>
