<?xml version="1.0" encoding="utf-8"?>
<!-- Generator: Adobe Illustrator 21.0.0, SVG Export Plug-In . SVG Version: 6.00 Build 0)  -->
<svg version="1.1" id="Layer_2" xmlns="http://www.w3.org/2000/svg" xmlns:xlink="http://www.w3.org/1999/xlink" x="0px" y="0px"
	 viewBox="0 0 90.092 137.804" enable-background="new 0 0 90.092 137.804" xml:space="preserve">
<path fill="#4E401E" stroke="#020202" stroke-miterlimit="10" d="M39.513,108.346l3.334,28.905l22.901-2.558
	c0,0-5.003-18.345-4.447-32.015"/>
<path fill="#5DB955" stroke="#020202" stroke-miterlimit="10" d="M21.615,75.031c0,0-11.414,43.133-16.602,50.546
	c0,0,9.487,3.409,29.497-12.006c0,0,1.779,6.966,0.89,11.561c0,0,15.416-9.931,16.008-14.971c0,0,6.67,9.486,8.153,9.486
	c0,0-1.335-8.301,1.185-10.079c0,0,6.671,7.412,19.121,5.338c0,0-8.449-7.412-7.707-9.341c0,0,10.227,4.003,17.046,1.334
	c0,0-26.533-27.127-32.165-42.837"/>
<path fill="#5DB955" stroke="#020202" stroke-miterlimit="10" d="M17.611,42.57c0,0,3.483,13.116-10.56,47.987
	c0,0,10.56-1.222,22.122-13.006c0,0-0.445,9.114,3.114,8.892c0,0,4.668-8.892,8.226-11.117c0,0,12.97,6.894,19.862,4.892
	c0,0-1.629-1.777-2.964-8.67c0,0,10.006,5.557,14.675,2.221c0,0-31.72-31.348-32.832-38.464"/>
<g>
	<path fill="#5DB955" d="M3.538,50.017c0.118-0.084,11.939-8.873,18.918-46.818l0.286-1.553l0.66,1.435
		c0.102,0.222,10.491,22.352,36.75,41.607l1.616,1.186l-1.984-0.287c-0.447-0.065-10.597-1.559-14.345-4.092
		c-0.67,0.954-2.292,3.428-2.542,5.328l-0.104,0.799l-0.669-0.447c-2.5-1.672-5.281-3.726-6.349-5.22
		c-1.387,2.347-5.515,8.235-12.001,8.236c0,0-0.266-0.002-0.4-0.007l-0.413-0.016l-0.062-0.409
		c-0.256-1.677-0.545-3.489-0.751-4.683c-1.394,1.662-5.598,4.312-18.261,5.845l-1.953,0.236L3.538,50.017z"/>
	<path fill="#020202" d="M22.948,3.289c0,0,10.227,22.235,36.908,41.802c0,0-11.266-1.632-14.526-4.299c0,0-2.593,3.408-2.928,5.966
		c0,0-7.129-4.767-6.561-5.96c0.002-0.004,0.003-0.006,0.003-0.006l0,0c-0.001,0.002-0.002,0.004-0.003,0.006
		c-0.125,0.255-4.418,8.892-12.066,8.892c-0.126,0-0.253-0.002-0.381-0.007c0,0-0.934-6.119-1.046-6.119
		c-0.007,0-0.011,0.024-0.011,0.078c0,0-0.129,4.558-18.509,6.782C3.827,50.425,15.833,41.976,22.948,3.289 M22.536,0l-0.571,3.108
		C15.004,40.955,3.368,49.525,3.251,49.607L0,51.896l3.947-0.478c11.062-1.34,15.825-3.559,17.869-5.305
		c0.181,1.094,0.394,2.444,0.589,3.721l0.125,0.818l0.827,0.03c0.141,0.006,0.279,0.008,0.418,0.008
		c6.208,0,10.317-5.153,12.044-7.854c0.962,1.061,2.759,2.567,6.028,4.753l1.338,0.896l0.209-1.597
		c0.194-1.488,1.368-3.501,2.184-4.718c4.14,2.441,13.699,3.848,14.135,3.91l3.968,0.575l-3.233-2.371
		C34.278,25.093,23.958,3.091,23.857,2.871L22.536,0L22.536,0z"/>
</g>
</svg>
