<?xml version="1.0" encoding="utf-8"?>
<!-- Generator: Adobe Illustrator 21.0.0, SVG Export Plug-In . SVG Version: 6.00 Build 0)  -->
<svg version="1.1" id="Layer_2" xmlns="http://www.w3.org/2000/svg" xmlns:xlink="http://www.w3.org/1999/xlink" x="0px" y="0px"
	 viewBox="0 0 64.474 91.64" enable-background="new 0 0 64.474 91.64" xml:space="preserve">
<path fill="#4F402B" stroke="#000000" stroke-miterlimit="10" d="M26.502,81.241c0,0-1.412,9.677-0.202,9.879
	c1.21,0.201,13.709-1.21,13.709-1.21s-0.605-10.685,0-11.693C40.614,77.209,26.502,81.241,26.502,81.241z"/>
<path fill="#5C6C36" stroke="#000000" stroke-linejoin="bevel" stroke-miterlimit="10" d="M0.093,89.305l64.108-12.096
	c0,0-17.337-11.289-20.966-21.772c0,0,8.871,0.805,12.499-2.419c0,0-18.95-20.159-18.95-22.982c0,0,7.661,4.435,10.483,3.226
	c0,0-17.741-22.981-20.966-33.062c0,0-10.483,24.19-12.499,24.596c0,0,8.064-4.839,9.677-6.452c0,0-13.306,31.045-16.935,33.465
	c0,0,10.08-4.435,10.887-6.049c0,0-12.902,28.225-16.128,28.225c0,0,12.499-4.435,14.516-7.66
	C15.818,66.323,4.932,86.482,0.093,89.305z"/>
<path fill="none" stroke="#000000" stroke-linecap="square" stroke-miterlimit="10" d="M23.68,29.229c0,0,2.643,4.155,3.059,4.655
	c0.407,0.489,3.917-7.292,4.399-8.283"/>
<path fill="none" stroke="#000000" stroke-miterlimit="10" d="M30.736,44.954c0,0,5.241,4.636,5.846,5.24
	c0.605,0.605-0.605-7.861-0.605-10.281"/>
<path fill="none" stroke="#000000" stroke-miterlimit="10" d="M22.269,58.663c0,0-0.807,11.894-0.403,11.894
	s12.095-8.468,13.103-9.879"/>
<path fill="none" stroke="#000000" stroke-miterlimit="10" d="M37.993,69.348c0,0,5.04,6.651,5.847,6.248
	c0.806-0.403-1.21-4.637,0.403-7.861"/>
</svg>
