<?xml version="1.0" encoding="utf-8"?>
<!-- Generator: Adobe Illustrator 21.0.0, SVG Export Plug-In . SVG Version: 6.00 Build 0)  -->
<svg version="1.1" xmlns="http://www.w3.org/2000/svg" xmlns:xlink="http://www.w3.org/1999/xlink" x="0px" y="0px"
	 viewBox="0 0 344 283" style="enable-background:new 0 0 344 283;" xml:space="preserve">
<style type="text/css">
	.st0{fill:#844022;stroke:#000000;stroke-miterlimit:10;}
	.st1{fill:#F4EC6E;}
	.st2{fill:#844022;}
	.st3{fill:#408CC4;}
	.st4{fill:#FFFFFF;}
	.st5{fill:#FDE431;}
	.st6{fill:#292929;}
	.st7{fill:#F6993E;}
	.st8{fill:#AF589F;}
	.st9{fill:none;stroke:#000000;stroke-miterlimit:10;}
	.st10{fill:none;stroke:#000000;stroke-linejoin:round;stroke-miterlimit:10;}
	.st11{fill:none;stroke:#000000;stroke-width:0.9339;stroke-linejoin:round;stroke-miterlimit:10;}
	.st12{fill:none;stroke:#000000;stroke-width:1.0396;stroke-miterlimit:10;}
	.st13{fill:#E28D34;stroke:#000000;stroke-linecap:round;stroke-linejoin:round;}
</style>
<g id="Layer_3">
</g>
<g id="Layer_2">
	<polyline class="st0" points="322,76.7 311.8,74.3 312.7,76.8 310.3,77.2 310.8,79.2 307.3,79.7 310,81.3 306.7,82.7 307.7,85.7 
		304,86 304.8,88.7 303.7,91 300.5,92.2 300.8,93.8 298,95.2 300.2,96.3 296.8,97.2 298.3,99.5 294.8,100.5 296.7,103.5 
		293.5,103.7 295.8,107 292.7,108.5 294.3,111.8 290.5,112.2 291.7,115.3 289.2,115.3 288.7,121.3 286,121 285.8,124.8 284.2,125 
		284,129.5 278.8,129 278.8,139.8 284.8,143 294.5,140 	"/>
</g>
<g id="Layer_1">
	<g id="XMLID_1_">
		<g>
			<path class="st1" d="M323.9,100.3c-4,4.4-9.2,0.9-9.2,0.9c-6.8,20.5-21.5,41.7-31.5,54.7c-4.4,5.7-7.9,9.8-9.4,11.6
				c0.2-1.9,0.5-3.8,0.8-5.6c1.2-8.9,2.3-17.4,3.4-25.2l0.2,0c7.3-0.1,38.7-62.9,38.7-62.9s-3.5-10.4-0.4-9.9c5.9,1,2.1,9.7,2.1,9.7
				c1.3-0.4,2.5-0.5,3.5-0.6c0.4,0,1.1-6.2,1.4-6.2c4.5-0.2,0.2,6.2,0.9,6.4c1.4,0.2,2.6,0.7,3.7,1.3c0.4,0.2,2.4-6.2,2.8-6
				c3.5,2.2-1.8,6.9-1.4,7.2c1.6,1.4,2.3,2.1,2.3,2.1c-0.1-1.9,9.7-12.6,8.7-2.9c-0.4,3.6-7.1,4.6-7.1,4.6s-4.6,11.1,2.9,12
				c10.3-0.2,5.4,11.1-0.3,16.3c-7.3,1.8-11.2-5.2-12.1-6.9C324,100.3,324,100.2,323.9,100.3C323.9,100.2,323.9,100.3,323.9,100.3z
				 M294.8,129.7c0.9-2.4,4.5-7,1.7-6.8c0,0-7.8,5.9-5.5,8.1S293.9,132.2,294.8,129.7z M290.2,139.3c0.5-0.2-1.9-3.4-4.5-2.1
				c-2.6,1.3-5.7,5.8-3.7,5c2-0.8,1.7,0.7,4.9-0.4C290.1,140.7,290.2,139.3,290.2,139.3z"/>
			<path class="st1" d="M324,100.5c0.9,1.8,4.8,8.7,12.1,6.9c-2,1.8-4,2.9-5.6,2.4C325.2,108.4,324.2,102,324,100.5z"/>
			<path class="st2" d="M296.5,122.9c2.9-0.2-0.8,4.4-1.7,6.8c-0.9,2.4-1.5,3.6-3.8,1.3S296.5,122.9,296.5,122.9z"/>
			<path class="st2" d="M285.7,137.2c2.6-1.4,5,1.9,4.5,2.1c0,0-0.1,1.4-3.3,2.5c-3.2,1.1-2.9-0.4-4.9,0.4
				C280,143.1,283.1,138.6,285.7,137.2z"/>
			<path class="st3" d="M276.2,96.9c0.1-1.4,0.2-2.6,0.2-3.3c0,0-7.2-7.3,4.5-7.7c11.7-0.3,2.9,9.4,2.9,9.4s-2.5,17.3-5.7,41.2
				c-1.1,7.8-2.2,16.4-3.4,25.2l-0.9-0.1l-7.7,6.3C270.9,136.7,275.2,107.8,276.2,96.9z"/>
			<path class="st1" d="M283.2,155.9L283.2,155.9c-4.2,7.8-7.9,16.1-11.1,24c0.6-4.2,1.1-8.4,1.6-12.5
				C275.4,165.6,278.9,161.5,283.2,155.9z"/>
			<path class="st3" d="M273.8,167.4c-0.5,4.1-1.1,8.3-1.6,12.5c-7,17.7-11,33-11,33s0,0,0,0.1l-2.5-0.4c1.5-9.3,3.1-19.1,4.7-29
				c2.9-7.2,6.3-14.8,10.2-21.9l0.9,0.1C274.3,163.6,274.1,165.5,273.8,167.4z"/>
			<path class="st3" d="M265.9,167.9l7.7-6.3c-4,7.1-7.4,14.6-10.2,21.9C264.3,178.3,265.1,173.1,265.9,167.9z"/>
			<path class="st3" d="M261.2,212.9c0,0,4-15.2,11-33c-3.7,28.3-7.3,57.4-9.1,75.9l-2.7-0.3c0.1-1.2-0.2-2.8-1-4.5
				C256.6,244.9,261,214.4,261.2,212.9C261.2,212.9,261.2,212.9,261.2,212.9z"/>
			<path class="st4" d="M183.8,155.6c-18.9-2.4-36.5-1.5-52.2,1.2l-0.9,0c0,0.1,0,0.1,0,0.2c-12.8,2.3-24.3,5.7-34.3,9.5
				c-0.9-2.9-1.6-5-1.6-5l-9.7,0.6c2.9,1.7,5,4,6.4,6.4c-8.3,3.4-15.4,7.1-21.2,10.3l-0.3,0.1c-0.9-4.7-1.8-9.4-2.7-14.1
				c0.2,0.1,0.4,0.1,0.6,0.2c0,0,0.9-14.7-2.5-16.3c-0.4-0.2-0.8-0.4-1.2-0.6c-1.7-8.8-3.2-17.2-4.6-24.5c0.7,1.6,1,2.8,1,2.8
				c3.5-12.3-0.5-17.9-4.2-20.2C54.9,97.5,54,92.3,54,92.3s37.8-30.4,94.6-34.6c0.4,0.1,0.8,0.2,0.9,0.3c0,0,0-0.1,0-0.4
				c2.1-0.1,4.3-0.2,6.5-0.3c0.1,0.3,0.1,0.5,0,0.5c-0.4,0.1,1.5,0.1,1.8,0.2c0,0,0-0.3,0-0.7c34.6-0.8,75.3,8.6,118.5,39.6
				c-1,10.9-5.3,39.8-10.3,71l-13.4,10.9c-1.8-1-3.6-2-5.4-2.9c1-0.4,1.5-0.9,0.7-1.8c0,0-2.8-0.6-5.3-0.6
				c-13.3-6.5-26.4-11.1-38.9-14.2c0.3-1.5,0-2.2-1.1-1.3c-0.4,0.4-0.8,0.6-1.2,0.8h0C195.3,157.4,189.5,156.4,183.8,155.6z
				 M131.5,125c-0.8,0.2-27.1,8.5-33.5,11l21-39l-6-16L71.5,98l8,16l21.5-11.5l-18.5,40l6,11c0,0,29.5-10,45.5-9.5
				C134,144,127.5,127.6,131.5,125z M230,153.1c22,5.4,42.6-62.2,11.4-63s-33.8,31.7-33.8,31.7S201.3,146.1,230,153.1z M171,138
				c22.5,1.9,32.5-68,1.5-64S144,110.5,144,110.5S141.5,135.5,171,138z"/>
			<path class="st4" d="M252.5,178.8l13.4-10.9c-0.8,5.2-1.6,10.4-2.5,15.6c-0.2,0.5-0.4,0.9-0.6,1.4
				C259.4,182.8,255.9,180.7,252.5,178.8z"/>
			<path class="st1" d="M262.9,184.9c0.2-0.5,0.4-0.9,0.6-1.4c-1.6,9.8-3.2,19.6-4.7,29c-2.8,17.4-5.5,33.1-7.3,44.1
				c-1.3-2,0.2-4.5,0.8-5.9c0.8-1.8,2.9-41.9,2.9-41.9s-0.1-0.2-0.1-0.6v0C256.8,202.3,259.4,193.9,262.9,184.9z"/>
			<path class="st3" d="M260.4,255.6l2.7,0.3c-1,10.9-1.4,18.2-0.8,19.6l-13.6-2.5c0,0,0.6-3.7,1.7-10.1c0.8-1,1.2-2.5,0.8-4.5
				c0.1-0.6,0.2-1.2,0.3-1.8c0.4,0.7,1.1,1.3,2.2,1.8C257.2,260.1,260.2,258.8,260.4,255.6z"/>
			<path class="st4" d="M262.3,275.4l0.5,0.1C262.6,275.7,262.4,275.7,262.3,275.4z"/>
			<path class="st3" d="M258.7,212.5l2.5,0.4c-0.2,1.5-4.6,32-1.8,38.1c0.8,1.8,1.1,3.3,1,4.5c-0.2,3.2-3.2,4.5-6.8,2.9
				c-1.1-0.5-1.8-1.1-2.2-1.8C253.3,245.6,255.9,229.9,258.7,212.5z"/>
			<path class="st1" d="M262.9,184.9c-3.5,9-6.1,17.3-7.9,23.4c-0.8-3.4-4.8-19.8-9.6-21.8l-1-1.2l8-6.5
				C255.9,180.7,259.4,182.8,262.9,184.9z"/>
			<path class="st1" d="M240.2,194.9c-1-1.8-2.1-3.1-3.2-3.6l7.5-6l1,1.2c4.8,2,8.8,18.4,9.6,21.8v0c-1.7,5.9-2.5,9.5-2.5,9.5
				s-5,31.8-2.2,38.2c0.4,0.9,0.6,1.7,0.8,2.4c-0.3,1.6-0.5,3.1-0.8,4.5c-1.2,1.4-3.4,1.7-5.9,0.4c-4.5-2.2-2.2-5.8-1.3-7.7
				c0.8-1.8,3.3-41.8,3.3-41.8S243.9,201.4,240.2,194.9z M244.8,198.5c3.2-0.2,2.8-1.5,1.5-3.8s-2.2-8-4-5.8
				C242.2,189,241.5,198.8,244.8,198.5z"/>
			<path class="st1" d="M214.8,203.9c-4,0.7-8.4,1.1-13.2,1.1c0,0-0.3,1.9-1,4.7c-1.1,4.8-3.3,11.9-6.3,15.5c0,0-6.2,31.9-5.2,33.3
				c3.2,4.5,0.2,6.8-2,7c-1.5,0.1-7.5-2.7-4.2-7c0.5-7.8,1.7-32.5,4-38.7c0,0-15-30.1-10.5-51.1c1.2-5.7,3.9-9.9,7.3-13.1
				c5.7,0.7,11.5,1.8,17.4,3.1c-1.9,0.9-2.6-0.5-6.6,2.3c-4.7,3.3-4.2,5.6-4.2,5.6c-0.8,0.6,4.7,4.7,8.3,1.2
				c2.2-2.1,4.2-6.3,4.7-8.6c12.5,3.1,25.5,7.7,38.9,14.2c-2.2,0-4.3,0.4-4.4,1.9c-0.2,3.2,1.1,2.9,3.5,2c1.4-0.6,4.1-0.9,5.6-1.5
				c1.8,0.9,3.6,1.9,5.4,2.9l-8,6.5l-7.5,6c1.1,0.5,2.2,1.8,3.2,3.6C238.2,196.2,229,201.6,214.8,203.9z M220.8,197.8
				c0,1,6.6-0.7,6.2-5.7c-0.4-5-5.4-12.8-5.4-9c0,3.8-2.2,2.2-2.5,8C218.7,196.8,220.8,197.8,220.8,197.8z M206.6,174.2
				c2.5,0.6,7.5,3.6,7,0.8c0,0-6.8-7-8.8-4.4C202.8,173.2,204,173.6,206.6,174.2z M193.1,215.8c0,0,5.6-8,2.6-9.5
				c-2.9-1.4-3.1-0.1-3.2,2.5C192.5,211.4,190.5,216.8,193.1,215.8z M184.4,177.1c2.1-1.5,7.6-3.3,5.2-4.7c0,0-9.8,0.5-9.1,3.7
				C181.2,179.3,182.3,178.7,184.4,177.1z M184.2,199.5c3.2-0.2,2.8-1.5,1.5-3.8s-2.2-8-4-5.8C181.8,190,181,199.8,184.2,199.5z"/>
			<path class="st4" d="M251.1,258.4c0.4,2,0.1,3.5-0.8,4.5C250.6,261.5,250.9,260,251.1,258.4z"/>
			<path class="st4" d="M247.7,174.1c0.8,0.8,0.3,1.4-0.7,1.8c-1.6-0.8-3.1-1.6-4.7-2.4C244.9,173.6,247.7,174.1,247.7,174.1z"/>
			<path class="st2" d="M246.2,194.8c1.2,2.2,1.8,3.5-1.5,3.8s-2.5-9.5-2.5-9.5C244,186.8,245,192.5,246.2,194.8z"/>
			<path class="st2" d="M242.4,173.5c1.6,0.8,3.1,1.5,4.7,2.4c-1.5,0.6-4.1,0.9-5.6,1.5c-2.4,0.9-3.7,1.3-3.5-2
				C238,173.9,240.1,173.5,242.4,173.5z"/>
			<path class="st3" d="M241.4,90.1c31.2,0.8,10.6,68.4-11.4,63c-28.8-7-22.4-31.3-22.4-31.3S210.1,89.2,241.4,90.1z M237.8,131
				c3-4.4,8.4-26.1-4.3-23.5c0,0-10.8,6.4-9.7,18.6C225.2,143.1,236.8,132.5,237.8,131z"/>
			<path class="st4" d="M233.5,107.5c12.7-2.6,7.3,19.1,4.3,23.5c-1,1.5-12.6,12-14-4.9C222.7,113.9,233.5,107.5,233.5,107.5z"/>
			<path class="st2" d="M227.1,192.1c0.4,5-6.2,6.7-6.2,5.7c0,0-2.1-1-1.8-6.8c0.4-5.8,2.5-4.2,2.5-8
				C221.6,179.4,226.6,187.1,227.1,192.1z"/>
			<path class="st2" d="M213.5,175c0.5,2.8-4.4-0.2-7-0.8c-2.5-0.5-3.8-1-1.8-3.6C206.7,168,213.5,175,213.5,175z"/>
			<path class="st1" d="M214.8,203.9c-0.7,3.6-4.2,21.2-8,34.7c0,0,2.2,6.8-0.5,10.7c-2.7,3.8-9.2-6.2-6.4-8.8
				c0,0,4.8-28.8,1.2-30.7l-0.4-0.1c0.7-2.7,1-4.7,1-4.7C206.4,205,210.8,204.6,214.8,203.9z"/>
			<path class="st4" d="M202.4,158c1.1-0.9,1.4-0.2,1.1,1.3c-0.8-0.2-1.5-0.4-2.3-0.5C201.6,158.6,201.9,158.4,202.4,158z"/>
			<path class="st2" d="M201.2,158.8c0.8,0.2,1.5,0.4,2.3,0.5c-0.5,2.3-2.5,6.5-4.7,8.6c-3.6,3.5-9.1-0.6-8.3-1.2
				c0,0-0.6-2.3,4.2-5.6C198.6,158.2,199.3,159.7,201.2,158.8L201.2,158.8z"/>
			<path class="st5" d="M169.2,6.4c0-1.2,0.1-2,0.1-2.5c28.2,0.7,30.3,14.2,30.5,16.3c0,0.2,0,0.3,0,0.3c-8.6,6.6-21.9,4.1-26.7,2.8
				l0,0C169.3,22.3,169.1,11.6,169.2,6.4z"/>
			<path class="st2" d="M195.8,206.3c2.9,1.4-2.6,9.5-2.6,9.5c-2.6,1.1-0.6-4.4-0.6-7C192.6,206.2,192.8,204.9,195.8,206.3z"/>
			<path class="st2" d="M189.6,172.4c2.5,1.4-3.1,3.2-5.2,4.7c-2.1,1.5-3.2,2.2-3.9-1C179.8,172.9,189.6,172.4,189.6,172.4z"/>
			<path class="st2" d="M185.8,195.8c1.2,2.2,1.8,3.5-1.5,3.8s-2.5-9.5-2.5-9.5C183.5,187.8,184.5,193.5,185.8,195.8z"/>
			<path class="st3" d="M172.5,74c31-4,21,65.9-1.5,64c-29.5-2.5-27-27.5-27-27.5S141.5,78,172.5,74z M175.2,115
				c2.2-4.8,4.3-27.1-7.9-22.6c0,0-9.7,8-6.7,19.8C164.7,128.8,174.5,116.6,175.2,115z"/>
			<path class="st4" d="M167.4,92.4c12.1-4.5,10.1,17.7,7.9,22.6c-0.8,1.6-10.6,13.8-14.6-2.7C157.7,100.4,167.4,92.4,167.4,92.4z"
				/>
			<path class="st4" d="M173.2,23.3L173.2,23.3c-1.2-0.2-1.8-0.5-1.8-0.5l-2.3,8.8c-0.5,0.3-3.5,1.7-7.6,0.8c0,0-8.9-22.1,7.8-26
				C169.1,11.6,169.3,22.3,173.2,23.3z M164.9,15.1c1.4,0.2,3.1-3.2,1.2-2.9C164.2,12.4,164.9,15.1,164.9,15.1z"/>
			<path class="st6" d="M141.9,47.8C136.3,52.2,131,55,131,55c0.7-19.7,21.7-33,21.7-33c4.2-17.2,13.8-18.2,13.8-18.2
				c1,0,1.9,0,2.8,0c0,0.5-0.1,1.4-0.1,2.5c-16.7,3.9-7.8,26-7.8,26c4.1,0.9,7-0.5,7.6-0.8l-0.3,1.2c5.5,14.5-8.8,20.5-8.8,20.5
				s-0.4,0.2-1,0.3c-0.9,0.2-2.2,0.4-3.9,0.3c-1-0.1-2.1-0.2-3.3-0.5c-1.2-0.3-2.4-0.8-3.8-1.4C146,51.1,144,49.8,141.9,47.8
				L141.9,47.8z"/>
			<path d="M166.1,12.1c1.9-0.3,0.2,3.1-1.2,2.9C164.9,15.1,164.2,12.4,166.1,12.1z"/>
			<path class="st4" d="M157.7,57.3c0,0.4,0,0.7,0,0.7c-0.2-0.1-2.1-0.1-1.8-0.2c0.1,0,0.1-0.2,0-0.5
				C156.6,57.3,157.1,57.3,157.7,57.3z"/>
			<path class="st7" d="M146.4,249.1c0-0.1,0-0.1,0-0.1C146.4,249,146.4,249.1,146.4,249.1z M121.1,250.4c-0.3,1-3.6,12.1-5.4,12.3
				c-1.8,0.2,1.3-8.6,2.1-10.6c-0.8,1.8-4.7,9.9-6.2,10c-1.3,0.1,1.4-5.5,2.9-8.1c0.6-0.8,1-1.4,0.8-1.2c-0.1,0.1-0.4,0.6-0.8,1.2
				c-1.4,1.9-4.3,5.2-5.1,3.9c-1.1-1.9,7-10.8,5.1-12c-4.9-3.3-16.3-16.6-4.2-22.8c0,0-5-11.6-4.8-16.4c0.2-4.8-9.4-21.6-11-21.6
				c0,0,1.5-9.1-3.1-16.7c1.6-0.6,3.2-1.3,4.9-1.9c1.9,6,4.9,15.3,5,16.1c0,0,4.5,4.8,5.7,5.2c0,0,0.8-9.3,10.6-11
				c9.8-1.6,12.2,4,12.2,4s2.2-16.3,0.9-23.8c0.3,0,0.6-0.1,0.9-0.1l4.7,0.2c0,0,0.3,12.8,1.6,18.9c0,0-1.7,9-1.1,11.4
				c0.6,2.4,9.5,25.1,7,32.3c0,0,12.7,4.7,6.1,13.5c-6.6,8.8-3.2,12.8-3.2,12.8s5.7,6.2,3.5,11.6c-0.9,2.2-3.1-5.6-3.8-7.9
				c0.5,2.1,2.2,8.9,1.5,10.6c-0.7,1.9-3.6-8.3-4-9.6c0.3,1.3,2.4,10,1.1,11.1c-1.6,1.4-3.4-8.9-3.6-10.6c-0.6-4.3-2.1,1.3-2.1,1.3
				s-1.6,0.8-2.1-0.4s1.5-4.5,2.5-4.8c0,0-2.9-9.5,0.1-11.7c0,0-5.1-3.2-5.3-7c0,0-3,3.6-13.3,1.6c0,0-1.8,7.2-2.7,8.7
				c0,0,4.7,4.3,4.3,9.8c0,0,2.5,8,0,6.1C120.7,253,121,250.9,121.1,250.4z M117.9,252c0-0.1,0.1-0.1,0.1-0.2
				C117.9,251.8,117.9,251.9,117.9,252z M117.1,191.2c0.2,6.2,10.9-0.9,5.8-3.1C117.7,185.8,117.1,191.2,117.1,191.2z"/>
			<path class="st4" d="M148.6,57.7c0.3,0,0.6,0,0.9-0.1c0,0.2,0,0.4,0,0.4C149.4,57.9,149.1,57.8,148.6,57.7z"/>
			<path class="st3" d="M134,144c-16-0.5-45.5,9.5-45.5,9.5l-6-11l18.5-40L79.5,114l-8-16L113,81l6,16l-21,39
				c6.4-2.5,32.7-10.7,33.5-11C127.5,127.6,134,144,134,144z"/>
			<path class="st4" d="M130.7,156.8l0.9,0c-0.3,0.1-0.6,0.1-0.9,0.1C130.7,156.9,130.7,156.8,130.7,156.8z"/>
			<path class="st7" d="M122.9,188c5.2,2.2-5.6,9.3-5.8,3.1C117.1,191.2,120.4,190.4,122.9,188z"/>
			<path class="st7" d="M117.1,191.2c0,0,0.6-5.4,5.8-3.1C120.4,190.4,117.1,191.2,117.1,191.2z"/>
			<path class="st4" d="M117.9,252c0-0.1,0-0.1,0.1-0.2C117.9,251.8,117.9,251.9,117.9,252z"/>
			<path class="st4" d="M115.3,252.9c0.2-0.2-0.2,0.4-0.8,1.2C114.9,253.4,115.2,252.9,115.3,252.9z"/>
			<path class="st4" d="M94.8,161.5c0,0,0.7,2.1,1.6,5c-1.7,0.6-3.3,1.3-4.9,1.9c-1.5-2.4-3.5-4.6-6.4-6.4L94.8,161.5z"/>
			<path class="st4" d="M90.2,270.1l0.5-0.1C90.6,270.3,90.4,270.3,90.2,270.1z"/>
			<path class="st3" d="M90.2,270.1L76.5,272c0,0-0.2-1.5-0.7-4.3c0-0.1,0-0.3-0.1-0.4l-0.6-4.3c0,0,0,0,0,0.1
				c-0.4-2.7-0.9-5.9-1.5-9.6c3.2,2,7.5,3.9,13,5.6C88.2,265.3,89.4,269.2,90.2,270.1z"/>
			<path class="st8" d="M86.8,244.7c5.7,10,0.8,14.7,0.8,14.7c-0.3-0.1-0.7-0.2-1-0.3c-1.3-5.3-2.9-12.2-4.6-20.2
				C83.9,240.4,85.5,242.4,86.8,244.7z"/>
			<path class="st8" d="M82.1,238.8c1.7,8,3.3,14.9,4.6,20.2c-5.6-1.6-9.8-3.6-13-5.6c-0.9-5.8-2-12.6-3.2-20.2
				C74.1,233.7,78.4,235.6,82.1,238.8z"/>
			<path class="st3" d="M76.7,212.7c1.9,9.4,3.7,18.3,5.4,26.1c-3.6-3.3-8-5.2-11.6-5.5c-1.3-8.1-2.7-16.9-4.1-26.2
				c2.4,2,5.7,4,10.1,5.9C76.5,213,76.6,212.9,76.7,212.7z"/>
			<path class="st8" d="M73.9,198.1c7.7,6.4,3.8,13.2,2.8,14.6C75.8,207.9,74.8,203,73.9,198.1C73.8,198.1,73.9,198.1,73.9,198.1z"
				/>
			<path class="st8" d="M76.7,212.7c-0.1,0.2-0.2,0.3-0.2,0.3c-4.4-2-7.7-4-10.1-5.9c-0.9-5.6-1.8-11.2-2.7-17
				c1.2,0.8,4.1,2.9,10.1,8C74.8,203,75.8,207.9,76.7,212.7z"/>
			<path class="st8" d="M75.8,267.3c0,0.1,0,0.3,0.1,0.4c-20.8,7-24.2-5.3-24.2-5.3c18.7,5.3,23,1.3,23.5,0.7
				C75.4,264.7,75.6,266.1,75.8,267.3z"/>
			<path class="st4" d="M75.2,263l0.6,4.3C75.6,266.1,75.4,264.7,75.2,263C75.2,263,75.2,263,75.2,263z"/>
			<path class="st3" d="M70.1,178.8c1.2,6.5,2.5,12.9,3.8,19.3c-6.1-5.1-9-7.2-10.1-8c-1.7-10.3-3.3-20.8-5-30.9
				c1.8,2.2,4.5,4.2,8.7,5.5C68.3,169.3,69.2,174,70.1,178.8z"/>
			<path class="st8" d="M70.5,233.3c1.2,7.6,2.2,14.4,3.2,20.2c-13.6-8.5-9-18.8-9-18.8C65.9,233.4,68,233,70.5,233.3z"/>
			<path class="st8" d="M65.5,148.6c3.4,1.5,2.5,16.3,2.5,16.3c-0.2-0.1-0.4-0.1-0.6-0.2c-1.1-5.7-2.1-11.2-3.1-16.6
				C64.7,148.2,65.1,148.4,65.5,148.6z"/>
			<path class="st8" d="M64.2,148.1c1,5.4,2.1,11,3.1,16.6c-4.2-1.3-6.9-3.2-8.7-5.5c-0.8-5-1.6-9.9-2.4-14.6
				c0.1-0.2,0.1-0.3,0.1-0.4C56.5,144.4,57.7,145.1,64.2,148.1z"/>
			<path class="st8" d="M63.7,190.1c0.9,5.7,1.8,11.4,2.7,17c-10.9-9-3.4-17.4-3.4-17.4S63.2,189.8,63.7,190.1z"/>
			<path class="st8" d="M56.5,106.1c3.6,2.4,7.7,7.9,4.2,20.2c0,0-0.2-1.2-1-2.8C58.5,116.8,57.4,110.9,56.5,106.1z"/>
			<path class="st3" d="M59.7,123.5c1.4,7.4,2.9,15.7,4.6,24.5c-6.5-3-7.8-3.6-7.9-3.8c0,0,0,0,0,0s-0.1,0,0,0
				c0,0.1-0.1,0.2-0.1,0.4c-1.9-11.1-3.6-21.3-5.2-29.7C56,116.8,58.5,120.8,59.7,123.5z"/>
			<path class="st8" d="M59.7,123.5c-1.2-2.7-3.7-6.7-8.6-8.6c-0.8-4.1-1.5-7.8-2.1-11c1.2,0.2,2.3,0.4,3.5,0.6
				c0.7,0.1,2.3,0.5,4,1.6C57.4,110.9,58.5,116.8,59.7,123.5z"/>
			<path class="st4" d="M56.3,144.3C56.3,144.3,56.3,144.3,56.3,144.3C56.3,144.2,56.3,144.3,56.3,144.3z"/>
			<path class="st8" d="M56.2,144.7c0.8,4.7,1.6,9.6,2.4,14.6C54.2,153.6,55.8,146.4,56.2,144.7z"/>
			<path class="st3" d="M48.3,84.3c11-4,5.7,8,5.7,8s0.9,5.2,2.5,13.8c-1.7-1.1-3.3-1.5-4-1.6c-1.2-0.2-2.3-0.4-3.5-0.6
				c-1.1-5.3-1.9-9.1-2.5-10.9C46.5,93,37.3,88.3,48.3,84.3z"/>
			<path class="st8" d="M49,103.9c0.6,3.2,1.3,6.9,2.1,11c-1.2-0.5-2.6-0.8-4.1-0.9c-11.3-1.2-16.2-5.5-16.2-5.5s-10.2-3.8-10,1
				c0.2,4.8-4.7,11.2-9.8,11.2c0,0,5.8-5.8,5.8-11.8c0,0-8.2,8.8-9,8.8c-0.8,0-7.3,2.8-2.8-8.8C9.5,97.2,22.1,95.7,24,96
				c0,0,9.6,2.8,12.5,4.3C40.7,102.6,44.8,103.3,49,103.9z"/>
		</g>
		<g>
			<path class="st9" d="M130.7,156.9c1.3,7.5-0.9,23.8-0.9,23.8s-2.4-5.6-12.2-4c-9.8,1.7-10.6,11-10.6,11c-1.1-0.4-5.7-5.2-5.7-5.2
				c-0.1-0.8-3.1-10.1-5-16.1"/>
			<path class="st9" d="M146.5,249.6c0.6,2.3,2.9,10.2,3.8,7.9c2.2-5.4-3.5-11.6-3.5-11.6s-3.4-3.9,3.2-12.8
				c6.6-8.8-6.1-13.5-6.1-13.5c2.4-7.2-6.4-29.9-7-32.3c-0.6-2.4,1.1-11.4,1.1-11.4c-1.3-6.2-1.6-18.9-1.6-18.9l-4.7-0.2"/>
			<path class="st9" d="M146.4,248.9C146.4,248.9,146.4,248.9,146.4,248.9C146.4,248.9,146.4,249,146.4,248.9c0,0.1,0,0.2,0.1,0.2"
				/>
			<path class="st9" d="M146.4,249.1c0-0.1,0-0.1,0-0.1"/>
			<path class="st9" d="M146.4,249.1c0,0,0,0.1,0,0.2c0,0.1,0.1,0.2,0.1,0.3"/>
			<path class="st9" d="M143.9,250.3C143.9,250.3,143.9,250.3,143.9,250.3c0,0.1,0,0.1,0,0.2c0.4,1.4,3.3,11.5,4,9.6
				c0.7-1.7-0.9-8.4-1.5-10.6"/>
			<path class="st9" d="M121.2,250.4C121.2,250.4,121.2,250.4,121.2,250.4C121.2,250.4,121.2,250.4,121.2,250.4
				C121.2,250.4,121.2,250.4,121.2,250.4L121.2,250.4c-0.1,0.5-0.5,2.6,1.7,4.3c2.4,1.9,0-6.1,0-6.1c0.4-5.6-4.3-9.8-4.3-9.8
				c0.9-1.4,2.7-8.7,2.7-8.7c10.3,1.9,13.3-1.6,13.3-1.6c0.1,3.8,5.3,7,5.3,7c-3,2.2-0.1,11.7-0.1,11.7c-1,0.3-3,3.6-2.5,4.8
				s2.1,0.4,2.1,0.4s1.5-5.6,2.1-1.3c0.2,1.7,2,12,3.6,10.6c1.2-1.1-0.8-9.8-1.1-11.1"/>
			<path class="st9" d="M117.8,252.1c-0.8,1.9-3.8,10.8-2.1,10.6c1.8-0.2,5.1-11.3,5.4-12.3"/>
			<path class="st9" d="M117.9,251.8c0,0,0,0.1-0.1,0.2"/>
			<path class="st9" d="M117.9,252c0-0.1,0.1-0.1,0.1-0.2c0,0,0,0,0,0"/>
			<path class="st9" d="M117.9,252c0,0,0,0.1-0.1,0.2"/>
			<path class="st9" d="M114.6,254.1c-1.5,2.5-4.2,8.2-2.9,8.1c1.4-0.1,5.3-8.2,6.2-10"/>
			<path class="st9" d="M114.6,254.1c0.6-0.8,1-1.4,0.8-1.2C115.2,252.9,114.9,253.4,114.6,254.1z"/>
			<path class="st9" d="M91.5,168.4c4.6,7.6,3.1,16.7,3.1,16.7c1.6,0,11.2,16.8,11,21.6c-0.2,4.8,4.8,16.4,4.8,16.4
				c-12.1,6.2-0.8,19.6,4.2,22.8c1.9,1.2-6.2,10.1-5.1,12c0.8,1.4,3.7-2,5.1-3.9"/>
			<path class="st9" d="M112.1,215.7c0,0,4.4,12.4,15.8,10.6c11.4-1.9,11.7-17.6,11.7-17.6"/>
			<path class="st9" d="M135.4,198.2c0,0,1.2,5.9-6.6,6.8c-4.5,0.4-6.8,2.2-7.6,3c-1.8,1.9-8.7,4.6-10.9,0.7"/>
			<path class="st9" d="M112.8,182.8c0,0-5,5.1-3,8.8c2,3.7,6.5,1.6,6.5,1.6"/>
			<path class="st9" d="M121.1,181c0,0,7.4-0.2,8.2,2.6c0.8,2.8-3.1,6.9-3.1,6.9"/>
			<path class="st9" d="M117.1,191.2c0,0,0.6-5.4,5.8-3.1C128,190.3,117.3,197.4,117.1,191.2z"/>
			<path class="st9" d="M117.1,191.2c0,0,3.3-0.8,5.8-3.1"/>
			<path class="st9" d="M240.2,194.9c-2,1.3-11.3,6.7-25.4,9c-4,0.7-8.4,1.1-13.2,1.1c0,0-0.3,1.9-1,4.7c-1.1,4.8-3.3,11.9-6.3,15.5
				c0,0-6.2,31.9-5.2,33.3c3.2,4.5,0.2,6.8-2,7c-1.5,0.1-7.5-2.7-4.2-7c0.5-7.8,1.7-32.5,4-38.7c0,0-15-30.1-10.5-51.1
				c1.2-5.7,3.9-9.9,7.3-13.1"/>
			<path class="st9" d="M272.2,179.9c3.1-7.9,6.8-16.3,11.1-24"/>
			<path class="st9" d="M255,208.3c0.1,0.4,0.1,0.6,0.1,0.6s-2.1,40-2.9,41.9c-0.6,1.4-2.1,3.8-0.8,5.9"/>
			<path class="st10" d="M273.8,167.4c1.5-1.8,5-5.9,9.4-11.6c10-13,24.7-34.2,31.5-54.7c0,0,5.2,3.5,9.2-0.9c0,0,0-0.1,0.1-0.1
				c0,0,0,0.1,0,0.3c0.2,1.5,1.2,7.9,6.5,9.4c1.5,0.4,3.6-0.6,5.6-2.4c5.7-5.2,10.6-16.5,0.3-16.3c-7.5-0.8-2.9-12-2.9-12
				s6.8-1,7.1-4.6c1-9.7-8.8,1.1-8.7,2.9c0,0-0.7-0.8-2.3-2.1c-0.3-0.3,4.9-5,1.4-7.2c-0.4-0.2-2.4,6.2-2.8,6
				c-1.1-0.6-2.3-1.1-3.7-1.3c-0.7-0.1,3.7-6.5-0.9-6.4c-0.3,0-1,6.2-1.4,6.2c-1.1,0.1-2.2,0.3-3.5,0.6c0,0,3.8-8.7-2.1-9.7
				c-3.1-0.5,0.4,9.9,0.4,9.9s-31.4,62.9-38.7,62.9"/>
			<path class="st9" d="M201.2,182.9c0,0,1.6,9.6,0.4,22.1"/>
			<path class="st9" d="M215,203.2c0,0,0,0.2-0.1,0.7c-0.7,3.6-4.2,21.2-8,34.7c0,0,2.2,6.8-0.5,10.7c-2.7,3.8-9.2-6.2-6.4-8.8
				c0,0,4.8-28.8,1.2-30.7"/>
			<path class="st9" d="M255,208.3c1.7-6,4.4-14.4,7.9-23.4"/>
			<path class="st9" d="M251.1,258.4c-0.2-0.7-0.4-1.5-0.8-2.4c-2.8-6.3,2.2-38.2,2.2-38.2s0.9-3.7,2.5-9.5"/>
			<path class="st9" d="M237,191.3c1.1,0.5,2.2,1.8,3.2,3.6c3.7,6.5,6.2,18.9,6.2,18.9s-2.5,40-3.3,41.8c-0.8,1.8-3.2,5.5,1.3,7.7
				c2.5,1.2,4.7,0.9,5.9-0.4"/>
			<path class="st9" d="M156,27.3c0.4,7.6-7.2,15.1-14.1,20.4C136.3,52.2,131,55,131,55c0.7-19.7,21.7-33,21.7-33
				c4.2-17.2,13.8-18.2,13.8-18.2c1,0,1.9,0,2.8,0c28.2,0.7,30.3,14.2,30.5,16.3c0,0.2,0,0.3,0,0.3c-8.6,6.6-21.9,4.1-26.7,2.8
				c-1.1-0.3-1.8-0.5-1.8-0.5l-2.3,8.8l-0.3,1.2c5.5,14.5-8.8,20.5-8.8,20.5s-0.4,0.2-1,0.3c-0.9,0.2-2.2,0.4-3.9,0.3
				c-1-0.1-2.1-0.2-3.3-0.5c-1.2-0.3-2.4-0.8-3.8-1.4c-1.9-0.9-3.8-2.3-5.8-4.2"/>
			<path class="st9" d="M169.3,3.5c0,0,0,0.1,0,0.4c0,0.5-0.1,1.4-0.1,2.5c-0.1,5.2,0.1,15.9,3.9,16.9c0.1,0,0.2,0.1,0.3,0.1"/>
			<path class="st9" d="M199.9,20.2C199.9,20.2,199.9,20.2,199.9,20.2c-1.4-0.1-23.3-1.1-25.9-3.5"/>
			<path class="st9" d="M169.1,31.6C169.1,31.6,169.1,31.6,169.1,31.6c-0.6,0.3-3.6,1.7-7.7,0.8c0,0-8.9-22.1,7.8-26c0,0,0,0,0,0"/>
			<path class="st10" d="M149.5,57.6c0.1-1.1,0.6-4.2,2.1-4.1"/>
			<path class="st10" d="M147.3,57.5c0.2,0,0.8,0.1,1.3,0.2"/>
			<path class="st10" d="M147.3,57.5C147.3,57.6,147.3,57.6,147.3,57.5C147.2,57.5,147.2,57.5,147.3,57.5z"/>
			<path class="st10" d="M147.8,52.1c0,0-0.1,5-0.5,5.5"/>
			<path class="st11" d="M157.7,57.3c0-1,0.1-2.9,1.1-3.6"/>
			<path class="st11" d="M154.9,54c0,0,0.9,2.3,1.1,3.3"/>
			<path class="st9" d="M164.9,15.1c0,0-0.7-2.7,1.2-2.9C168,11.8,166.3,15.2,164.9,15.1z"/>
			<path class="st9" d="M323.8,100.1c0,0,0,0.1,0.1,0.2c0,0.1,0.1,0.1,0.1,0.2c0.9,1.8,4.8,8.7,12.1,6.9"/>
			<path class="st9" d="M203.5,159.3c-0.5,2.3-2.5,6.5-4.7,8.6c-3.6,3.5-9.1-0.6-8.3-1.2c0,0-0.6-2.3,4.2-5.6c4-2.8,4.7-1.4,6.6-2.3
				"/>
			<path class="st9" d="M220.8,197.8c0,0-2.1-1-1.8-6.8c0.4-5.8,2.5-4.2,2.5-8c0-3.8,5,4,5.4,9C227.5,197.2,220.8,198.8,220.8,197.8
				z"/>
			<path class="st9" d="M290.2,139.3c0,0-0.1,1.4-3.3,2.5c-3.2,1.1-2.9-0.4-4.9,0.4c-2,0.8,1.1-3.6,3.7-5
				C288.4,135.9,290.8,139.1,290.2,139.3z"/>
			<path class="st9" d="M181.8,190c0,0-0.8,9.8,2.5,9.5s2.8-1.5,1.5-3.8S183.5,187.8,181.8,190z"/>
			<path class="st9" d="M213.5,175c0,0-6.8-7-8.8-4.4c-2,2.6-0.7,3.1,1.8,3.6C209.1,174.7,214,177.8,213.5,175z"/>
			<path class="st9" d="M193.1,215.8c0,0,5.6-8,2.6-9.5c-2.9-1.4-3.1-0.1-3.2,2.5C192.5,211.4,190.5,216.8,193.1,215.8z"/>
			<path class="st9" d="M242.2,189c0,0-0.8,9.8,2.5,9.5s2.8-1.5,1.5-3.8S244,186.8,242.2,189z"/>
			<path class="st9" d="M189.6,172.4c0,0-9.8,0.5-9.1,3.7c0.7,3.2,1.8,2.5,3.9,1C186.5,175.6,192,173.9,189.6,172.4z"/>
			<path class="st9" d="M242.4,173.5c-2.2,0-4.3,0.4-4.4,1.9c-0.2,3.2,1.1,2.9,3.5,2c1.4-0.6,4.1-0.9,5.6-1.5"/>
			<path class="st9" d="M296.5,122.9c0,0-7.8,5.9-5.5,8.1s2.9,1.1,3.8-1.3C295.6,127.3,299.3,122.8,296.5,122.9z"/>
			<path class="st9" d="M86.7,259c1.6,6.2,2.8,10.2,3.5,11c0.2,0.2,0.4,0.2,0.5-0.1"/>
			<path class="st9" d="M76.7,212.7c1.9,9.4,3.7,18.3,5.4,26.1"/>
			<path class="st9" d="M67.4,164.7c0.9,4.6,1.8,9.3,2.7,14.1c1.2,6.5,2.5,12.9,3.8,19.3"/>
			<path class="st9" d="M59.7,123.5c1.4,7.4,2.9,15.7,4.6,24.5"/>
			<path class="st9" d="M49,103.9c-1.1-5.3-1.9-9.1-2.5-10.9c0,0-9.2-4.7,1.8-8.7s5.7,8,5.7,8s0.9,5.2,2.5,13.8"/>
			<path class="st9" d="M56.2,144.7c-1.9-11.1-3.6-21.3-5.2-29.7"/>
			<path class="st9" d="M63.7,190.1c-1.7-10.3-3.3-20.8-5-30.9"/>
			<path class="st9" d="M70.5,233.3c-1.3-8.1-2.7-16.9-4.1-26.2"/>
			<path class="st9" d="M75.1,263.1c-0.4-2.7-0.9-5.9-1.5-9.6"/>
			<path class="st9" d="M76.5,272c0,0-0.2-1.5-0.7-4.3"/>
			<path class="st9" d="M248.7,273c0,0,0.6-3.7,1.7-10.1c0.2-1.4,0.5-2.9,0.8-4.5c0.1-0.6,0.2-1.2,0.3-1.8
				c1.9-11.1,4.5-26.8,7.3-44.1c1.5-9.3,3.1-19.1,4.7-29c0.8-5.2,1.7-10.4,2.5-15.6c5-31.2,9.3-60.1,10.3-71
				c0.1-1.4,0.2-2.6,0.2-3.3c0,0-7.2-7.3,4.5-7.7c11.7-0.3,2.9,9.4,2.9,9.4s-2.5,17.3-5.7,41.2c-1.1,7.8-2.2,16.4-3.4,25.2
				c-0.2,1.9-0.5,3.7-0.8,5.6c-0.5,4.1-1.1,8.3-1.6,12.5c-3.7,28.3-7.3,57.4-9.1,75.9c-1,10.9-1.4,18.2-0.8,19.6
				c0.1,0.3,0.3,0.3,0.5,0.1"/>
			<path class="st9" d="M54,92.3c0,0,37.8-30.4,94.6-34.6c0.3,0,0.6,0,0.9-0.1c2.1-0.1,4.3-0.2,6.5-0.3c0.6,0,1.1,0,1.7,0
				c34.6-0.8,75.3,8.6,118.5,39.6c0,0,0.1,0.1,0.1,0.1"/>
			<path class="st9" d="M70.4,178.7c5.7-3.2,12.8-6.9,21.2-10.3c1.6-0.6,3.2-1.3,4.9-1.9c10-3.8,21.5-7.3,34.3-9.5
				c0.3,0,0.6-0.1,0.9-0.1c15.7-2.7,33.3-3.6,52.2-1.2c5.7,0.7,11.5,1.8,17.4,3.1h0c0.8,0.2,1.5,0.4,2.3,0.5
				c12.5,3.1,25.5,7.7,38.9,14.2c1.6,0.8,3.1,1.5,4.7,2.4c1.8,0.9,3.6,1.9,5.4,2.9c3.4,1.9,6.9,4,10.4,6.1c0,0,0.1,0.1,0.1,0.1"/>
			<path class="st10" d="M131.5,125C131.5,125,131.5,125,131.5,125"/>
			<path class="st10" d="M71.5,98l8,16l21.5-11.5l-18.5,40l6,11c0,0,29.5-10,45.5-9.5c0,0-6.5-16.4-2.5-19
				c-0.8,0.2-27.1,8.5-33.5,11l21-39l-6-16L71.5,98z"/>
			<path class="st9" d="M144,110.5c0,0-2.5-32.5,28.5-36.5s21,65.9-1.5,64C141.5,135.5,144,110.5,144,110.5z"/>
			<path class="st12" d="M167.4,92.4c0,0-9.7,8-6.7,19.8c4.1,16.5,13.9,4.3,14.6,2.7C177.5,110.2,179.5,87.9,167.4,92.4z"/>
			<path class="st9" d="M207.6,121.8c0,0,2.5-32.5,33.8-31.7s10.6,68.4-11.4,63C201.3,146.1,207.6,121.8,207.6,121.8z"/>
			<path class="st12" d="M233.5,107.5c0,0-10.8,6.4-9.7,18.6c1.4,17,13,6.4,14,4.9C240.7,126.6,246.2,104.9,233.5,107.5z"/>
			<path class="st9" d="M75.8,267.3l-0.6-4.3c0,0,0,0,0,0.1c-0.5,0.5-4.8,4.6-23.5-0.7c0,0,3.3,12.3,24.2,5.3
				C75.8,267.5,75.8,267.4,75.8,267.3z"/>
			<path class="st9" d="M70.5,233.3c-2.5-0.3-4.6,0.2-5.8,1.4c0,0-4.6,10.3,9,18.8c3.2,2,7.5,3.9,13,5.6c0.3,0.1,0.7,0.2,1,0.3
				c0,0,4.8-4.7-0.8-14.7c-1.3-2.3-2.9-4.2-4.7-5.8C78.4,235.6,74.1,233.7,70.5,233.3z"/>
			<path class="st9" d="M63.7,190.1c-0.5-0.3-0.7-0.4-0.7-0.4s-7.6,8.4,3.4,17.4c2.4,2,5.7,4,10.1,5.9c0,0,0.1-0.1,0.2-0.3
				c1-1.4,4.8-8.2-2.8-14.6c0,0,0,0-0.1-0.1C67.7,193,64.8,190.9,63.7,190.1z"/>
			<path class="st9" d="M56.3,144.3c0,0.1-0.1,0.2-0.1,0.4c-0.5,1.8-2.1,9,2.4,14.6c1.8,2.2,4.5,4.2,8.7,5.5
				c0.2,0.1,0.4,0.1,0.6,0.2c0,0,0.9-14.7-2.5-16.3c-0.4-0.2-0.8-0.4-1.2-0.6C57.7,145.1,56.5,144.4,56.3,144.3"/>
			<path class="st9" d="M56.3,144.3C56.3,144.2,56.3,144.3,56.3,144.3C56.3,144.3,56.3,144.3,56.3,144.3z"/>
			<path class="st9" d="M51.1,114.9c-1.2-0.5-2.6-0.8-4.1-0.9c-11.3-1.2-16.2-5.5-16.2-5.5s-10.2-3.8-10,1
				c0.2,4.8-4.7,11.2-9.8,11.2c0,0,5.8-5.8,5.8-11.8c0,0-8.2,8.8-9,8.8c-0.8,0-7.3,2.8-2.8-8.8C9.5,97.2,22.1,95.7,24,96
				c0,0,9.6,2.8,12.5,4.3c4.2,2.2,8.3,3,12.5,3.6c1.2,0.2,2.3,0.4,3.5,0.6c0.7,0.1,2.3,0.5,4,1.6c3.6,2.4,7.7,7.9,4.2,20.2
				c0,0-0.2-1.2-1-2.8C58.5,120.8,56,116.8,51.1,114.9z"/>
		</g>
	</g>
	<g>
		<g>
			<path d="M322.5,84.9c1.6,0,1.6-2.5,0-2.5S320.9,84.9,322.5,84.9L322.5,84.9z"/>
		</g>
	</g>
	<g>
		<g>
			<path d="M116,186.4c1.6,0,1.6-2.5,0-2.5C114.4,183.9,114.4,186.4,116,186.4L116,186.4z"/>
		</g>
	</g>
	<g>
		<g>
			<path d="M13.8,106.2c1.6,0,1.6-2.5,0-2.5C12.1,103.8,12.1,106.2,13.8,106.2L13.8,106.2z"/>
		</g>
	</g>
	<g>
		<g>
			<path d="M119.2,185.2c1.6,0,1.6-2.5,0-2.5C117.6,182.7,117.6,185.2,119.2,185.2L119.2,185.2z"/>
		</g>
	</g>
	<g>
		<g>
			<path d="M327.2,85.9c1.6,0,1.6-2.5,0-2.5S325.6,85.9,327.2,85.9L327.2,85.9z"/>
		</g>
	</g>
	<path class="st13" d="M324.5,72.9c-0.7-0.1,3.7-6.5-0.8-6.3c-0.3,0-1.1,6.2-1.4,6.2"/>
	<path class="st13" d="M329.5,75.4c-0.3-0.3,4.9-5,1.4-7.2c-0.4-0.2-2.4,6.2-2.8,6"/>
</g>
</svg>
